<svg id="グループ_1" data-name="グループ 1" xmlns="http://www.w3.org/2000/svg" width="294" height="80" viewBox="0 0 294 80">
  <metadata><?xpacket begin="﻿" id="W5M0MpCehiHzreSzNTczkc9d"?>
<x:xmpmeta xmlns:x="adobe:ns:meta/" x:xmptk="Adobe XMP Core 5.6-c138 79.159824, 2016/09/14-01:09:01        ">
   <rdf:RDF xmlns:rdf="http://www.w3.org/1999/02/22-rdf-syntax-ns#">
      <rdf:Description rdf:about=""/>
   </rdf:RDF>
</x:xmpmeta>
                                                                                                    
                                                                                                    
                                                                                                    
                                                                                                    
                                                                                                    
                                                                                                    
                                                                                                    
                                                                                                    
                                                                                                    
                                                                                                    
                                                                                                    
                                                                                                    
                                                                                                    
                                                                                                    
                                                                                                    
                                                                                                    
                                                                                                    
                                                                                                    
                                                                                                    
                                                                                                    
                           
<?xpacket end="w"?></metadata>
<defs>
    <style>
      .cls-1, .cls-2 {
        fill-rule: evenodd;
      }

      .cls-2 {
        fill: #fff;
      }
    </style>
  </defs>
  <rect id="長方形_2" data-name="長方形 2" x="-1" width="120" height="80"/>
  <path id="レース" class="cls-1" d="M126.889,14.141a47.817,47.817,0,0,1,.36,6.543v0.96l-0.24,33.375c-0.06,3-.12,3.662-0.72,4.922l5.342,6.243c1.02-.6,1.381-0.66,3.6-1.081,17.707-3.061,28.812-10.024,37.516-23.47a33,33,0,0,1-8.1-8.644C159.183,43.854,150.179,50.7,138.054,53.4l0.36-31.814a57.7,57.7,0,0,1,.42-7.383ZM175.63,45.115c3.661-.3,5.642-0.36,12.365-0.36h28.573a115.848,115.848,0,0,1,12.365.36V33.529a98.485,98.485,0,0,1-12.305.54H187.935a85.043,85.043,0,0,1-12.305-.54V45.115ZM285.873,57.12c-9.364-8.944-11.825-11.045-19.088-16.267,3.361-4.5,5.642-8.7,8.824-16.207a9.479,9.479,0,0,1,2.16-3.541l-5.282-5.4c-1.621.6-1.981,0.6-4.8,0.66l-20.529.3c-1.741.06-2.881,0.06-3.361,0.06a44.478,44.478,0,0,1-6.3-.42l0.3,10.685a71.288,71.288,0,0,1,9.544-.6l15.607-.24a48.291,48.291,0,0,1-12.065,17.648,56.609,56.609,0,0,1-19.449,12.125,31.437,31.437,0,0,1,6.723,9.484c9.3-4.5,16.447-9.784,22.09-16.447A96.494,96.494,0,0,1,277.469,66Z"/>
  <path id="_8" data-name="8" class="cls-2" d="M70.788,38.492c6.389-2.219,9.483-6.322,9.483-12.711,0-9.348-8.272-15.267-21.32-15.267-8.205,0-14.863,2.488-18.428,6.86a13.924,13.924,0,0,0-2.758,8.81,12.4,12.4,0,0,0,3.228,8.609c1.614,1.816,3.161,2.623,6.524,3.7a15.182,15.182,0,0,0-7.062,3.094,13.315,13.315,0,0,0-5.179,11.03,14.4,14.4,0,0,0,4.1,10.559c4.035,3.968,10.963,6.187,19.5,6.187,8.407,0,15.267-2.085,19.369-5.986a14.447,14.447,0,0,0,4.439-10.761c0-3.9-.874-6.726-2.959-9.214C77.513,40.577,75.025,39.232,70.788,38.492ZM59.018,21.14c4.842,0,7.869,2.287,7.869,5.918,0,3.766-2.959,6.053-7.8,6.053-4.91,0-8-2.354-8-6.053C51.082,23.427,54.176,21.14,59.018,21.14Zm0.067,23.068c6.053,0,9.685,2.623,9.685,7.129s-3.564,7.129-9.819,7.129c-6.12,0-9.819-2.623-9.819-6.995C49.132,46.966,52.9,44.209,59.085,44.209Z"/>
</svg>
