<svg id="グループ_1" data-name="グループ 1" xmlns="http://www.w3.org/2000/svg" width="294" height="80" viewBox="0 0 294 80">
  <metadata><?xpacket begin="﻿" id="W5M0MpCehiHzreSzNTczkc9d"?>
<x:xmpmeta xmlns:x="adobe:ns:meta/" x:xmptk="Adobe XMP Core 5.6-c138 79.159824, 2016/09/14-01:09:01        ">
   <rdf:RDF xmlns:rdf="http://www.w3.org/1999/02/22-rdf-syntax-ns#">
      <rdf:Description rdf:about=""/>
   </rdf:RDF>
</x:xmpmeta>
                                                                                                    
                                                                                                    
                                                                                                    
                                                                                                    
                                                                                                    
                                                                                                    
                                                                                                    
                                                                                                    
                                                                                                    
                                                                                                    
                                                                                                    
                                                                                                    
                                                                                                    
                                                                                                    
                                                                                                    
                                                                                                    
                                                                                                    
                                                                                                    
                                                                                                    
                                                                                                    
                           
<?xpacket end="w"?></metadata>
<defs>
    <style>
      .cls-1, .cls-2 {
        fill-rule: evenodd;
      }

      .cls-2 {
        fill: #fff;
      }
    </style>
  </defs>
  <rect id="長方形_2" data-name="長方形 2" x="-1" width="120" height="80"/>
  <path id="レース" class="cls-1" d="M126.889,14.141a47.817,47.817,0,0,1,.36,6.543v0.96l-0.24,33.375c-0.06,3-.12,3.662-0.72,4.922l5.342,6.243c1.02-.6,1.381-0.66,3.6-1.081,17.707-3.061,28.812-10.024,37.516-23.47a33,33,0,0,1-8.1-8.644C159.183,43.854,150.179,50.7,138.054,53.4l0.36-31.814a57.7,57.7,0,0,1,.42-7.383ZM175.63,45.115c3.661-.3,5.642-0.36,12.365-0.36h28.573a115.848,115.848,0,0,1,12.365.36V33.529a98.485,98.485,0,0,1-12.305.54H187.935a85.043,85.043,0,0,1-12.305-.54V45.115ZM285.873,57.12c-9.364-8.944-11.825-11.045-19.088-16.267,3.361-4.5,5.642-8.7,8.824-16.207a9.479,9.479,0,0,1,2.16-3.541l-5.282-5.4c-1.621.6-1.981,0.6-4.8,0.66l-20.529.3c-1.741.06-2.881,0.06-3.361,0.06a44.478,44.478,0,0,1-6.3-.42l0.3,10.685a71.288,71.288,0,0,1,9.544-.6l15.607-.24a48.291,48.291,0,0,1-12.065,17.648,56.609,56.609,0,0,1-19.449,12.125,31.437,31.437,0,0,1,6.723,9.484c9.3-4.5,16.447-9.784,22.09-16.447A96.494,96.494,0,0,1,277.469,66Z"/>
  <path id="_3" data-name="3" class="cls-2" d="M37.452,53.355A24.993,24.993,0,0,0,38.6,56.92,18.209,18.209,0,0,0,45.522,65.6c3.565,2.354,9.618,3.766,15.67,3.766a36.284,36.284,0,0,0,13.989-2.623A16.848,16.848,0,0,0,81.5,61.7a15,15,0,0,0,2.69-8.945A13.245,13.245,0,0,0,79.755,42.8c-2.354-2.018-4.573-2.959-8.676-3.565,7.734-1.816,11.568-6.255,11.568-13.384a13.029,13.029,0,0,0-3.766-9.55c-3.834-3.7-9.886-5.717-17.217-5.717-8.205,0-14.393,2.287-18.5,6.725-2.152,2.354-3.228,4.372-4.506,8.541L53.19,27.933c1.009-4.3,3.43-6.187,8.205-6.187,4.439,0,6.995,2.085,6.995,5.717,0,4.3-3.161,6.457-9.55,6.457a59.087,59.087,0,0,1-7.129-.4V45.083c2.623-.269,5.649-0.4,8.272-0.4a19.361,19.361,0,0,1,6.255.874,5.835,5.835,0,0,1,3.632,5.784c0,4.1-3.3,6.726-8.541,6.726a10.453,10.453,0,0,1-7.734-2.892c-1.076-1.143-1.48-2.085-1.883-4.3Z"/>
</svg>
