<svg id="グループ_1" data-name="グループ 1" xmlns="http://www.w3.org/2000/svg" width="294" height="80" viewBox="0 0 294 80">
  <metadata><?xpacket begin="﻿" id="W5M0MpCehiHzreSzNTczkc9d"?>
<x:xmpmeta xmlns:x="adobe:ns:meta/" x:xmptk="Adobe XMP Core 5.6-c138 79.159824, 2016/09/14-01:09:01        ">
   <rdf:RDF xmlns:rdf="http://www.w3.org/1999/02/22-rdf-syntax-ns#">
      <rdf:Description rdf:about=""/>
   </rdf:RDF>
</x:xmpmeta>
                                                                                                    
                                                                                                    
                                                                                                    
                                                                                                    
                                                                                                    
                                                                                                    
                                                                                                    
                                                                                                    
                                                                                                    
                                                                                                    
                                                                                                    
                                                                                                    
                                                                                                    
                                                                                                    
                                                                                                    
                                                                                                    
                                                                                                    
                                                                                                    
                                                                                                    
                                                                                                    
                           
<?xpacket end="w"?></metadata>
<defs>
    <style>
      .cls-1, .cls-2 {
        fill-rule: evenodd;
      }

      .cls-2 {
        fill: #fff;
      }
    </style>
  </defs>
  <rect id="長方形_2" data-name="長方形 2" x="-1" width="120" height="80"/>
  <path id="レース" class="cls-1" d="M126.889,14.141a47.817,47.817,0,0,1,.36,6.543v0.96l-0.24,33.375c-0.06,3-.12,3.662-0.72,4.922l5.342,6.243c1.02-.6,1.381-0.66,3.6-1.081,17.707-3.061,28.812-10.024,37.516-23.47a33,33,0,0,1-8.1-8.644C159.183,43.854,150.179,50.7,138.054,53.4l0.36-31.814a57.7,57.7,0,0,1,.42-7.383ZM175.63,45.115c3.661-.3,5.642-0.36,12.365-0.36h28.573a115.848,115.848,0,0,1,12.365.36V33.529a98.485,98.485,0,0,1-12.305.54H187.935a85.043,85.043,0,0,1-12.305-.54V45.115ZM285.873,57.12c-9.364-8.944-11.825-11.045-19.088-16.267,3.361-4.5,5.642-8.7,8.824-16.207a9.479,9.479,0,0,1,2.16-3.541l-5.282-5.4c-1.621.6-1.981,0.6-4.8,0.66l-20.529.3c-1.741.06-2.881,0.06-3.361,0.06a44.478,44.478,0,0,1-6.3-.42l0.3,10.685a71.288,71.288,0,0,1,9.544-.6l15.607-.24a48.291,48.291,0,0,1-12.065,17.648,56.609,56.609,0,0,1-19.449,12.125,31.437,31.437,0,0,1,6.723,9.484c9.3-4.5,16.447-9.784,22.09-16.447A96.494,96.494,0,0,1,277.469,66Z"/>
  <path id="_9" data-name="9" class="cls-2" d="M36.946,56.046c1.749,4.1,2.892,5.918,5.179,8q5.952,5.246,15.536,5.246a30.451,30.451,0,0,0,9.012-1.412A20.02,20.02,0,0,0,78.106,57.66a43.726,43.726,0,0,0,3.834-18.831c0-7.4-1.48-13.787-4.237-18.159-4.035-6.456-10.828-9.954-19.369-9.954-13.316,0-22.463,8.138-22.463,20.042,0,11.3,7.869,18.63,19.975,18.63,5.918,0,9.752-1.412,13.384-4.842-0.4,4.573-1.009,6.994-2.287,9.147A9.606,9.606,0,0,1,58.333,58.4a8.249,8.249,0,0,1-6.322-2.488A7.611,7.611,0,0,1,50.4,53.019ZM58.131,38.761c-5.515,0-9.147-3.43-9.147-8.609,0-5.111,3.834-8.609,9.416-8.609s9.483,3.5,9.483,8.541C67.883,35.264,63.915,38.761,58.131,38.761Z"/>
</svg>
