<svg id="グループ_1" data-name="グループ 1" xmlns="http://www.w3.org/2000/svg" width="294" height="80" viewBox="0 0 294 80">
  <metadata><?xpacket begin="﻿" id="W5M0MpCehiHzreSzNTczkc9d"?>
<x:xmpmeta xmlns:x="adobe:ns:meta/" x:xmptk="Adobe XMP Core 5.6-c138 79.159824, 2016/09/14-01:09:01        ">
   <rdf:RDF xmlns:rdf="http://www.w3.org/1999/02/22-rdf-syntax-ns#">
      <rdf:Description rdf:about=""/>
   </rdf:RDF>
</x:xmpmeta>
                                                                                                    
                                                                                                    
                                                                                                    
                                                                                                    
                                                                                                    
                                                                                                    
                                                                                                    
                                                                                                    
                                                                                                    
                                                                                                    
                                                                                                    
                                                                                                    
                                                                                                    
                                                                                                    
                                                                                                    
                                                                                                    
                                                                                                    
                                                                                                    
                                                                                                    
                                                                                                    
                           
<?xpacket end="w"?></metadata>
<defs>
    <style>
      .cls-1, .cls-2 {
        fill-rule: evenodd;
      }

      .cls-2 {
        fill: #fff;
      }
    </style>
  </defs>
  <rect id="長方形_2" data-name="長方形 2" x="-1" width="120" height="80"/>
  <path id="レース" class="cls-1" d="M126.889,14.141a47.817,47.817,0,0,1,.36,6.543v0.96l-0.24,33.375c-0.06,3-.12,3.662-0.72,4.922l5.342,6.243c1.02-.6,1.381-0.66,3.6-1.081,17.707-3.061,28.812-10.024,37.516-23.47a33,33,0,0,1-8.1-8.644C159.183,43.854,150.179,50.7,138.054,53.4l0.36-31.814a57.7,57.7,0,0,1,.42-7.383ZM175.63,45.115c3.661-.3,5.642-0.36,12.365-0.36h28.573a115.848,115.848,0,0,1,12.365.36V33.529a98.485,98.485,0,0,1-12.305.54H187.935a85.043,85.043,0,0,1-12.305-.54V45.115ZM285.873,57.12c-9.364-8.944-11.825-11.045-19.088-16.267,3.361-4.5,5.642-8.7,8.824-16.207a9.479,9.479,0,0,1,2.16-3.541l-5.282-5.4c-1.621.6-1.981,0.6-4.8,0.66l-20.529.3c-1.741.06-2.881,0.06-3.361,0.06a44.478,44.478,0,0,1-6.3-.42l0.3,10.685a71.288,71.288,0,0,1,9.544-.6l15.607-.24a48.291,48.291,0,0,1-12.065,17.648,56.609,56.609,0,0,1-19.449,12.125,31.437,31.437,0,0,1,6.723,9.484c9.3-4.5,16.447-9.784,22.09-16.447A96.494,96.494,0,0,1,277.469,66Z"/>
  <path id="_12" data-name="12" class="cls-2" d="M18.505,23.965a71.125,71.125,0,0,1,8.205-.471H29.4v34.3a77.186,77.186,0,0,1-.538,10.156H43.524a77.83,77.83,0,0,1-.538-10.156V22.553a104.406,104.406,0,0,1,.471-10.828,66.718,66.718,0,0,1-8.34.269H26.576a43.827,43.827,0,0,1-8.071-.471V23.965ZM89.554,67.95c4.775,0,7.6.134,11.5,0.471V55.709a85.174,85.174,0,0,1-10.761.471H74.624c1.547-2.959,4.035-5.313,9.886-9.349,6.86-4.775,7.533-5.246,9.752-7.2a15.59,15.59,0,0,0,6.187-12.509,14.484,14.484,0,0,0-2.219-7.869c-3.363-5.448-10.29-8.474-19.369-8.474-7.869,0-13.989,2.421-17.823,6.927-2.69,3.161-3.9,6.12-4.91,11.971l14.123,1.48c0.336-2.825.74-4.17,1.681-5.649,1.48-2.287,3.766-3.363,6.994-3.363,4.3,0,7.2,2.152,7.2,5.38,0,3.094-1.412,4.842-7.2,8.743-6.86,4.641-9.416,6.591-11.971,8.945a34.579,34.579,0,0,0-9.685,15.065,33.478,33.478,0,0,0-1.412,7.936c2.489-.2,4.035-0.269,10.088-0.269H89.554Z"/>
</svg>
