<svg xmlns="http://www.w3.org/2000/svg" width="220" height="70" viewBox="0 0 220 70">
  <metadata><?xpacket begin="﻿" id="W5M0MpCehiHzreSzNTczkc9d"?>
<x:xmpmeta xmlns:x="adobe:ns:meta/" x:xmptk="Adobe XMP Core 5.6-c138 79.159824, 2016/09/14-01:09:01        ">
   <rdf:RDF xmlns:rdf="http://www.w3.org/1999/02/22-rdf-syntax-ns#">
      <rdf:Description rdf:about=""/>
   </rdf:RDF>
</x:xmpmeta>
                                                                                                    
                                                                                                    
                                                                                                    
                                                                                                    
                                                                                                    
                                                                                                    
                                                                                                    
                                                                                                    
                                                                                                    
                                                                                                    
                                                                                                    
                                                                                                    
                                                                                                    
                                                                                                    
                                                                                                    
                                                                                                    
                                                                                                    
                                                                                                    
                                                                                                    
                                                                                                    
                           
<?xpacket end="w"?></metadata>
<defs>
    <style>
      .cls-1 {
        fill: #010101;
        fill-rule: evenodd;
      }
    </style>
  </defs>
  <path id="京王閣_" data-name="京王閣 " class="cls-1" d="M77.966,5.415H53.075l0.471-2.672H39.2L38.731,5.415H13.77L11.837,16.384h64.2ZM63.645,50.345H49.793L52.922,66.1H66.844Zm8.8-31.148H14.434L9.5,47.181H31.438L27.978,66.8H42.04L45.5,47.181H67.508ZM12.106,50.345L3.352,66.1H17.274l8.613-15.75H12.106ZM24.93,36.634l1.214-6.891h30.8l-1.214,6.891H24.93ZM140.147,53.65H114.975L117.083,41.7H139.02l2.245-12.727H119.327l2.083-11.812h23.625l2.219-12.586h-61.1L83.934,17.158h23.625L105.475,28.97H83.538L81.293,41.7h21.938L101.124,53.65H75.952l-2.22,12.586h64.2ZM217.3,3.587H188.261L184.1,27.212h16.1l-7,39.727h12.938ZM195.363,45.845l-6.815-2.812,5.86-2.531,2.069-11.742H175.032l-9.09,4.5-1.537,8.719,6.162-3.445-0.843,4.781-6.353,2.531-1.611,9.141,2.3-1.055-2.009,11.391h27.7l2.071-11.742,2.019,0.914ZM185.378,3.587H156.339L145.168,66.939h12.938l7-39.727h16.1Zm13.133,10.055,0.533-3.023h4.078l-0.533,3.023h-4.078Zm-1.351,7.664,0.458-2.6H201.7l-0.458,2.6H197.16ZM167.5,13.642l0.533-3.023h4.149l-0.533,3.023H167.5Zm-1.351,7.664,0.458-2.6h4.148l-0.458,2.6h-4.148Zm13.49,18-5.952-2.531,2.179-1.2H187.33l-0.112.633Zm-8.49,11.461,7.015-3.094,7.188,3.094h-14.2Zm2.951,8.789,0.52-2.953h5.625l-0.52,2.953H174.1Z"/>
</svg>
