<svg xmlns="http://www.w3.org/2000/svg" width="150" height="70" viewBox="0 0 150 70">
  <metadata><?xpacket begin="﻿" id="W5M0MpCehiHzreSzNTczkc9d"?>
<x:xmpmeta xmlns:x="adobe:ns:meta/" x:xmptk="Adobe XMP Core 5.6-c138 79.159824, 2016/09/14-01:09:01        ">
   <rdf:RDF xmlns:rdf="http://www.w3.org/1999/02/22-rdf-syntax-ns#">
      <rdf:Description rdf:about=""/>
   </rdf:RDF>
</x:xmpmeta>
                                                                                                    
                                                                                                    
                                                                                                    
                                                                                                    
                                                                                                    
                                                                                                    
                                                                                                    
                                                                                                    
                                                                                                    
                                                                                                    
                                                                                                    
                                                                                                    
                                                                                                    
                                                                                                    
                                                                                                    
                                                                                                    
                                                                                                    
                                                                                                    
                                                                                                    
                                                                                                    
                           
<?xpacket end="w"?></metadata>
<defs>
    <style>
      .cls-1 {
        fill: #010101;
        fill-rule: evenodd;
      }
    </style>
  </defs>
  <path id="玉野_" data-name="玉野 " class="cls-1" d="M67.526,53.439H62.816L62.992,42.47H49.985L49.737,53.439H42.425l2.369-13.43H66.661L68.9,27.283H47.037l1.935-10.969H72.526L74.771,3.587H13.81L11.565,16.314H35.12L33.185,27.283H11.318L9.075,40.009H30.942l-2.369,13.43H3.472L1.253,66.025H65.307Zm75.312-26.3h-5.906l6.182-11.531,2.12-12.023H117.179L115.12,15.259h16.805l-5.362,10.477L125.308,17.3H114.831l1.5,9.844h-3.586l-2.132,12.094h6.117l-2.641,14.977H110.15l-2.256,12.8h15.75l4.9-27.773h2.742l-4.1,14.484h9.211L140.9,38.111ZM107.384,53.158l-10.622.422,0.359-2.039H106.9L108.842,40.5H99.068l0.385-2.18h9.773l6.137-34.8H83.723l-6.137,34.8h9.633L86.834,40.5H77.2L75.254,51.54h9.633l-0.471,2.672L73.852,54.7,71.844,66.1l33.58-1.828ZM100.86,16.384l0.521-2.953h2.391l-0.521,2.953H100.86Zm-9.7,0,0.521-2.953h2.6l-0.521,2.953h-2.6Zm7.558,12.164,0.534-3.024h2.391l-0.534,3.024H98.715Zm-9.7,0,0.534-3.024h2.6l-0.534,3.024h-2.6Z"/>
</svg>
