<svg xmlns="http://www.w3.org/2000/svg" width="150" height="70" viewBox="0 0 150 70">
  <metadata><?xpacket begin="﻿" id="W5M0MpCehiHzreSzNTczkc9d"?>
<x:xmpmeta xmlns:x="adobe:ns:meta/" x:xmptk="Adobe XMP Core 5.6-c138 79.159824, 2016/09/14-01:09:01        ">
   <rdf:RDF xmlns:rdf="http://www.w3.org/1999/02/22-rdf-syntax-ns#">
      <rdf:Description rdf:about=""/>
   </rdf:RDF>
</x:xmpmeta>
                                                                                                    
                                                                                                    
                                                                                                    
                                                                                                    
                                                                                                    
                                                                                                    
                                                                                                    
                                                                                                    
                                                                                                    
                                                                                                    
                                                                                                    
                                                                                                    
                                                                                                    
                                                                                                    
                                                                                                    
                                                                                                    
                                                                                                    
                                                                                                    
                                                                                                    
                                                                                                    
                           
<?xpacket end="w"?></metadata>
<defs>
    <style>
      .cls-1 {
        fill: #010101;
        fill-rule: evenodd;
      }
    </style>
  </defs>
  <path id="大宮_" data-name="大宮 " class="cls-1" d="M52.961,33.259H41.57l2.841-4.148H71.9l2.641-14.977H50.216L52.225,2.743H36.475L34.466,14.134H10.49L7.849,29.111H27.818L1.166,67.009H18.392L38.635,37.548l9.992,29.461H65.221ZM146,5.134H120.9l0.41-2.32H107.453l-0.41,2.32h-25.1l-2.8,15.891h3.867l-3.633,20.6H98.007l-1.017,2.18H76.669L72.74,66.1H133.7l3.93-22.289H111.685l0.947-2.18H135.7l3.633-20.6H143.2ZM93.032,19.2l0.5-2.812h36.984l-0.5,2.813H93.032Zm0.651,12.656,0.5-2.812h31.149l-0.5,2.813H93.684Zm-6.73,24.609,0.521-2.953h36l-0.52,2.953h-36Z"/>
</svg>
