<svg xmlns="http://www.w3.org/2000/svg" width="150" height="70" viewBox="0 0 150 70">
  <metadata><?xpacket begin="﻿" id="W5M0MpCehiHzreSzNTczkc9d"?>
<x:xmpmeta xmlns:x="adobe:ns:meta/" x:xmptk="Adobe XMP Core 5.6-c138 79.159824, 2016/09/14-01:09:01        ">
   <rdf:RDF xmlns:rdf="http://www.w3.org/1999/02/22-rdf-syntax-ns#">
      <rdf:Description rdf:about=""/>
   </rdf:RDF>
</x:xmpmeta>
                                                                                                    
                                                                                                    
                                                                                                    
                                                                                                    
                                                                                                    
                                                                                                    
                                                                                                    
                                                                                                    
                                                                                                    
                                                                                                    
                                                                                                    
                                                                                                    
                                                                                                    
                                                                                                    
                                                                                                    
                                                                                                    
                                                                                                    
                                                                                                    
                                                                                                    
                                                                                                    
                           
<?xpacket end="w"?></metadata>
<defs>
    <style>
      .cls-1 {
        fill: #010101;
        fill-rule: evenodd;
      }
    </style>
  </defs>
  <path id="福井_" data-name="福井 " class="cls-1" d="M74.053,3.447h-37.9l-1.637,9.281h37.9Zm-2.889,11.6H35.093L31.808,33.681h36.07Zm-2.788,20.6H30.407L25.037,66.1H63.006ZM33.951,9.564h-5.7l1.191-6.75H17.212l-1.191,6.75H10.4L8.2,22.009H18.679L5.474,37.478,2.065,56.814,9.227,48.1,5.9,66.939H18.139l3.446-19.547,4.307,5.484,2.6-14.766-5.858-6.258,9.379-11.32ZM45.91,25.876l0.533-3.024H56.92l-0.533,3.024H45.91Zm5.8,20.953,0.558-3.164h3.375l-0.558,3.164H51.708ZM49.674,58.361l0.633-3.586h3.375l-0.633,3.586H49.674ZM39.966,46.829l0.558-3.164H43.9l-0.558,3.164H39.966ZM37.932,58.361l0.633-3.586H41.94l-0.633,3.586H37.932ZM140.009,38.04h-6.75l2.492-14.133h5.2l2.368-13.43h-5.2l1.376-7.8H125.151l-1.376,7.8H103.314l1.376-7.8H90.557l-1.375,7.8H81.94l-2.369,13.43h7.242L84.321,38.04H75.6l-2.381,13.5h5.344l-7.3,15.469H86.174L92.98,51.54h23.554l-2.728,15.469H128.15l2.728-15.469h6.75Zm-41.555,0,2.492-14.133h20.461L118.915,38.04H98.454Z"/>
</svg>
