<svg xmlns="http://www.w3.org/2000/svg" width="150" height="70" viewBox="0 0 150 70">
  <metadata><?xpacket begin="﻿" id="W5M0MpCehiHzreSzNTczkc9d"?>
<x:xmpmeta xmlns:x="adobe:ns:meta/" x:xmptk="Adobe XMP Core 5.6-c138 79.159824, 2016/09/14-01:09:01        ">
   <rdf:RDF xmlns:rdf="http://www.w3.org/1999/02/22-rdf-syntax-ns#">
      <rdf:Description rdf:about=""/>
   </rdf:RDF>
</x:xmpmeta>
                                                                                                    
                                                                                                    
                                                                                                    
                                                                                                    
                                                                                                    
                                                                                                    
                                                                                                    
                                                                                                    
                                                                                                    
                                                                                                    
                                                                                                    
                                                                                                    
                                                                                                    
                                                                                                    
                                                                                                    
                                                                                                    
                                                                                                    
                                                                                                    
                                                                                                    
                                                                                                    
                           
<?xpacket end="w"?></metadata>
<defs>
    <style>
      .cls-1 {
        fill: #010101;
        fill-rule: evenodd;
      }
    </style>
  </defs>
  <path id="富山_" data-name="富山 " class="cls-1" d="M75.341,4.783H50.24l0.347-1.969H36.735L36.388,4.783h-25.1L8.5,20.6h6.68l-0.485,2.742h50.7L65.872,20.6h6.68Zm-7.1,20.32H11.218L8.565,40.15H65.589ZM67.334,41.415H6.373L2.022,66.1H62.983ZM22.2,16.244l0.3-1.688H60.82l-0.3,1.688H22.2ZM23.032,33.47l0.36-2.039H53.908l-0.36,2.039H23.032ZM41.783,50.345l0.347-1.969H52.256l-0.347,1.969H41.783ZM40.221,59.2l0.347-1.969H50.693L50.346,59.2H40.221ZM18.651,50.345L19,48.376H29.123l-0.347,1.969H18.651ZM17.088,59.2l0.347-1.969H27.56L27.213,59.2H17.088ZM143.294,7.525h-14.2l-8.023,45.492h-9.351l8.853-50.2h-14.2l-8.853,50.2H88.373L96.4,7.525h-14.2L71.839,66.236h61.1Z"/>
</svg>
