<svg xmlns="http://www.w3.org/2000/svg" width="150" height="70" viewBox="0 0 150 70">
  <metadata><?xpacket begin="﻿" id="W5M0MpCehiHzreSzNTczkc9d"?>
<x:xmpmeta xmlns:x="adobe:ns:meta/" x:xmptk="Adobe XMP Core 5.6-c138 79.159824, 2016/09/14-01:09:01        ">
   <rdf:RDF xmlns:rdf="http://www.w3.org/1999/02/22-rdf-syntax-ns#">
      <rdf:Description rdf:about=""/>
   </rdf:RDF>
</x:xmpmeta>
                                                                                                    
                                                                                                    
                                                                                                    
                                                                                                    
                                                                                                    
                                                                                                    
                                                                                                    
                                                                                                    
                                                                                                    
                                                                                                    
                                                                                                    
                                                                                                    
                                                                                                    
                                                                                                    
                                                                                                    
                                                                                                    
                                                                                                    
                                                                                                    
                                                                                                    
                                                                                                    
                           
<?xpacket end="w"?></metadata>
<defs>
    <style>
      .cls-1 {
        fill: #010101;
        fill-rule: evenodd;
      }
    </style>
  </defs>
  <path id="高松_" data-name="高松 " class="cls-1" d="M75.914,4.853H50.742l0.385-2.18H37.275l-0.385,2.18H11.719L9.872,15.329h64.2Zm-6.88,12.3H14.261L11.223,34.384H66Zm0.54,19.266H6.925L1.508,67.15h13.43l3.843-21.8H54.5l-3.843,21.8h13.5Zm-18.2,11.109H21.138L18.1,64.759H48.335ZM26.223,27.072l0.459-2.6H54.034l-0.459,2.6H26.223Zm5.187,30.8,0.645-3.656h6.188L37.6,57.869H31.41ZM142.023,2.814H128.242l-0.7,31.078h13.781ZM136.738,37.97H124.011l-0.94,14.906H113.3l10.551-25.945h-6.679l7.979-24.117H111.3l-8.646,26.3L97.6,23.837l0.558-3.164h6.61L106.954,8.3h-6.61l0.968-5.484H88.586L87.618,8.3H80.8L78.616,20.673h6.328l-8.82,14.133-4.1,23.273L81.593,42.47l-4.34,24.609H89.98L94.791,39.8l5.315,6.539,2.2-12.445h5.2L99.516,52.876,97.185,66.1h37.968Z"/>
</svg>
