<svg xmlns="http://www.w3.org/2000/svg" width="150" height="70" viewBox="0 0 150 70">
  <metadata><?xpacket begin="﻿" id="W5M0MpCehiHzreSzNTczkc9d"?>
<x:xmpmeta xmlns:x="adobe:ns:meta/" x:xmptk="Adobe XMP Core 5.6-c138 79.159824, 2016/09/14-01:09:01        ">
   <rdf:RDF xmlns:rdf="http://www.w3.org/1999/02/22-rdf-syntax-ns#">
      <rdf:Description rdf:about=""/>
   </rdf:RDF>
</x:xmpmeta>
                                                                                                    
                                                                                                    
                                                                                                    
                                                                                                    
                                                                                                    
                                                                                                    
                                                                                                    
                                                                                                    
                                                                                                    
                                                                                                    
                                                                                                    
                                                                                                    
                                                                                                    
                                                                                                    
                                                                                                    
                                                                                                    
                                                                                                    
                                                                                                    
                                                                                                    
                                                                                                    
                           
<?xpacket end="w"?></metadata>
<defs>
    <style>
      .cls-1 {
        fill: #010101;
        fill-rule: evenodd;
      }
    </style>
  </defs>
  <path id="広島_" data-name="広島 " class="cls-1" d="M76.249,5.7H52.905l0.521-2.953H39.293L38.773,5.7H13.882L8.005,39.025,1.019,67.079H14.308l7.627-28.9L25.2,19.689H73.782ZM67.529,31.22H53.959L52.317,53.3H35.16L47.945,23.064H32.828L20.395,53.3,18.113,66.236H65.574Zm72.989,9.492H92.635l0.335-1.9h47.039l1.326-7.524H94.3l0.3-1.687h45.492l4.4-24.961H116.644l1.026-1.828H103.678l-1.1,1.828H85.425L77.6,49.009H90.609l-1.351,7.664H86.586l0.98-5.555h-12.8L72.24,65.462h44.578l2.529-14.344H106.48l-0.98,5.555h-2.672l1.352-7.664h21.3l-0.868,4.922h-3.8l-2.293,13.008h17.367ZM97.433,13.5l0.31-1.758h31.922l-0.31,1.758H97.433Zm-1.562,8.859,0.3-1.687H128.09l-0.3,1.688H95.871Z"/>
</svg>
