<svg xmlns="http://www.w3.org/2000/svg" width="150" height="70" viewBox="0 0 150 70">
  <metadata><?xpacket begin="﻿" id="W5M0MpCehiHzreSzNTczkc9d"?>
<x:xmpmeta xmlns:x="adobe:ns:meta/" x:xmptk="Adobe XMP Core 5.6-c138 79.159824, 2016/09/14-01:09:01        ">
   <rdf:RDF xmlns:rdf="http://www.w3.org/1999/02/22-rdf-syntax-ns#">
      <rdf:Description rdf:about=""/>
   </rdf:RDF>
</x:xmpmeta>
                                                                                                    
                                                                                                    
                                                                                                    
                                                                                                    
                                                                                                    
                                                                                                    
                                                                                                    
                                                                                                    
                                                                                                    
                                                                                                    
                                                                                                    
                                                                                                    
                                                                                                    
                                                                                                    
                                                                                                    
                                                                                                    
                                                                                                    
                                                                                                    
                                                                                                    
                                                                                                    
                           
<?xpacket end="w"?></metadata>
<defs>
    <style>
      .cls-1 {
        fill: #010101;
        fill-rule: evenodd;
      }
    </style>
  </defs>
  <path id="奈良_" data-name="奈良 " class="cls-1" d="M71.952,22.22l-5.87-3.8h6.539L74.741,6.4H48.233l4.922-3.586H36L30.866,6.4H10.687L8.566,18.423h4.711L7.9,22.22,5.157,37.759,19.214,27.423,18,34.314H57.233L58.312,28.2l10.9,9.562ZM60.524,52.736H46.391l0.379,14.2h14.2Zm6.45-15.047H7.419L5.263,49.923h22.43L24.716,66.8H39.271l2.976-16.875h22.57ZM7.789,52.736l-5.457,14.2H16.465l5.387-14.2H7.789ZM26.7,22.079l5-3.656H47.027l4.137,3.656H26.7Zm95.966,23.133-3.494,3.867-3.115-3.867H99.741l5.129,6.4-14.41.773,1.76-9.984h45.352l6.435-36.492H120.8l0.558-3.164H106.6l-0.558,3.164H84.522l-8.331,47.25-3.26.141L70.5,67.079l35.036-2.109,1.81-10.266,9.982,12.375h17.086l-9.594-11.391h4.5l9.372-10.477H122.662ZM96.337,19.056l0.509-2.883h31.078l-0.509,2.883H96.337ZM94.031,32.134l0.5-2.812h31.079l-0.5,2.812H94.031Z"/>
</svg>
