<svg xmlns="http://www.w3.org/2000/svg" width="150" height="70" viewBox="0 0 150 70">
  <metadata><?xpacket begin="﻿" id="W5M0MpCehiHzreSzNTczkc9d"?>
<x:xmpmeta xmlns:x="adobe:ns:meta/" x:xmptk="Adobe XMP Core 5.6-c138 79.159824, 2016/09/14-01:09:01        ">
   <rdf:RDF xmlns:rdf="http://www.w3.org/1999/02/22-rdf-syntax-ns#">
      <rdf:Description rdf:about=""/>
   </rdf:RDF>
</x:xmpmeta>
                                                                                                    
                                                                                                    
                                                                                                    
                                                                                                    
                                                                                                    
                                                                                                    
                                                                                                    
                                                                                                    
                                                                                                    
                                                                                                    
                                                                                                    
                                                                                                    
                                                                                                    
                                                                                                    
                                                                                                    
                                                                                                    
                                                                                                    
                                                                                                    
                                                                                                    
                                                                                                    
                           
<?xpacket end="w"?></metadata>
<defs>
    <style>
      .cls-1 {
        fill: #010101;
        fill-rule: evenodd;
      }
    </style>
  </defs>
  <path id="小倉_" data-name="小倉 " class="cls-1" d="M70.977,11.673H56.141l-5.06,47.039H66.128ZM52.922,2.814H37.313L28.733,51.47H21.28L18.553,66.939H41.615ZM14.587,11.673L1.792,58.712h15.4L29.634,11.673H14.587Zm131.032-.562L120.12,2.6H109.784L81.353,11.111,79.221,23.2,94.73,17.79l-0.843,4.781h35.086l0.842-4.781L143.487,23.2Zm-8.127,36.914H89.75l0.521-1.758h45.914l3.894-22.078H81.719L78.768,40.923,70.943,66.165H83.88L89,50.275,86.2,66.165h48.094ZM104.537,14.415l8.912-3.094,7.752,3.094H104.537ZM93.467,32.134L93.826,30.1h32.063l-0.36,2.039H93.467ZM92.041,40.22L92.4,38.181h32.063L124.1,40.22H92.041Zm8.647,18.352,0.484-2.742h21.8l-0.483,2.742h-21.8Z"/>
</svg>
