<svg xmlns="http://www.w3.org/2000/svg" width="150" height="70" viewBox="0 0 150 70">
  <metadata><?xpacket begin="﻿" id="W5M0MpCehiHzreSzNTczkc9d"?>
<x:xmpmeta xmlns:x="adobe:ns:meta/" x:xmptk="Adobe XMP Core 5.6-c138 79.159824, 2016/09/14-01:09:01        ">
   <rdf:RDF xmlns:rdf="http://www.w3.org/1999/02/22-rdf-syntax-ns#">
      <rdf:Description rdf:about=""/>
   </rdf:RDF>
</x:xmpmeta>
                                                                                                    
                                                                                                    
                                                                                                    
                                                                                                    
                                                                                                    
                                                                                                    
                                                                                                    
                                                                                                    
                                                                                                    
                                                                                                    
                                                                                                    
                                                                                                    
                                                                                                    
                                                                                                    
                                                                                                    
                                                                                                    
                                                                                                    
                                                                                                    
                                                                                                    
                                                                                                    
                           
<?xpacket end="w"?></metadata>
<defs>
    <style>
      .cls-1 {
        fill: #010101;
        fill-rule: evenodd;
      }
    </style>
  </defs>
  <path id="松阪_" data-name="松阪 " class="cls-1" d="M71.64,2.814H57.859l-0.7,31.078H70.942ZM66.355,37.97H53.628l-0.94,14.906H42.914L53.466,26.931h-6.68L54.765,2.814H40.914l-8.645,26.3-5.047-5.274,0.558-3.164h6.609L36.571,8.3H29.961l0.968-5.484H18.2L17.235,8.3h-6.82L8.233,20.673h6.328L5.741,34.806l-4.1,23.273L11.21,42.47,6.87,67.079H19.6L24.408,39.8l5.315,6.539,2.2-12.445h5.2L29.133,52.876,26.8,66.1H64.771ZM137.52,52.314l-4.29-3.586,4.8-7.664,3.62-20.531H118.374l0.831-4.711h24.75l2.157-12.234H109.761l-6.088,34.523L96.551,66.939h11.39l7.334-28.828,0.88-4.992h11.812l-1.116,6.328L125.1,42.189l-7.954-6.328-2.5,14.2,3.616,3.023-8.771,13.852h12.375l4.5-7.172,8.579,7.172ZM101.585,39.587l-0.676-10.125,3.881-13.641,2.158-12.234H83.042L71.9,66.8h11.25l1.314-7.453H98.1Zm-14.844,6.82L92.16,15.681h3.023L90.895,30.025l0.354,9.563-1.2,6.82h-3.3Z"/>
</svg>
