<svg xmlns="http://www.w3.org/2000/svg" width="150" height="70" viewBox="0 0 150 70">
  <metadata><?xpacket begin="﻿" id="W5M0MpCehiHzreSzNTczkc9d"?>
<x:xmpmeta xmlns:x="adobe:ns:meta/" x:xmptk="Adobe XMP Core 5.6-c138 79.159824, 2016/09/14-01:09:01        ">
   <rdf:RDF xmlns:rdf="http://www.w3.org/1999/02/22-rdf-syntax-ns#">
      <rdf:Description rdf:about=""/>
   </rdf:RDF>
</x:xmpmeta>
                                                                                                    
                                                                                                    
                                                                                                    
                                                                                                    
                                                                                                    
                                                                                                    
                                                                                                    
                                                                                                    
                                                                                                    
                                                                                                    
                                                                                                    
                                                                                                    
                                                                                                    
                                                                                                    
                                                                                                    
                                                                                                    
                                                                                                    
                                                                                                    
                                                                                                    
                                                                                                    
                           
<?xpacket end="w"?></metadata>
<defs>
    <style>
      .cls-1 {
        fill: #010101;
        fill-rule: evenodd;
      }
    </style>
  </defs>
  <path id="川崎_" data-name="川崎 " class="cls-1" d="M75.111,2.743H61.259L49.94,66.939H63.792Zm-22.078,0H38.759L27.589,66.1H41.862Zm-22.57,0H16.611l-6.137,34.8L1.13,67.009H14.7l9.625-29.461ZM136.588,16.454h5.344l1.935-10.969H131.843l1.667-2.672H121.486L119.82,5.486h-9.633l-1.935,10.969h4.922l-7,11.391h12.093l6.609-10.758,2.813,10.758h12.235Zm5.1,13.359H104.139l3.286-18.633h-7.312l-7.526,42.68H90.97l9-51.047H92.8l-9,51.047H82.181l7.526-42.68H82.464L72.781,66.1H97.742l4.377-24.82h25.453l-4.525,25.664h10.546l4.526-25.664h1.547Zm-16.162,13.5H103.516l-3.88,22.008h22.008Zm-14.9,12.727,0.6-3.375h3.234l-0.595,3.375h-3.235Z"/>
</svg>
