<svg xmlns="http://www.w3.org/2000/svg" width="150" height="70" viewBox="0 0 150 70">
  <metadata><?xpacket begin="﻿" id="W5M0MpCehiHzreSzNTczkc9d"?>
<x:xmpmeta xmlns:x="adobe:ns:meta/" x:xmptk="Adobe XMP Core 5.6-c138 79.159824, 2016/09/14-01:09:01        ">
   <rdf:RDF xmlns:rdf="http://www.w3.org/1999/02/22-rdf-syntax-ns#">
      <rdf:Description rdf:about=""/>
   </rdf:RDF>
</x:xmpmeta>
                                                                                                    
                                                                                                    
                                                                                                    
                                                                                                    
                                                                                                    
                                                                                                    
                                                                                                    
                                                                                                    
                                                                                                    
                                                                                                    
                                                                                                    
                                                                                                    
                                                                                                    
                                                                                                    
                                                                                                    
                                                                                                    
                                                                                                    
                                                                                                    
                                                                                                    
                                                                                                    
                           
<?xpacket end="w"?></metadata>
<defs>
    <style>
      .cls-1 {
        fill: #010101;
        fill-rule: evenodd;
      }
    </style>
  </defs>
  <path id="平塚_" data-name="平塚 " class="cls-1" d="M54.687,19.548L49.837,38.673H63.548l4.779-19.125H54.687Zm14.1,21.727H43.825L48.09,17.087H71.5L73.9,3.517H12.725l-2.393,13.57H33.746L29.481,41.275H4.52l-2.381,13.5H27.1L24.942,67.009H39.286l2.158-12.234H66.4ZM26.421,19.548H12.781L10.814,38.673H24.525ZM136.07,44.79l2.983-1.758L141.21,30.8,136.6,33.822l0.164-3.727H126.99L126.652,36l-5.941-7.383h18.563l1.736-9.844H102.2l-1.736,9.844h5.7l-7.925,3.867L96.484,42.4l14.757-7.523,1.146,1.477L96.062,44.79,94.29,54.845l20.161-10.266-0.384,2.18L93.881,57.165l-1.76,9.984,20.149-10.2-1.76,9.984h11.039l4.96-28.125-1.523,26.578H135.11Zm9.938-41.2H102.485l-2.059,11.672h-4.5l2.2-12.445H86.379l-2.2,12.445H79.895L77.75,27.423H82.04l-4.4,24.961-4.413.7-2.17,12.3,20.3-2.672L93.6,49.994l-3.9.563,4.079-23.133h4.5L100.1,17.087h13.43l0.632-3.586H130.9l-0.632,3.586h13.36Z"/>
</svg>
