<svg xmlns="http://www.w3.org/2000/svg" width="150" height="70" viewBox="0 0 150 70">
  <metadata><?xpacket begin="﻿" id="W5M0MpCehiHzreSzNTczkc9d"?>
<x:xmpmeta xmlns:x="adobe:ns:meta/" x:xmptk="Adobe XMP Core 5.6-c138 79.159824, 2016/09/14-01:09:01        ">
   <rdf:RDF xmlns:rdf="http://www.w3.org/1999/02/22-rdf-syntax-ns#">
      <rdf:Description rdf:about=""/>
   </rdf:RDF>
</x:xmpmeta>
                                                                                                    
                                                                                                    
                                                                                                    
                                                                                                    
                                                                                                    
                                                                                                    
                                                                                                    
                                                                                                    
                                                                                                    
                                                                                                    
                                                                                                    
                                                                                                    
                                                                                                    
                                                                                                    
                                                                                                    
                                                                                                    
                                                                                                    
                                                                                                    
                                                                                                    
                                                                                                    
                           
<?xpacket end="w"?></metadata>
<defs>
    <style>
      .cls-1 {
        fill: #010101;
        fill-rule: evenodd;
      }
    </style>
  </defs>
  <path id="伊東_" data-name="伊東 " class="cls-1" d="M71.193,23.837H69.576l3.572-20.25H31.1L29.029,15.329H38.24l-1.5,8.508H26.193L24.073,35.861H34.62l-1.426,8.086H23.983L21.912,55.689h6.68L21.943,67.079H36.709l6.508-11.391H63.959l3.5-19.828h1.617ZM15.3,2.673L3.679,41.064H7.547L2.947,67.15H16.658l5.6-31.781H19.52L29.5,2.673H15.3ZM51.365,23.837l1.5-8.508h5.414l-1.5,8.508H51.365ZM47.819,43.947l1.426-8.086h5.414l-1.426,8.086H47.819ZM136.5,54.353L121.5,50.064h14.2l5.506-31.219h-23.2l0.458-2.6h24.75L145.2,4.993H120.45l0.384-2.18h-14.7l-0.384,2.18H81L79.02,16.244h24.75l-0.458,2.6h-23.2L74.6,50.064H88.877L72.3,54.353,70.069,67.009l26.474-9.773-1.724,9.773h14.7l1.736-9.844,23.014,9.844ZM115.962,30.447l0.533-3.023h9.562l-0.533,3.023h-9.562Zm-1.923,10.9,0.521-2.953h9.563L123.6,41.345h-9.563ZM91.7,30.447l0.533-3.023H101.8l-0.532,3.023H91.7Zm-1.923,10.9L90.3,38.392h9.563l-0.521,2.953H89.782Z"/>
</svg>
