<svg xmlns="http://www.w3.org/2000/svg" width="220" height="70" viewBox="0 0 220 70">
  <metadata><?xpacket begin="﻿" id="W5M0MpCehiHzreSzNTczkc9d"?>
<x:xmpmeta xmlns:x="adobe:ns:meta/" x:xmptk="Adobe XMP Core 5.6-c138 79.159824, 2016/09/14-01:09:01        ">
   <rdf:RDF xmlns:rdf="http://www.w3.org/1999/02/22-rdf-syntax-ns#">
      <rdf:Description rdf:about=""/>
   </rdf:RDF>
</x:xmpmeta>
                                                                                                    
                                                                                                    
                                                                                                    
                                                                                                    
                                                                                                    
                                                                                                    
                                                                                                    
                                                                                                    
                                                                                                    
                                                                                                    
                                                                                                    
                                                                                                    
                                                                                                    
                                                                                                    
                                                                                                    
                                                                                                    
                                                                                                    
                                                                                                    
                                                                                                    
                                                                                                    
                           
<?xpacket end="w"?></metadata>
<defs>
    <style>
      .cls-1 {
        fill: #010101;
        fill-rule: evenodd;
      }
    </style>
  </defs>
  <path id="西武園_" data-name="西武園 " class="cls-1" d="M77.55,3.587H13.5L11.437,15.259H30.351L29.52,19.97H12.153L4.02,66.1H64.981L73.114,19.97h-17.3l0.831-4.711H75.492ZM40.981,19.97l0.831-4.711h3.727L44.708,19.97H40.981ZM52.544,38.533l1.215-6.891h3.867l-1.215,6.891H52.544ZM19.5,54.494l4.03-22.852h3.8L21.356,52.314H32.466l6.106-20.672h3.656l-3.3,18.7h15.4L53.6,54.494H19.5ZM146.21,2.814h-8.648l0.087,11.461H146.3Zm-25.73.773h-34.8L83.79,14.275h34.8Zm13.206,25.594h9.984l2.243-12.727H134.241l2.406-13.641h-13.71L120.53,16.454H81.859L79.615,29.181H97.193L93.114,52.314l-3.483.211,3.657-20.742H80.7L76.921,53.228l-1.559.07L73.118,66.025l43.259-1.687,2.368-13.43-12.147.7,0.905-5.133h8.578l2.145-12.164h-8.579l0.906-5.133h9.281l2.905,37.758,14.3-.141ZM216.5,3.587H155.541L144.506,66.165h60.961ZM193.347,55.548l1.215-6.891-1.249-.492,3.6-4.078-2.02,11.461h-1.547ZM195,43.384L197.094,31.5H165.1l-2.095,11.883h7.312L161.841,47.6l-1.4,7.945h-1.547l7.265-41.2h11.812l-0.235,1.336h-9.422L167.236,21.8h9.421l-0.335,1.9H166.057L165,29.673h32.906l1.054-5.977H188.7l0.335-1.9h9.352l1.079-6.117h-9.352l0.235-1.336h11.813l-5.121,29.039H195Zm-6.307,2.672-3.64-1.687,0.174-.984h6.047Zm-14.448-7.383,0.447-2.531h11.18l-0.448,2.531H174.244Zm8.837,16.875,0.7-3.937,7.883,3.938h-8.578Zm-21.164,0,9.88-6.187-1.091,6.188h-8.789Z"/>
</svg>
