<svg xmlns="http://www.w3.org/2000/svg" width="150" height="70" viewBox="0 0 150 70">
  <metadata><?xpacket begin="﻿" id="W5M0MpCehiHzreSzNTczkc9d"?>
<x:xmpmeta xmlns:x="adobe:ns:meta/" x:xmptk="Adobe XMP Core 5.6-c138 79.159824, 2016/09/14-01:09:01        ">
   <rdf:RDF xmlns:rdf="http://www.w3.org/1999/02/22-rdf-syntax-ns#">
      <rdf:Description rdf:about=""/>
   </rdf:RDF>
</x:xmpmeta>
                                                                                                    
                                                                                                    
                                                                                                    
                                                                                                    
                                                                                                    
                                                                                                    
                                                                                                    
                                                                                                    
                                                                                                    
                                                                                                    
                                                                                                    
                                                                                                    
                                                                                                    
                                                                                                    
                                                                                                    
                                                                                                    
                                                                                                    
                                                                                                    
                                                                                                    
                                                                                                    
                           
<?xpacket end="w"?></metadata>
<defs>
    <style>
      .cls-1 {
        fill: #010101;
        fill-rule: evenodd;
      }
    </style>
  </defs>
  <path id="武雄_" data-name="武雄 " class="cls-1" d="M74.345,2.814H65.7l0.088,11.461h8.648Zm-25.73.773H13.81L11.925,14.275h34.8ZM61.82,29.181H71.8l2.243-12.727H62.376L64.782,2.814H51.071L48.665,16.454H9.993L7.75,29.181H25.328L21.249,52.314l-3.483.211,3.657-20.742H8.837L5.056,53.228,3.5,53.3,1.253,66.025l43.259-1.687,2.369-13.43-12.147.7,0.905-5.133h8.578L46.36,34.314H37.782l0.905-5.133h9.281l2.9,37.758,14.3-.141Zm74.165,26.437h-4.43l0.929-5.273h3.446L137.79,39.8h-3.446l0.88-4.992h3.446l1.872-10.617H137.1l0.955-5.414h4.43L144.328,8.3H140.46l1.953-5.484h-10.2L130.2,8.3h-6.4l2.3-5.484H114.78L104.4,28.97h5.485L103.34,66.1h30.8ZM105.118,34.876h-9L93.151,54.494H87.034L97.813,25.665H92.75l2.469-6.82H107.1l2.057-11.672H99.6l1.613-4.359H89.749L88.066,7.173H80.472L78.414,18.845h5.273L73.678,45.7H79.8l-3.378,8.789L74.359,66.165H100.8ZM121.7,24.189l0.955-5.414h4.57l-0.955,5.414H121.7ZM118.946,39.8l0.88-4.992h4.57l-0.88,4.992h-4.57Zm-2.79,15.82,0.93-5.273h4.57l-0.929,5.273h-4.571Z"/>
</svg>
