<svg xmlns="http://www.w3.org/2000/svg" width="150" height="70" viewBox="0 0 150 70">
  <metadata><?xpacket begin="﻿" id="W5M0MpCehiHzreSzNTczkc9d"?>
<x:xmpmeta xmlns:x="adobe:ns:meta/" x:xmptk="Adobe XMP Core 5.6-c138 79.159824, 2016/09/14-01:09:01        ">
   <rdf:RDF xmlns:rdf="http://www.w3.org/1999/02/22-rdf-syntax-ns#">
      <rdf:Description rdf:about=""/>
   </rdf:RDF>
</x:xmpmeta>
                                                                                                    
                                                                                                    
                                                                                                    
                                                                                                    
                                                                                                    
                                                                                                    
                                                                                                    
                                                                                                    
                                                                                                    
                                                                                                    
                                                                                                    
                                                                                                    
                                                                                                    
                                                                                                    
                                                                                                    
                                                                                                    
                                                                                                    
                                                                                                    
                                                                                                    
                                                                                                    
                           
<?xpacket end="w"?></metadata>
<defs>
    <style>
      .cls-1 {
        fill: #010101;
        fill-rule: evenodd;
      }
    </style>
  </defs>
  <path id="取手" class="cls-1" d="M68.209,49.5l-5.113-5.7,5.77-5.2L74.916,4.29H49.041l-2.48,14.062H59.921l-2.592,14.7-2.163,1.9-9.7-10.758L42.5,40.994l2.457,2.813-4.738,4.148L36.794,67.361,52.741,53.087,65.048,67.431ZM47.072,4.29H12.127l-2.1,11.883h1.547L5.131,52.736l-1.571.141L1.266,65.884l21.068-2.25-0.669,3.8H34.392L43.43,16.173h1.547ZM23.581,20.673l0.794-4.5H30.7l-0.794,4.5H23.581Zm-2.74,15.539,0.694-3.937h6.328l-0.694,3.938H20.841ZM18.151,51.47l0.657-3.727h6.328l-0.545,3.094ZM139.6,37.619H114.573l0.768-4.359h23.485L140.971,21.1H117.487l0.941-5.344,21.582-.774,2.158-12.234-57.413,2.6-2.1,11.883,21.371-.773L103.213,21.1H79.8L77.654,33.259h23.414L100.3,37.619H75.339L73.205,49.712H98.166l-0.744,4.219H85.188L82.9,66.939H109.4l3.037-17.227h25.031Z"/>
</svg>
