<svg xmlns="http://www.w3.org/2000/svg" width="150" height="70" viewBox="0 0 150 70">
  <metadata><?xpacket begin="﻿" id="W5M0MpCehiHzreSzNTczkc9d"?>
<x:xmpmeta xmlns:x="adobe:ns:meta/" x:xmptk="Adobe XMP Core 5.6-c138 79.159824, 2016/09/14-01:09:01        ">
   <rdf:RDF xmlns:rdf="http://www.w3.org/1999/02/22-rdf-syntax-ns#">
      <rdf:Description rdf:about=""/>
   </rdf:RDF>
</x:xmpmeta>
                                                                                                    
                                                                                                    
                                                                                                    
                                                                                                    
                                                                                                    
                                                                                                    
                                                                                                    
                                                                                                    
                                                                                                    
                                                                                                    
                                                                                                    
                                                                                                    
                                                                                                    
                                                                                                    
                                                                                                    
                                                                                                    
                                                                                                    
                                                                                                    
                                                                                                    
                                                                                                    
                           
<?xpacket end="w"?></metadata>
<defs>
    <style>
      .cls-1 {
        fill: #010101;
        fill-rule: evenodd;
      }
    </style>
  </defs>
  <path id="高知_" data-name="高知 " class="cls-1" d="M75.914,4.853H50.742l0.385-2.18H37.275l-0.385,2.18H11.719L9.872,15.329h64.2Zm-6.88,12.3H14.261L11.223,34.384H66Zm0.54,19.266H6.925L1.508,67.15h13.43l3.843-21.8H54.5l-3.843,21.8h13.5Zm-18.2,11.109H21.138L18.1,64.759H48.335ZM26.223,27.072l0.459-2.6H54.034l-0.459,2.6H26.223Zm5.187,30.8,0.645-3.656h6.188L37.6,57.869H31.41ZM144.671,4.712H116.476L105.652,66.1h28.2Zm-40.25,37.266H99.007l1.707-3.3H108.8l2.282-12.937H106.16l1.537-8.719h4.359l2.121-12.023H96.739l0.806-2.18H85.1l-6.889,20.32H90.095l2.2-6.117h2.039L92.8,25.736H79.582L77.3,38.673h9.844L71.919,66.8H86.052l6.053-11.6,0.4,9.7H105.16Zm15.992,11.391,6.334-35.93h3.094l-6.335,35.93h-3.093Z"/>
</svg>
