<svg xmlns="http://www.w3.org/2000/svg" width="220" height="70" viewBox="0 0 220 70">
  <metadata><?xpacket begin="﻿" id="W5M0MpCehiHzreSzNTczkc9d"?>
<x:xmpmeta xmlns:x="adobe:ns:meta/" x:xmptk="Adobe XMP Core 5.6-c138 79.159824, 2016/09/14-01:09:01        ">
   <rdf:RDF xmlns:rdf="http://www.w3.org/1999/02/22-rdf-syntax-ns#">
      <rdf:Description rdf:about=""/>
   </rdf:RDF>
</x:xmpmeta>
                                                                                                    
                                                                                                    
                                                                                                    
                                                                                                    
                                                                                                    
                                                                                                    
                                                                                                    
                                                                                                    
                                                                                                    
                                                                                                    
                                                                                                    
                                                                                                    
                                                                                                    
                                                                                                    
                                                                                                    
                                                                                                    
                                                                                                    
                                                                                                    
                                                                                                    
                                                                                                    
                           
<?xpacket end="w"?></metadata>
<defs>
    <style>
      .cls-1 {
        fill: #010101;
        fill-rule: evenodd;
      }
    </style>
  </defs>
  <path id="小田原_" data-name="小田原 " class="cls-1" d="M72.977,11.673H58.141l-5.06,47.039H68.128ZM54.922,2.814H39.313L30.733,51.47H23.28L20.553,66.939H43.615ZM16.587,11.673L3.792,58.712h15.4L31.634,11.673H16.587ZM144.713,5.134H85.088L74.451,65.462h59.625ZM117.224,29.04l1.959-11.109H129.1L127.138,29.04h-9.914Zm-22.922,0,1.959-11.109h9.844L104.146,29.04H94.3Zm18.744,23.7,2-11.32h9.914l-2,11.32h-9.914Zm-22.922,0,2-11.32h9.843l-2,11.32H90.124Zm117.518-1.828H194.493l-1.024,16.172h13.36Zm10.383-47.32H156.361l-5.778,32.766-7.652,29.039H155.8l8.145-29.039L167.761,14.7h16.594l-1,2.461h-13.5l-5.494,31.149h14.063l-3.31,18.773h14.2l3.31-18.773h15.961l5.493-31.148H197.491l0.927-2.461h17.648Zm-55.1,47.32-5.032,16.172h13.36l4.68-16.172H162.923Zm18.327-21.8,0.484-2.742h17.3l-0.484,2.742h-17.3Zm-1.785,10.125,0.471-2.672h17.3l-0.471,2.672h-17.3Z"/>
</svg>
