<svg xmlns="http://www.w3.org/2000/svg" width="220" height="70" viewBox="0 0 220 70">
  <metadata><?xpacket begin="﻿" id="W5M0MpCehiHzreSzNTczkc9d"?>
<x:xmpmeta xmlns:x="adobe:ns:meta/" x:xmptk="Adobe XMP Core 5.6-c138 79.159824, 2016/09/14-01:09:01        ">
   <rdf:RDF xmlns:rdf="http://www.w3.org/1999/02/22-rdf-syntax-ns#">
      <rdf:Description rdf:about=""/>
   </rdf:RDF>
</x:xmpmeta>
                                                                                                    
                                                                                                    
                                                                                                    
                                                                                                    
                                                                                                    
                                                                                                    
                                                                                                    
                                                                                                    
                                                                                                    
                                                                                                    
                                                                                                    
                                                                                                    
                                                                                                    
                                                                                                    
                                                                                                    
                                                                                                    
                                                                                                    
                                                                                                    
                                                                                                    
                                                                                                    
                           
<?xpacket end="w"?></metadata>
<defs>
    <style>
      .cls-1 {
        fill: #010101;
        fill-rule: evenodd;
      }
    </style>
  </defs>
  <path id="岸和田_" data-name="岸和田      " class="cls-1" d="M76.652,4.642H62.8l-0.793,4.5H52.3l1.116-6.328H39.569L38.453,9.142h-9.7l0.793-4.5H15.691L13.15,19.056H74.111ZM70.338,49.22H52.971l0.658-3.727H69.45l1.959-11.109H25.635L23.676,45.494H39.707L39.049,49.22H21.542L19.6,60.259H37.1l-1.178,6.68H49.848l1.178-6.68H68.393Zm4.985-28.266H12.885L9.029,42.822,3.184,66.8H15.63l6.2-23.977L23.7,32.2H73.34ZM147.167,4.431H118.339L107.466,66.1h28.828Zm-37.893,38.25-7.3-8.016,0.3-1.687h8.719l2.207-12.516h-8.719l0.955-5.414,8.479-.633,2.046-11.6-31.467,2.6-2.02,11.461,9.417-.774-0.769,4.359H81.833L79.626,32.978h9L77.568,44.65l-3.46,19.617,11.662-13.5L82.919,66.939H96.279l3.05-17.3,7.131,9Zm13.2,10.9,6.472-36.7h3.305l-6.472,36.7H122.47ZM215.8,5.134H156.174L145.537,65.462h59.625ZM188.31,29.04l1.959-11.109h9.914L198.224,29.04H188.31Zm-22.922,0,1.959-11.109h9.843L175.232,29.04h-9.844Zm18.744,23.7,2-11.32h9.914l-2,11.32h-9.914Zm-22.922,0,2-11.32h9.844l-2,11.32H161.21Z"/>
</svg>
