<svg xmlns="http://www.w3.org/2000/svg" width="220" height="70" viewBox="0 0 220 70">
  <metadata><?xpacket begin="﻿" id="W5M0MpCehiHzreSzNTczkc9d"?>
<x:xmpmeta xmlns:x="adobe:ns:meta/" x:xmptk="Adobe XMP Core 5.6-c138 79.159824, 2016/09/14-01:09:01        ">
   <rdf:RDF xmlns:rdf="http://www.w3.org/1999/02/22-rdf-syntax-ns#">
      <rdf:Description rdf:about=""/>
   </rdf:RDF>
</x:xmpmeta>
                                                                                                    
                                                                                                    
                                                                                                    
                                                                                                    
                                                                                                    
                                                                                                    
                                                                                                    
                                                                                                    
                                                                                                    
                                                                                                    
                                                                                                    
                                                                                                    
                                                                                                    
                                                                                                    
                                                                                                    
                                                                                                    
                                                                                                    
                                                                                                    
                                                                                                    
                                                                                                    
                           
<?xpacket end="w"?></metadata>
<defs>
    <style>
      .cls-1 {
        fill: #010101;
        fill-rule: evenodd;
      }
    </style>
  </defs>
  <path id="いわき平" class="cls-1" d="M30.606,50.908H16.621L22.926,5.064H11.464L3.04,66.306H28.488ZM58.536,7.736H39.505L37.378,23.2h7.514l-4.342,31.57H52.066Zm53.061,0H81.707l0.677-4.922H70.812l-1.335,9.7H62.512L60.424,27.7h6.965L65.358,42.47H58.393L56.3,57.658h6.965l-1.189,8.648H73.651l5.976-43.453h18.1l-3.975,28.9H81.686L79.694,66.236h23.857ZM159.931,52.1H124.393l1.14-8.3H113.687l-3.095,22.5h47.385Zm3.433-26.156H153l0.522-3.8h10.365l1.925-13.992H155.445l0.736-5.344h-11.9l-0.735,5.344H117.219L115.294,22.15h26.325l-0.521,3.8H114.773l-1.9,13.781H139.2l-1.054,7.664h11.9l1.054-7.664h10.366Zm41.088-6.4-3.783,19.125h10.695l3.727-19.125H204.452Zm11,21.727h-19.47l3.327-24.188h18.263l1.866-13.57H171.721l-1.866,13.57h18.263l-3.327,24.188h-19.47l-1.857,13.5h19.47l-1.683,12.234h11.188l1.683-12.234h19.47ZM182.4,19.548H171.765l-1.534,19.125h10.694Z"/>
</svg>
