<svg xmlns="http://www.w3.org/2000/svg" width="150" height="70" viewBox="0 0 150 70">
  <metadata><?xpacket begin="﻿" id="W5M0MpCehiHzreSzNTczkc9d"?>
<x:xmpmeta xmlns:x="adobe:ns:meta/" x:xmptk="Adobe XMP Core 5.6-c138 79.159824, 2016/09/14-01:09:01        ">
   <rdf:RDF xmlns:rdf="http://www.w3.org/1999/02/22-rdf-syntax-ns#">
      <rdf:Description rdf:about=""/>
   </rdf:RDF>
</x:xmpmeta>
                                                                                                    
                                                                                                    
                                                                                                    
                                                                                                    
                                                                                                    
                                                                                                    
                                                                                                    
                                                                                                    
                                                                                                    
                                                                                                    
                                                                                                    
                                                                                                    
                                                                                                    
                                                                                                    
                                                                                                    
                                                                                                    
                                                                                                    
                                                                                                    
                                                                                                    
                                                                                                    
                           
<?xpacket end="w"?></metadata>
<defs>
    <style>
      .cls-1 {
        fill: #010101;
        fill-rule: evenodd;
      }
    </style>
  </defs>
  <path id="大垣_" data-name="大垣 " class="cls-1" d="M52.961,33.259H41.57l2.841-4.148H71.9l2.641-14.977H50.216L52.225,2.743H36.475L34.466,14.134H10.49L7.849,29.111H27.818L1.166,67.009H18.392L38.635,37.548l9.992,29.461H65.221ZM146.982,3.587H105.357l-2,11.32h41.625Zm-3.866,13.148H104.584L98.15,53.228h38.531Zm-5.21,38.32H96.281L94.346,66.025h41.625Zm-35.381-39.8h-4.5l2.2-12.445h-12.8l-2.2,12.445H80.868L78.724,27.423h4.359l-4.29,24.328-4.582,1.266L72.029,65.392l22.21-5.133,2.293-13.008L92.2,48.306,95.88,27.423h4.5ZM115.39,30.025l0.62-3.516h12.235l-0.621,3.516H115.39Zm-2.344,13.289,0.608-3.445h12.234l-0.607,3.445H113.046Z"/>
</svg>
