<svg xmlns="http://www.w3.org/2000/svg" width="220" height="70" viewBox="0 0 220 70">
  <metadata><?xpacket begin="﻿" id="W5M0MpCehiHzreSzNTczkc9d"?>
<x:xmpmeta xmlns:x="adobe:ns:meta/" x:xmptk="Adobe XMP Core 5.6-c138 79.159824, 2016/09/14-01:09:01        ">
   <rdf:RDF xmlns:rdf="http://www.w3.org/1999/02/22-rdf-syntax-ns#">
      <rdf:Description rdf:about=""/>
   </rdf:RDF>
</x:xmpmeta>
                                                                                                    
                                                                                                    
                                                                                                    
                                                                                                    
                                                                                                    
                                                                                                    
                                                                                                    
                                                                                                    
                                                                                                    
                                                                                                    
                                                                                                    
                                                                                                    
                                                                                                    
                                                                                                    
                                                                                                    
                                                                                                    
                                                                                                    
                                                                                                    
                                                                                                    
                                                                                                    
                           
<?xpacket end="w"?></metadata>
<defs>
    <style>
      .cls-1 {
        fill: #010101;
        fill-rule: evenodd;
      }
    </style>
  </defs>
  <path id="名古屋_" data-name="名古屋 " class="cls-1" d="M70.218,32.556H43.781L69.46,21.306,72.585,3.587H28.147L12.258,11.954,9.741,26.228l5.984-3.234,3.88,7.1L7.264,35.087,4.7,49.642,12.477,46.2,8.968,66.1H64.3ZM34.887,23.978l-3.123-5.414H23.818l5.455-3.024H55.922ZM24.952,54L26.6,44.65H54.234L52.585,54H24.952ZM145.51,8.79H120.62L121.712,2.6H107.3L106.206,8.79H81.245L78.976,21.658h24.961L102.325,30.8H79.9L73.66,66.165h59.2L139.1,30.8h-22.36l1.612-9.141h24.891ZM89.569,53.3l1.7-9.633h31.922l-1.7,9.633H89.569ZM216.655,3.587H156.116l-5.158,29.25-9.19,34.172h12.164l9.112-33.328,1.885-10.687h48.3ZM207.77,57.165H189.418l0.347-1.969h16.946l1.538-8.719H191.3l0.384-2.18h16.734l-1.027-11.32h3.234l1.489-8.438h-45.7l-1.489,8.438h3.516l-3.4,2.953L163.562,44.3h15.89l-0.383,2.18H161.28L159.742,55.2h17.789l-0.347,1.969H158.2l-1.586,9h49.57Zm-41.342-42.68L166.85,12.1h35.438l-0.422,2.391H166.428Zm10.351,21.445,3.4-2.953h16.172l0.253,2.953H176.779Z"/>
</svg>
