<svg xmlns="http://www.w3.org/2000/svg" width="220" height="70" viewBox="0 0 220 70">
  <metadata><?xpacket begin="﻿" id="W5M0MpCehiHzreSzNTczkc9d"?>
<x:xmpmeta xmlns:x="adobe:ns:meta/" x:xmptk="Adobe XMP Core 5.6-c138 79.159824, 2016/09/14-01:09:01        ">
   <rdf:RDF xmlns:rdf="http://www.w3.org/1999/02/22-rdf-syntax-ns#">
      <rdf:Description rdf:about=""/>
   </rdf:RDF>
</x:xmpmeta>
                                                                                                    
                                                                                                    
                                                                                                    
                                                                                                    
                                                                                                    
                                                                                                    
                                                                                                    
                                                                                                    
                                                                                                    
                                                                                                    
                                                                                                    
                                                                                                    
                                                                                                    
                                                                                                    
                                                                                                    
                                                                                                    
                                                                                                    
                                                                                                    
                                                                                                    
                                                                                                    
                           
<?xpacket end="w"?></metadata>
<defs>
    <style>
      .cls-1 {
        fill: #010101;
        fill-rule: evenodd;
      }
    </style>
  </defs>
  <path id="小松島_" data-name="小松島 " class="cls-1" d="M72.977,11.673H58.141l-5.06,47.039H68.128ZM54.922,2.814H39.313L30.733,51.47H23.28L20.553,66.939H43.615ZM16.587,11.673L3.792,58.712h15.4L31.634,11.673H16.587ZM143.734,2.814H129.952l-0.7,31.078h13.781ZM138.448,37.97H125.722l-0.941,14.906h-9.773l10.551-25.945h-6.68l7.98-24.117H113.007l-8.645,26.3-5.047-5.274,0.558-3.164h6.609L108.664,8.3h-6.609l0.968-5.484H90.3L89.328,8.3h-6.82L80.326,20.673h6.328l-8.82,14.133-4.1,23.273L83.3,42.47l-4.34,24.609H91.69L96.5,39.8l5.315,6.539,2.195-12.445h5.2l-7.989,18.984L98.9,66.1h37.969Zm73.546,2.742H164.111l0.335-1.9h47.039l1.326-7.524H165.772l0.3-1.687h45.492l4.4-24.961H188.12l1.026-1.828H175.154l-1.1,1.828H156.9l-7.823,44.367h13.007l-1.351,7.664h-2.672l0.98-5.555h-12.8l-2.529,14.344h44.578l2.529-14.344H177.956l-0.98,5.555H174.3l1.352-7.664h21.3l-0.868,4.922h-3.8L190,66.939H207.37ZM168.909,13.5l0.31-1.758h31.922l-0.31,1.758H168.909Zm-1.562,8.859,0.3-1.687h31.922l-0.3,1.688H167.347Z"/>
</svg>
