<svg xmlns="http://www.w3.org/2000/svg" width="220" height="70" viewBox="0 0 220 70">
  <metadata><?xpacket begin="﻿" id="W5M0MpCehiHzreSzNTczkc9d"?>
<x:xmpmeta xmlns:x="adobe:ns:meta/" x:xmptk="Adobe XMP Core 5.6-c138 79.159824, 2016/09/14-01:09:01        ">
   <rdf:RDF xmlns:rdf="http://www.w3.org/1999/02/22-rdf-syntax-ns#">
      <rdf:Description rdf:about=""/>
   </rdf:RDF>
</x:xmpmeta>
                                                                                                    
                                                                                                    
                                                                                                    
                                                                                                    
                                                                                                    
                                                                                                    
                                                                                                    
                                                                                                    
                                                                                                    
                                                                                                    
                                                                                                    
                                                                                                    
                                                                                                    
                                                                                                    
                                                                                                    
                                                                                                    
                                                                                                    
                                                                                                    
                                                                                                    
                                                                                                    
                           
<?xpacket end="w"?></metadata>
<defs>
    <style>
      .cls-1 {
        fill: #010101;
        fill-rule: evenodd;
      }
    </style>
  </defs>
  <path id="宇都宮" class="cls-1" d="M70.8,38.251H46.048L46.779,34.1H66.537l1.736-9.844h4.992L76.5,5.908H51.4l0.546-3.094H38.094L37.548,5.908h-25.1L9.21,24.259h5.133L12.608,34.1H32.225l-0.732,4.148H6.743L4.66,50.064H29.41l-0.744,4.219H19.244L17.013,66.939H40.99l2.975-16.875h24.75ZM22.507,22.22L23.375,17.3H61.7L60.828,22.22H22.507ZM139.123,38.884L138.071,28.9l5.206-13.57,2.1-11.883H119.286l-11.2,63.492h11.39l9.1-51.609h3.727L127.735,28.9l0.419,9.984-1.971,11.18H124l-2.554,14.484H134.6Zm-24.6-18H111.57l3.412-2.6,2.182-12.375L109,11.954l1.165-6.609h-9.844l0.447-2.531H89.023L88.576,5.345h-4.43l-1.971,11.18H86.6l-0.769,4.359h-6.82l-1.983,11.25h5.133l-5.9,4.359L73.969,49.5l3.507-2.742L74.067,66.1H105.5l5.629-31.922H94.111l2.609-2.039h15.82Zm-16.882-.352,0.706-4.008h4.711Zm-8.364,25.1,0.434-2.461h8.156l-0.434,2.461H89.277ZM87.268,57.025L87.7,54.564h8.156l-0.434,2.461H87.268ZM215.643,5.134h-25.1l0.41-2.32H177.1l-0.41,2.32h-25.1l-2.8,15.891h3.868l-3.634,20.6h18.633l-1.017,2.18H146.315L142.386,66.1h60.961l3.929-22.289H181.331l0.947-2.18h23.063l3.633-20.6h3.867ZM162.679,19.2l0.5-2.812H200.16l-0.5,2.813H162.679Zm0.651,12.656,0.5-2.812h31.148l-0.5,2.813H163.33ZM156.6,56.462l0.521-2.953h36L192.6,56.462h-36Z"/>
</svg>
