<svg xmlns="http://www.w3.org/2000/svg" width="150" height="70" viewBox="0 0 150 70">
  <metadata><?xpacket begin="﻿" id="W5M0MpCehiHzreSzNTczkc9d"?>
<x:xmpmeta xmlns:x="adobe:ns:meta/" x:xmptk="Adobe XMP Core 5.6-c138 79.159824, 2016/09/14-01:09:01        ">
   <rdf:RDF xmlns:rdf="http://www.w3.org/1999/02/22-rdf-syntax-ns#">
      <rdf:Description rdf:about=""/>
   </rdf:RDF>
</x:xmpmeta>
                                                                                                    
                                                                                                    
                                                                                                    
                                                                                                    
                                                                                                    
                                                                                                    
                                                                                                    
                                                                                                    
                                                                                                    
                                                                                                    
                                                                                                    
                                                                                                    
                                                                                                    
                                                                                                    
                                                                                                    
                                                                                                    
                                                                                                    
                                                                                                    
                                                                                                    
                                                                                                    
                           
<?xpacket end="w"?></metadata>
<defs>
    <style>
      .cls-1 {
        fill: #010101;
        fill-rule: evenodd;
      }
    </style>
  </defs>
  <path id="静岡_" data-name="静岡      " class="cls-1" d="M70.886,31.079H69.41l2.318-13.148h-4.5l2.618-4.078L71.656,3.587H48.242L39.1,19.97h1.547l-1.513,8.578h6.258l-0.446,2.531h-8.3L37.8,24.54H29.43l0.3-1.687h6.75l1.4-7.945h-6.75l0.285-1.617h8.367L41.207,5.2H32.839l0.422-2.391H20.746L20.324,5.2h-8.93L9.968,13.29H18.9l-0.285,1.617H11.23l-1.4,7.945h7.383l-0.3,1.688H7.985L6.6,32.415H36.409L34.8,41.556h8.3l-0.5,2.813H36.34L34.468,54.986h6.258l-0.4,2.25H36.813l-1.711,9.7H49.8l2.107-11.953H65.194l2.369-13.43h1.477Zm-35.8,3.234H7.6L1.845,66.939H13.306L14.3,61.314h4.57l-0.991,5.625H29.337ZM57.032,17.931H49.861l2.548-4.078h7.031ZM56.121,31.079l0.446-2.531h4.359L60.48,31.079H56.121ZM53.777,44.369l0.5-2.812h4.359l-0.5,2.813H53.777Zm-36.516.141,0.47-2.672H22.3l-0.47,2.672h-4.57Zm-1.712,9.7,0.459-2.6h4.57l-0.459,2.6h-4.57ZM144.322,3.587H83.15L71.941,67.15H84.176L93.35,15.119h36.774L120.949,67.15h12.164Zm-20.539,35.93H114.29l-2.591,14.7h-1.688l2.976-16.875h11.18L126.1,26.369h-2.883l2.9-9.281H114.941l-2.833,9.281h-4.57l0.372-9.281H96.73l-0.3,9.281H93.405L91.472,37.337h11.461L99.957,54.212H98.2l2.591-14.7h-9.7L86.673,64.548h32.7Z"/>
</svg>
