<svg xmlns="http://www.w3.org/2000/svg" width="150" height="70" viewBox="0 0 150 70">
  <metadata><?xpacket begin="﻿" id="W5M0MpCehiHzreSzNTczkc9d"?>
<x:xmpmeta xmlns:x="adobe:ns:meta/" x:xmptk="Adobe XMP Core 5.6-c138 79.159824, 2016/09/14-01:09:01        ">
   <rdf:RDF xmlns:rdf="http://www.w3.org/1999/02/22-rdf-syntax-ns#">
      <rdf:Description rdf:about=""/>
   </rdf:RDF>
</x:xmpmeta>
                                                                                                    
                                                                                                    
                                                                                                    
                                                                                                    
                                                                                                    
                                                                                                    
                                                                                                    
                                                                                                    
                                                                                                    
                                                                                                    
                                                                                                    
                                                                                                    
                                                                                                    
                                                                                                    
                                                                                                    
                                                                                                    
                                                                                                    
                                                                                                    
                                                                                                    
                                                                                                    
                           
<?xpacket end="w"?></metadata>
<defs>
    <style>
      .cls-1 {
        fill: #010101;
        fill-rule: evenodd;
      }
    </style>
  </defs>
  <path id="熊本_" data-name="熊本 " class="cls-1" d="M74.154,16.314H60.021l0.322-1.828,14.517-2.18,1.674-9.492L62.005,5.064l0.4-2.25H49.113L44.872,26.861H72.294ZM69.7,41.556H55.571l0.322-1.828,14.492-2.039,1.686-9.562-14.529,2.25,0.4-2.25H44.649L40.41,52.173H67.831ZM45.023,4.079H33.07L32.938,9.212H24.711l4.644-6.4H15.925l-4.574,6.4L9.48,19.829H44.706ZM65.706,53.861H52.7L50.392,66.939H63.4ZM43.014,21.447H10.741L5.373,51.892H18.662l0.719-4.078h5.625l-0.719,4.078H37.646Zm6.66,32.414H36.737L34.431,66.939H47.368Zm-16.031,0h-12.8L18.54,66.939h12.8Zm-28.336,0L1.173,66.939H14.321l4.064-13.078H5.307ZM22.294,31.29L22.8,28.408h5.625L27.919,31.29H22.294Zm-1.7,9.633L21.1,38.04h5.625l-0.509,2.883H20.6ZM140,40.29L127.545,23.2h15.469l2.306-13.078H120.57l1.3-7.383h-14.7l-1.3,7.383H81.124L78.818,23.2H94.287L75.806,40.29,72.595,58.5l29.623-27.633-2.765,15.68H87.569L85.263,59.626H97.146l-1.3,7.383h14.7l1.3-7.383h11.742l2.306-13.078H114.147l2.765-15.68L136.79,58.5Z"/>
</svg>
