<svg xmlns="http://www.w3.org/2000/svg" width="220" height="70" viewBox="0 0 220 70">
  <metadata><?xpacket begin="﻿" id="W5M0MpCehiHzreSzNTczkc9d"?>
<x:xmpmeta xmlns:x="adobe:ns:meta/" x:xmptk="Adobe XMP Core 5.6-c138 79.159824, 2016/09/14-01:09:01        ">
   <rdf:RDF xmlns:rdf="http://www.w3.org/1999/02/22-rdf-syntax-ns#">
      <rdf:Description rdf:about=""/>
   </rdf:RDF>
</x:xmpmeta>
                                                                                                    
                                                                                                    
                                                                                                    
                                                                                                    
                                                                                                    
                                                                                                    
                                                                                                    
                                                                                                    
                                                                                                    
                                                                                                    
                                                                                                    
                                                                                                    
                                                                                                    
                                                                                                    
                                                                                                    
                                                                                                    
                                                                                                    
                                                                                                    
                                                                                                    
                                                                                                    
                           
<?xpacket end="w"?></metadata>
<defs>
    <style>
      .cls-1 {
        fill: #010101;
        fill-rule: evenodd;
      }
    </style>
  </defs>
  <path id="久留米_" data-name="久留米 " class="cls-1" d="M54.691,38.251H47.448L65.107,17.861l2.5-14.2H29.29L5.36,36.494H20.477L35.646,16.665H50.2L5.087,67.15H22.244L42.354,44.017l7.8,23.133H65.134ZM143.366,3.658H113.483L111.6,14.345h3.586L108,34.736h11.531l6.9-20.391h2.882l-3.6,20.391h12.164Zm-35,12.656H97.048L96.33,22.783H91.478L93,14.134l17.036-.914,1.81-10.266L82.153,4.29,76.784,34.736h29.6Zm29.157,20.461h-61.1l-5.2,29.461h61.1Zm-25.8,10.758,0.41-2.32H122.4l-0.41,2.32H111.723ZM109.9,57.869l0.41-2.32h10.266l-0.41,2.32H109.9ZM88.238,47.533l0.41-2.32h10.2l-0.41,2.32h-10.2ZM86.416,57.869l0.41-2.32h10.2l-0.41,2.32h-10.2ZM199.266,3.447L191.654,22.29h13.782l7.611-18.844H199.266Zm-32.133,0H153.352l0.9,18.844H168.1ZM211.28,26.228H186.53l4.153-23.555H175.988l-4.153,23.555h-24.75l-2.294,13.008h15.117L143.561,50.2l-2.852,16.172,27.369-18.844-3.435,19.477h14.7l3.447-19.547L203.5,66.376,206.35,50.2,193.869,39.236h15.117Z"/>
</svg>
