<svg xmlns="http://www.w3.org/2000/svg" width="150" height="70" viewBox="0 0 150 70">
  <metadata><?xpacket begin="﻿" id="W5M0MpCehiHzreSzNTczkc9d"?>
<x:xmpmeta xmlns:x="adobe:ns:meta/" x:xmptk="Adobe XMP Core 5.6-c138 79.159824, 2016/09/14-01:09:01        ">
   <rdf:RDF xmlns:rdf="http://www.w3.org/1999/02/22-rdf-syntax-ns#">
      <rdf:Description rdf:about=""/>
   </rdf:RDF>
</x:xmpmeta>
                                                                                                    
                                                                                                    
                                                                                                    
                                                                                                    
                                                                                                    
                                                                                                    
                                                                                                    
                                                                                                    
                                                                                                    
                                                                                                    
                                                                                                    
                                                                                                    
                                                                                                    
                                                                                                    
                                                                                                    
                                                                                                    
                                                                                                    
                                                                                                    
                                                                                                    
                                                                                                    
                           
<?xpacket end="w"?></metadata>
<defs>
    <style>
      .cls-1 {
        fill: #010101;
        fill-rule: evenodd;
      }
    </style>
  </defs>
  <path id="弥彦" class="cls-1" d="M69.937,31.853h-9.7L56.2,63.494h9.844ZM75.691,7.6H50.168l1.477-4.781H39.972L32.4,28.2H43.793l2.481-8.086h2.953l-5.679,32.2H41.3L38.72,66.939h14.2L61.18,20.111h12.3ZM35.273,31.853L26.741,63.494H37.077l8.11-31.641H35.273Zm-4.93,4.43H18.883l0.682-3.867H31.026L36.109,3.587H12.344L10.2,15.751H21.94l-0.793,4.5H10.53L5.583,48.306H16.2l-1.091,6.188H3.367L1.173,66.939H24.939Zm109-4.992-41.893,2.32-1.736,9.844,42.042-3.164Zm5.209-11.6h-6.82l0.72-4.078H144.5l1.946-11.039H122.329l0.322-1.828H108.237l-0.322,1.828H83.728L81.781,15.611h8.086l-0.72,4.078H83.1l-3.632,20.6L71.932,67.079H85.08L92.828,40.29l1.685-9.563h48.094Zm-5.539,22.641L93.866,45.564l-1.7,9.633,45.162-3.3Zm-0.535,11.813L89.6,57.376,87.88,67.15l48.763-2.6ZM102.3,19.689l0.719-4.078h22.36l-0.72,4.078H102.3Z"/>
</svg>
