<svg xmlns="http://www.w3.org/2000/svg" width="150" height="70" viewBox="0 0 150 70">
  <metadata><?xpacket begin="﻿" id="W5M0MpCehiHzreSzNTczkc9d"?>
<x:xmpmeta xmlns:x="adobe:ns:meta/" x:xmptk="Adobe XMP Core 5.6-c138 79.159824, 2016/09/14-01:09:01        ">
   <rdf:RDF xmlns:rdf="http://www.w3.org/1999/02/22-rdf-syntax-ns#">
      <rdf:Description rdf:about=""/>
   </rdf:RDF>
</x:xmpmeta>
                                                                                                    
                                                                                                    
                                                                                                    
                                                                                                    
                                                                                                    
                                                                                                    
                                                                                                    
                                                                                                    
                                                                                                    
                                                                                                    
                                                                                                    
                                                                                                    
                                                                                                    
                                                                                                    
                                                                                                    
                                                                                                    
                                                                                                    
                                                                                                    
                                                                                                    
                                                                                                    
                           
<?xpacket end="w"?></metadata>
<defs>
    <style>
      .cls-1 {
        fill: #010101;
        fill-rule: evenodd;
      }
    </style>
  </defs>
  <path id="別府_" data-name="別府 " class="cls-1" d="M74.918,2.814H62.543l-9.2,52.172H45.749L43.642,66.939H63.61Zm-14.48.773H47.781l-8.729,49.5H51.709Zm-20.3,32.555H24.463l0.557-3.164H40.278L45.461,3.587H13.469L8.285,32.978h3.867L10.74,40.994l-9.5,25.945H13.689l7.454-19.547h4.219L21.915,66.939h12.8ZM23.476,21.8l1.215-6.891h5.555L29.031,21.8H23.476ZM143.782,23.2H140.9l0.807-4.57H128.417L127.61,23.2H111.86l-2.033,11.531h15.75l-3.484,19.758h-8.719L111.18,66.939h22.008l5.678-32.2h2.882Zm3.162-17.93H123.67L124.1,2.814H109.972l-0.434,2.461h-25.1L78.572,38.533,71.614,67.22H83.567L91.393,36l3.36-19.055h50.133ZM120.825,36.564H109.013l-1.289,15.68h11.883Zm-21.1-17.93L88.892,47.392h3.516L88.961,66.939h12.8l4.216-23.906h-2.883l9.365-24.4H99.729Z"/>
</svg>
