<svg xmlns="http://www.w3.org/2000/svg" width="220" height="70" viewBox="0 0 220 70">
  <metadata><?xpacket begin="﻿" id="W5M0MpCehiHzreSzNTczkc9d"?>
<x:xmpmeta xmlns:x="adobe:ns:meta/" x:xmptk="Adobe XMP Core 5.6-c138 79.159824, 2016/09/14-01:09:01        ">
   <rdf:RDF xmlns:rdf="http://www.w3.org/1999/02/22-rdf-syntax-ns#">
      <rdf:Description rdf:about=""/>
   </rdf:RDF>
</x:xmpmeta>
                                                                                                    
                                                                                                    
                                                                                                    
                                                                                                    
                                                                                                    
                                                                                                    
                                                                                                    
                                                                                                    
                                                                                                    
                                                                                                    
                                                                                                    
                                                                                                    
                                                                                                    
                                                                                                    
                                                                                                    
                                                                                                    
                                                                                                    
                                                                                                    
                                                                                                    
                                                                                                    
                           
<?xpacket end="w"?></metadata>
<defs>
    <style>
      .cls-1 {
        fill: #010101;
        fill-rule: evenodd;
      }
    </style>
  </defs>
  <path id="四日市_" data-name="四日市      " class="cls-1" d="M76.2,3.587H15.026L3.966,66.306H65.138ZM53.07,37.056L56.875,15.47h4.711L57.78,37.056H53.07ZM18.647,54.423l0.5-2.812H29.831l8.84-22.219L41.125,15.47h4.711L39.91,49.079H55.66l-0.943,5.344H18.647Zm0.917-5.2,5.951-33.75h4.359L27.421,29.392Zm124.7-44.578H85.129l-10.7,60.68h59.133ZM94.608,29.04L96.8,16.6h31.571L126.179,29.04H94.608ZM90.319,53.369L92.5,40.994h31.57L121.89,53.369H90.319Zm125.6-46.477H190.748l0.731-4.148H177.628L176.9,6.892H151.724l-2.355,13.359H174.54l-0.905,5.133H150.784l-7.055,40.008H157.3l4.661-26.438h9.281l-4.959,28.125h13.852l4.959-28.125h9.211l-4.662,26.438h13.571l7.054-40.008H187.487l0.905-5.133h25.172Z"/>
</svg>
