<svg xmlns="http://www.w3.org/2000/svg" width="220" height="70" viewBox="0 0 220 70">
  <metadata><?xpacket begin="﻿" id="W5M0MpCehiHzreSzNTczkc9d"?>
<x:xmpmeta xmlns:x="adobe:ns:meta/" x:xmptk="Adobe XMP Core 5.6-c138 79.159824, 2016/09/14-01:09:01        ">
   <rdf:RDF xmlns:rdf="http://www.w3.org/1999/02/22-rdf-syntax-ns#">
      <rdf:Description rdf:about=""/>
   </rdf:RDF>
</x:xmpmeta>
                                                                                                    
                                                                                                    
                                                                                                    
                                                                                                    
                                                                                                    
                                                                                                    
                                                                                                    
                                                                                                    
                                                                                                    
                                                                                                    
                                                                                                    
                                                                                                    
                                                                                                    
                                                                                                    
                                                                                                    
                                                                                                    
                                                                                                    
                                                                                                    
                                                                                                    
                                                                                                    
                           
<?xpacket end="w"?></metadata>
<defs>
    <style>
      .cls-1 {
        fill: #010101;
        fill-rule: evenodd;
      }
    </style>
  </defs>
  <path id="和歌山_" data-name="和歌山 " class="cls-1" d="M76.467,4.431H47.638L36.765,66.1H65.593ZM38.574,42.681l-7.3-8.016,0.3-1.687h8.719l2.207-12.516H33.773l0.955-5.414,8.479-.633,2.046-11.6-31.467,2.6-2.02,11.461,9.417-.774-0.769,4.359H11.132L8.925,32.978h9L6.867,44.65,3.407,64.267l11.662-13.5L12.219,66.939H25.578l3.05-17.3,7.131,9Zm13.2,10.9,6.472-36.7h3.3l-6.472,36.7h-3.3Zm82.012-19.2h-3.305l2.02-11.461h-7.172l1.654-4.992h9.633L132.779,31.29H142.2l3.339-13.359L147.55,6.54H130.815l1.29-3.727h-11.25L111.438,32.7h8.156l-1.029,5.836L107.273,67.079h11.6l5.967-15.891L125.7,67.079h11.179ZM101.074,16.1H83L79.978,33.259h18.07Zm12.134,18.914h-3.164l3.62-20.531h2.109l1.922-10.9H84.016l-1.923,10.9h21.235l-3.62,20.531H78.473L76.564,45.845H97.8L94.079,66.939h10.336l3.719-21.094H111.3ZM95.532,47.533H77.461L74.486,64.408h18.07ZM88.825,26.158l0.533-3.023h3.164l-0.533,3.023H88.825ZM83.319,57.376l0.521-2.953H87l-0.521,2.953H83.319ZM215.807,7.525H201.6l-8.022,45.492H184.23l8.853-50.2h-14.2l-8.853,50.2h-9.14l8.022-45.492h-14.2L144.352,66.236h61.1Z"/>
</svg>
