<svg xmlns="http://www.w3.org/2000/svg" width="150" height="70" viewBox="0 0 150 70">
  <metadata><?xpacket begin="﻿" id="W5M0MpCehiHzreSzNTczkc9d"?>
<x:xmpmeta xmlns:x="adobe:ns:meta/" x:xmptk="Adobe XMP Core 5.6-c138 79.159824, 2016/09/14-01:09:01        ">
   <rdf:RDF xmlns:rdf="http://www.w3.org/1999/02/22-rdf-syntax-ns#">
      <rdf:Description rdf:about=""/>
   </rdf:RDF>
</x:xmpmeta>
                                                                                                    
                                                                                                    
                                                                                                    
                                                                                                    
                                                                                                    
                                                                                                    
                                                                                                    
                                                                                                    
                                                                                                    
                                                                                                    
                                                                                                    
                                                                                                    
                                                                                                    
                                                                                                    
                                                                                                    
                                                                                                    
                                                                                                    
                                                                                                    
                                                                                                    
                                                                                                    
                           
<?xpacket end="w"?></metadata>
<defs>
    <style>
      .cls-1 {
        fill: #010101;
        fill-rule: evenodd;
      }
    </style>
  </defs>
  <path id="岐阜_" data-name="岐阜 " class="cls-1" d="M67.138,51.329l-5.518-3.8L67.939,43.6l3.3-18.7H61.253l1.116-6.328H72.846L74.953,6.611H64.476l0.67-3.8H52.279l-0.67,3.8H40.921L38.814,18.564H49.5l-1.116,6.328H37.7l-2.046,11.6h3.094L36.973,46.548l2.561,1.828-6.7,4.078-2.6,14.766L48.887,55.548,64.335,67.22ZM38.288,11.181H30.624L23.1,53.861H21.341l9-51.047H22.607l-9,51.047H11.919l7.526-42.68H11.71L2.027,66.1H28.6Zm13.6,29.742L45.5,36.494H59.277Zm85.357,12.164h-25.1l0.421-2.391h22.36l3.793-21.516H93.928L94.313,27H139.1L142.9,5.486H118.427l1.385-2.672h-14.2l-1.456,2.672H84.325L76.354,50.7H98.713l-0.422,2.391H73.19L71.342,63.564h25.1l-0.594,3.375H109.7l0.595-3.375h25.1ZM96.011,17.369l0.4-2.25h31.008l-0.4,2.25H96.011ZM91.82,41.134l0.41-2.32h31.008l-0.41,2.32H91.82Z"/>
</svg>
