<svg xmlns="http://www.w3.org/2000/svg" width="220" height="70" viewBox="0 0 220 70">
  <metadata><?xpacket begin="﻿" id="W5M0MpCehiHzreSzNTczkc9d"?>
<x:xmpmeta xmlns:x="adobe:ns:meta/" x:xmptk="Adobe XMP Core 5.6-c138 79.159824, 2016/09/14-01:09:01        ">
   <rdf:RDF xmlns:rdf="http://www.w3.org/1999/02/22-rdf-syntax-ns#">
      <rdf:Description rdf:about=""/>
   </rdf:RDF>
</x:xmpmeta>
                                                                                                    
                                                                                                    
                                                                                                    
                                                                                                    
                                                                                                    
                                                                                                    
                                                                                                    
                                                                                                    
                                                                                                    
                                                                                                    
                                                                                                    
                                                                                                    
                                                                                                    
                                                                                                    
                                                                                                    
                                                                                                    
                                                                                                    
                                                                                                    
                                                                                                    
                                                                                                    
                           
<?xpacket end="w"?></metadata>
<defs>
    <style>
      .cls-1 {
        fill: #010101;
        fill-rule: evenodd;
      }
    </style>
  </defs>
  <path id="向日町_" data-name="向日町 " class="cls-1" d="M75.21,8.509H48.632l3.465-5.7H36.558L33.3,8.509H14.249l-10.3,58.43H17.8l8.009-45.422H59.065L51.056,66.939H64.907ZM56.228,24.048H27.752L20.97,62.509H49.446ZM35.175,50.134l2.417-13.711h4.43L39.6,50.134h-4.43ZM144.283,4.642H85.15l-10.7,60.68h59.132ZM94.629,29.04l2.2-12.445H128.4L126.2,29.04H94.629ZM90.34,53.369l2.182-12.375h31.57L121.91,53.369H90.34ZM216.284,4.431h-28.2l-2.231,12.656h10.758l-6.472,36.7h-6.328L181.5,66.939h20.18l8.79-49.852h3.586ZM186.41,3.587H153.925L143.771,61.173h32.484ZM169.9,27.423L172.356,13.5h2.32l-2.454,13.922H169.9Zm-10.125,0L162.231,13.5h2.18l-2.455,13.922h-2.179Zm5.9,23.977,2.466-13.992h2.321L167.994,51.4h-2.32Zm-10.125,0,2.466-13.992h2.18L157.729,51.4h-2.18Z"/>
</svg>
