<svg xmlns="http://www.w3.org/2000/svg" width="150" height="70" viewBox="0 0 150 70">
  <metadata><?xpacket begin="﻿" id="W5M0MpCehiHzreSzNTczkc9d"?>
<x:xmpmeta xmlns:x="adobe:ns:meta/" x:xmptk="Adobe XMP Core 5.6-c138 79.159824, 2016/09/14-01:09:01        ">
   <rdf:RDF xmlns:rdf="http://www.w3.org/1999/02/22-rdf-syntax-ns#">
      <rdf:Description rdf:about=""/>
   </rdf:RDF>
</x:xmpmeta>
                                                                                                    
                                                                                                    
                                                                                                    
                                                                                                    
                                                                                                    
                                                                                                    
                                                                                                    
                                                                                                    
                                                                                                    
                                                                                                    
                                                                                                    
                                                                                                    
                                                                                                    
                                                                                                    
                                                                                                    
                                                                                                    
                                                                                                    
                                                                                                    
                                                                                                    
                                                                                                    
                           
<?xpacket end="w"?></metadata>
<defs>
    <style>
      .cls-1 {
        fill: #010101;
        fill-rule: evenodd;
      }
    </style>
  </defs>
  <path id="防府_" data-name="防府      " class="cls-1" d="M75.29,7.876H63.548l0.893-5.062H51.011L50.118,7.876H37.11L34.966,20.04h4.008L36.792,32.415,26.767,66.939H39.282l8.825-30.516h8.156l-5.38,30.516H63.329l7.538-42.75H50.617l0.732-4.149h21.8ZM30.249,37.619l-0.717-7.1,4.251-12.937,2.5-14.2H12.732L1.524,66.939H12.071l0.793-4.5H25.872ZM15.159,49.431l5.764-32.7h2.813L19.577,31.15l0.278,7.594L17.971,49.431H15.159ZM143.5,23.2h-2.883l0.806-4.57H128.135l-0.806,4.57h-15.75l-2.034,11.531H125.3l-3.483,19.758h-8.719L110.9,66.939h22.008l5.677-32.2h2.883Zm3.162-17.93H123.389l0.434-2.461H109.69l-0.434,2.461h-25.1L78.29,38.533,71.333,67.22H83.286L91.111,36l3.36-19.055H144.6ZM120.544,36.564H108.731l-1.288,15.68h11.882Zm-21.1-17.93L88.611,47.392h3.516L88.68,66.939h12.8l4.215-23.906H102.81l9.364-24.4H99.448Z"/>
</svg>
