<svg xmlns="http://www.w3.org/2000/svg" width="150" height="70" viewBox="0 0 150 70">
  <metadata><?xpacket begin="﻿" id="W5M0MpCehiHzreSzNTczkc9d"?>
<x:xmpmeta xmlns:x="adobe:ns:meta/" x:xmptk="Adobe XMP Core 5.6-c138 79.159824, 2016/09/14-01:09:01        ">
   <rdf:RDF xmlns:rdf="http://www.w3.org/1999/02/22-rdf-syntax-ns#">
      <rdf:Description rdf:about=""/>
   </rdf:RDF>
</x:xmpmeta>
                                                                                                    
                                                                                                    
                                                                                                    
                                                                                                    
                                                                                                    
                                                                                                    
                                                                                                    
                                                                                                    
                                                                                                    
                                                                                                    
                                                                                                    
                                                                                                    
                                                                                                    
                                                                                                    
                                                                                                    
                                                                                                    
                                                                                                    
                                                                                                    
                                                                                                    
                                                                                                    
                           
<?xpacket end="w"?></metadata>
<defs>
    <style>
      .cls-1 {
        fill: #010101;
        fill-rule: evenodd;
      }
    </style>
  </defs>
  <path id="豊橋_" data-name="豊橋 " class="cls-1" d="M74.542,5.767H58.089L58.6,2.884H45.659L45.151,5.767h-2.32l0.508-2.883H30.26L29.753,5.767H13.37L9.452,27.986H70.624ZM71.9,29.533H7.632L6.207,37.619H70.473ZM66.814,58.361h-8.3l0.534-3.023H65.8l2.851-16.172H7.48L4.629,55.337h6.75l-0.534,3.023h-8.3L1.16,66.236H65.425ZM55.96,13.853l0.4-2.25h3.727l-0.4,2.25H55.96ZM54.5,22.15l0.434-2.461h3.727L58.223,22.15H54.5Zm-13.865-8.3,0.4-2.25h3.8l-0.4,2.25h-3.8Zm-1.463,8.3L39.6,19.689h3.8L42.965,22.15h-3.8Zm-13.794-8.3,0.4-2.25H29.5l-0.4,2.25H25.374Zm-1.463,8.3,0.434-2.461h3.726L27.637,22.15H23.91Zm-4.566,26.3,0.458-2.6H54.045l-0.458,2.6H19.344Zm4.72,9.914L24.6,55.337H45.832L45.3,58.361H24.064ZM142.151,26.72l-4.328-3.375h4.922l1.562-8.859H125.253l3.048-2.531,15.472-.422,1.538-8.719L102.979,4.431l-1.464,8.3,13.645-.422-2.493,2.18H100.221l-1.562,8.859h3.516l-4.11,3.375L95.8,39.587l8.755-7.383-1.228,6.961H132.5l1.166-6.609,6.214,7.031Zm-3.44,13.922H96.594l-4.636,26.3h10.758l3.224-18.281H126.47l-3.224,18.281h10.829Zm-13.9,9.844H107.233l-2.616,14.836H122.2ZM100.163,8.439H96.437l0.992-5.625H86.108L85.116,8.439h-3.8L79.187,20.533h3.8l-0.174.984-6.2,13.641L72.776,56.884l5.843-11.6L74.8,66.939h11.32L90.572,41.7l2.271,5.063,3.051-17.3L93.46,25.314,94.3,20.533h3.727Zm12.493,16.875,2.316-1.969h10.406l1.762,1.969H112.656Zm2.831,7.875,0.346-1.969h6.961l-0.346,1.969h-6.961Zm-2.446,26.227,0.533-3.023h2.742l-0.533,3.023h-2.742Z"/>
</svg>
