<svg xmlns="http://www.w3.org/2000/svg" width="220" height="70" viewBox="0 0 220 70">
  <metadata><?xpacket begin="﻿" id="W5M0MpCehiHzreSzNTczkc9d"?>
<x:xmpmeta xmlns:x="adobe:ns:meta/" x:xmptk="Adobe XMP Core 5.6-c138 79.159824, 2016/09/14-01:09:01        ">
   <rdf:RDF xmlns:rdf="http://www.w3.org/1999/02/22-rdf-syntax-ns#">
      <rdf:Description rdf:about=""/>
   </rdf:RDF>
</x:xmpmeta>
                                                                                                    
                                                                                                    
                                                                                                    
                                                                                                    
                                                                                                    
                                                                                                    
                                                                                                    
                                                                                                    
                                                                                                    
                                                                                                    
                                                                                                    
                                                                                                    
                                                                                                    
                                                                                                    
                                                                                                    
                                                                                                    
                                                                                                    
                                                                                                    
                                                                                                    
                                                                                                    
                           
<?xpacket end="w"?></metadata>
<defs>
    <style>
      .cls-1 {
        fill: #010101;
        fill-rule: evenodd;
      }
    </style>
  </defs>
  <path id="佐世保_" data-name="佐世保 " class="cls-1" d="M75.693,6.892H56.146l1.845-4.078H43.366L41.521,6.892H32.381L30.025,20.251H35.51l-12.4,27.633H37.106l3.556-7.8h4.992L43.4,52.876H29.406L27.074,66.1h37.9L67.3,52.876H58.023l2.257-12.8h8.086L70.721,26.72H46.885l2.968-6.469H73.338ZM19.108,2.814L5.225,41.275H9.936L5.4,67.009h13.57l5.58-31.641h-3.3L33.382,2.814H19.108ZM136.5,53.579H89.667L94.8,24.47h7.594L98.4,47.111H134.12l3.993-22.641h3.515l2.219-12.586h-3.515l1.6-9.07H127.588l-1.6,9.07h-7.031l1.6-9.07H106.213l-1.6,9.07H97.019l1.6-9.07H84.767l-1.6,9.07H79.652L77.433,24.47h3.516L73.583,66.236h60.68Zm-21.505-19.2,1.748-9.914h7.031l-1.748,9.914H114.99Zm90.254,18.7-9.629-6.4h10.757l2.034-11.531H193.078l0.557-3.164h13.008l5.009-28.406h-38.6l-5.01,28.406h12.938l-0.557,3.164H165.093L163.06,46.689h10.758l-11.886,6.4-2.443,13.852,17.225-10.758-1.9,10.758h12.657l1.9-10.758L202.8,66.939ZM156.734,2.814L142.85,41.275h4.711l-4.538,25.734h13.148l5.58-31.641h-3.3L170.656,2.814H156.734Zm26.618,17.719,0.978-5.555h12.024l-0.979,5.555H183.352Z"/>
</svg>
