<svg xmlns="http://www.w3.org/2000/svg" width="150" height="70" viewBox="0 0 150 70">
  <metadata><?xpacket begin="﻿" id="W5M0MpCehiHzreSzNTczkc9d"?>
<x:xmpmeta xmlns:x="adobe:ns:meta/" x:xmptk="Adobe XMP Core 5.6-c138 79.159824, 2016/09/14-01:09:01        ">
   <rdf:RDF xmlns:rdf="http://www.w3.org/1999/02/22-rdf-syntax-ns#">
      <rdf:Description rdf:about=""/>
   </rdf:RDF>
</x:xmpmeta>
                                                                                                    
                                                                                                    
                                                                                                    
                                                                                                    
                                                                                                    
                                                                                                    
                                                                                                    
                                                                                                    
                                                                                                    
                                                                                                    
                                                                                                    
                                                                                                    
                                                                                                    
                                                                                                    
                                                                                                    
                                                                                                    
                                                                                                    
                                                                                                    
                                                                                                    
                                                                                                    
                           
<?xpacket end="w"?></metadata>
<defs>
    <style>
      .cls-1 {
        fill: #010101;
        fill-rule: evenodd;
      }
    </style>
  </defs>
  <path id="千葉_" data-name="千葉 " class="cls-1" d="M69.69,30.306H44.94L47.3,16.947l22.443-1.266L71.92,3.306,12.241,6.4,10.047,18.845,32.534,17.72,30.315,30.306H5.494L3.238,43.1h24.82l-4.3,24.4H38.381l4.3-24.4h24.75ZM137.819,44.72h-25.1l0.334-1.9h25.1L139.6,34.6H91.792l0.855-4.851h8.86l-0.571,3.234h36.493L138,29.744h2.461l1.649-9.352h-2.461l0.484-2.742h-7.664l0.372-2.109h10.125L144.8,5.134H134.673l0.41-2.32h-13.43l-0.409,2.32H104.369l0.409-2.32h-13.5l-0.41,2.32H80.744L78.909,15.54H89.034L88.663,17.65H81l-0.484,2.742H78.053L76.4,29.744h2.461L76.559,42.822H99.2l-0.334,1.9h-25.1l-1.612,9.141H86.5L71.52,57.447l-1.711,9.7,26.465-7.734-1.326,7.523H108.8l1.327-7.523,23.667,7.734,1.711-9.7-13.711-3.586h14.414ZM116,28.478l0.384-2.18h7.945l-0.383,2.18H116Zm1.425-8.086,0.485-2.742H103.639l-0.484,2.742H94.3L94.78,17.65h7.383l0.371-2.109h16.875l-0.371,2.109h6.82l-0.485,2.742h-7.945Z"/>
</svg>
