<svg xmlns="http://www.w3.org/2000/svg" width="34" height="34" viewBox="0 0 34 34">
  <metadata><?xpacket begin="﻿" id="W5M0MpCehiHzreSzNTczkc9d"?>
<x:xmpmeta xmlns:x="adobe:ns:meta/" x:xmptk="Adobe XMP Core 5.6-c138 79.159824, 2016/09/14-01:09:01        ">
   <rdf:RDF xmlns:rdf="http://www.w3.org/1999/02/22-rdf-syntax-ns#">
      <rdf:Description rdf:about=""/>
   </rdf:RDF>
</x:xmpmeta>
                                                                                                    
                                                                                                    
                                                                                                    
                                                                                                    
                                                                                                    
                                                                                                    
                                                                                                    
                                                                                                    
                                                                                                    
                                                                                                    
                                                                                                    
                                                                                                    
                                                                                                    
                                                                                                    
                                                                                                    
                                                                                                    
                                                                                                    
                                                                                                    
                                                                                                    
                                                                                                    
                           
<?xpacket end="w"?></metadata>
<defs>
    <style>
      .cls-1 {
        fill: #1e1e1e;
        fill-rule: evenodd;
      }
    </style>
  </defs>
  <path id="シェイプ_1" data-name="シェイプ 1" class="cls-1" d="M16.4,2.094a2.042,2.042,0,0,1,1.98.433,4.833,4.833,0,0,1,.783,1.158Q26.4,16.245,33.654,28.8a2.13,2.13,0,0,1,.338,1.314,2.078,2.078,0,0,1-.655,1.326,2.249,2.249,0,0,1-1.151.54c-1.235.029-2.471,0-3.707,0.013H2.509c-0.232,0-.465.005-0.7-0.013A2.135,2.135,0,0,1,.191,30.8a2.019,2.019,0,0,1-.107-1.422A3.191,3.191,0,0,1,.463,28.6L15.111,3.216A2.112,2.112,0,0,1,16.4,2.094Zm0.237,2.923Q9.693,17.031,2.761,29.051a0.581,0.581,0,0,0-.114.446,0.467,0.467,0,0,0,.442.286H30.907a0.417,0.417,0,0,0,.409-0.594Q24.339,17.1,17.362,5.013A0.414,0.414,0,0,0,16.634,5.017Zm-0.3,4.924a1.7,1.7,0,0,1,1.77.256,1.739,1.739,0,0,1,.572.908,3.65,3.65,0,0,1-.019,1.1c-0.086,1.024-.218,2.046-0.314,3.069-0.065.833-.192,1.661-0.251,2.495-0.081.846-.2,1.689-0.261,2.537-0.083.776-.161,1.554-0.253,2.329a0.681,0.681,0,0,1-.6.425,0.619,0.619,0,0,1-.552-0.489c-0.094-.754-0.163-1.511-0.247-2.265-0.062-.833-0.182-1.66-0.253-2.492-0.07-.848-0.19-1.692-0.258-2.54-0.086-.877-0.189-1.753-0.277-2.63a4.753,4.753,0,0,1-.009-1.708A1.758,1.758,0,0,1,16.329,9.941ZM16.4,24.687a1.94,1.94,0,0,1,1.2,0,1.727,1.727,0,1,1-2.233,2.166,2.025,2.025,0,0,1-.043-0.961A1.774,1.774,0,0,1,16.4,24.687Z"/>
</svg>
