<svg xmlns="http://www.w3.org/2000/svg" width="40" height="25" viewBox="0 0 40 25">
  <metadata><?xpacket begin="﻿" id="W5M0MpCehiHzreSzNTczkc9d"?>
<x:xmpmeta xmlns:x="adobe:ns:meta/" x:xmptk="Adobe XMP Core 5.6-c138 79.159824, 2016/09/14-01:09:01        ">
   <rdf:RDF xmlns:rdf="http://www.w3.org/1999/02/22-rdf-syntax-ns#">
      <rdf:Description rdf:about=""/>
   </rdf:RDF>
</x:xmpmeta>
                                                                                                    
                                                                                                    
                                                                                                    
                                                                                                    
                                                                                                    
                                                                                                    
                                                                                                    
                                                                                                    
                                                                                                    
                                                                                                    
                                                                                                    
                                                                                                    
                                                                                                    
                                                                                                    
                                                                                                    
                                                                                                    
                                                                                                    
                                                                                                    
                                                                                                    
                                                                                                    
                           
<?xpacket end="w"?></metadata>
<defs>
    <style>
      .cls-1 {
        fill: #fff;
        fill-rule: evenodd;
      }
    </style>
  </defs>
  <path id="シェイプ_6" data-name="シェイプ 6" class="cls-1" d="M11.415,13.759h-1.7a10.459,10.459,0,0,0,8.53,8.529v-1.7A8.791,8.791,0,0,1,11.415,13.759ZM10.223,8.368c-0.036.1-.076,0.189-0.109,0.286-0.022.065-.038,0.133-0.059,0.2a10.368,10.368,0,0,0-.343,1.382h0a0.074,0.074,0,0,1,0,.008h1.7a8.789,8.789,0,0,1,6.827-6.828v-1.7h0V1.711a10.465,10.465,0,0,0-7.827,6.163L10.4,7.9C10.337,8.052,10.281,8.211,10.223,8.368Zm18.363,5.391a8.791,8.791,0,0,1-6.828,6.827v1.7a10.467,10.467,0,0,0,8.081-6.817c0.015-.042.033-0.082,0.047-0.124,0.028-.084.05-0.17,0.076-0.255a10.379,10.379,0,0,0,.327-1.327h0s0,0,0-.007h-1.7Zm0-3.516h1.7A10.464,10.464,0,0,0,23.573,2.2c-0.076-.028-0.15-0.061-0.227-0.087s-0.138-.039-0.206-0.061a10.41,10.41,0,0,0-1.375-.341v0l-0.008,0v1.7A8.788,8.788,0,0,1,28.586,10.243Zm-13.707,0a5.439,5.439,0,0,1,3.362-3.364V5.492l0-.352h0V5.132a7.115,7.115,0,0,0-4.572,3.686c-0.013.025-.027,0.05-0.04,0.075-0.028.058-.053,0.119-0.08,0.178a7.086,7.086,0,0,0-.417,1.163h0l0,0.008h1.746Zm10.243,0h1.746a7.113,7.113,0,0,0-3.715-4.589l-0.047-.025C23.055,5.6,23,5.582,22.949,5.559a7.125,7.125,0,0,0-1.184-.427v0l-0.008,0V6.878A5.446,5.446,0,0,1,25.122,10.243Zm0,3.516a5.447,5.447,0,0,1-3.364,3.362v1.746a7.157,7.157,0,0,0,5.109-5.1h0l0-.007H25.122Zm-10.243,0h-1.39l-0.347,0v0H13.135a7.107,7.107,0,0,0,5.107,5.109V17.121A5.448,5.448,0,0,1,14.879,13.759Zm16.367-2.513H22.8A2.9,2.9,0,0,0,20.753,9.2V0.753a0.753,0.753,0,1,0-1.507,0V9.2A2.9,2.9,0,0,0,17.2,11.246H8.753a0.753,0.753,0,1,0,0,1.507H17.2A2.9,2.9,0,0,0,19.247,14.8v8.447a0.753,0.753,0,1,0,1.507,0V14.8A2.9,2.9,0,0,0,22.8,12.753h8.447A0.753,0.753,0,1,0,31.247,11.246Z"/>
</svg>
