<svg xmlns="http://www.w3.org/2000/svg" width="40" height="25" viewBox="0 0 40 25">
  <metadata><?xpacket begin="﻿" id="W5M0MpCehiHzreSzNTczkc9d"?>
<x:xmpmeta xmlns:x="adobe:ns:meta/" x:xmptk="Adobe XMP Core 5.6-c138 79.159824, 2016/09/14-01:09:01        ">
   <rdf:RDF xmlns:rdf="http://www.w3.org/1999/02/22-rdf-syntax-ns#">
      <rdf:Description rdf:about=""/>
   </rdf:RDF>
</x:xmpmeta>
                                                                                                    
                                                                                                    
                                                                                                    
                                                                                                    
                                                                                                    
                                                                                                    
                                                                                                    
                                                                                                    
                                                                                                    
                                                                                                    
                                                                                                    
                                                                                                    
                                                                                                    
                                                                                                    
                                                                                                    
                                                                                                    
                                                                                                    
                                                                                                    
                                                                                                    
                                                                                                    
                           
<?xpacket end="w"?></metadata>
<defs>
    <style>
      .cls-1 {
        fill: #fff;
        fill-rule: evenodd;
      }
    </style>
  </defs>
  <path id="シェイプ_5" data-name="シェイプ 5" class="cls-1" d="M31.846,9.87a7.179,7.179,0,0,0-2.992.648L26.647,7.568l0.714-1.677,0.278-.641h0l0-.011H25.7L25.07,6.715H18.378L15.1,6.709,17.288,2.9l1.089-1.881H18.37l0.007-.012H11.721a2.03,2.03,0,0,0-1.649.808,2.292,2.292,0,0,0,.523,3.293c0.017,0.014.031,0.029,0.048,0.043h0l0.009,0.008,1.126-1.348,0,0h0L11.789,3.8c-0.6-.488-0.414-0.745-0.264-0.952a0.261,0.261,0,0,1,.2-0.072h2.416L15.3,2.779,13.038,6.715l-0.284.492L10.91,10.415A7.2,7.2,0,0,0,8.154,9.87a7.063,7.063,0,1,0,7.154,7.062A7.025,7.025,0,0,0,12.46,11.3L13.5,9.487l0.421-.722,7,9.356h3.875A7.146,7.146,0,1,0,31.846,9.87ZM23.4,16.356l-0.5,0,2.935-6.89,1.493,2a7.03,7.03,0,0,0-2.619,4.9H23.4Zm0.912-7.871-1.989,4.67L21.27,15.619,15.93,8.481h6Zm2.454,7.87a5.008,5.008,0,0,1,1.778-3.274l1.536,2.053,0.905,1.222h-4.22Zm5.077,5.622a5.1,5.1,0,0,1-4.967-3.855h6.879a0.39,0.39,0,0,0,.318-0.622l-3.114-4.162-0.856-1.149a5.14,5.14,0,0,1,1.739-.3A5.045,5.045,0,1,1,31.846,21.977ZM9.889,12.189L7.621,16.133a0.486,0.486,0,0,0,.186.667L8.5,17.188A0.5,0.5,0,0,0,9.177,17l1.913-3.327,0.351-.606a5,5,0,0,1,1.824,3.862,5.11,5.11,0,1,1-5.11-5.045,5.163,5.163,0,0,1,1.615.261C9.809,12.163,9.849,12.174,9.889,12.189ZM24.01,4.671h5a0.546,0.546,0,0,0,.6-0.465V2.925a0.546,0.546,0,0,0-.6-0.465l-5,.349a0.545,0.545,0,0,0-.6.465V4.205A0.545,0.545,0,0,0,24.01,4.671Z"/>
</svg>
