<svg xmlns="http://www.w3.org/2000/svg" width="40" height="25" viewBox="0 0 40 25">
  <metadata><?xpacket begin="﻿" id="W5M0MpCehiHzreSzNTczkc9d"?>
<x:xmpmeta xmlns:x="adobe:ns:meta/" x:xmptk="Adobe XMP Core 5.6-c138 79.159824, 2016/09/14-01:09:01        ">
   <rdf:RDF xmlns:rdf="http://www.w3.org/1999/02/22-rdf-syntax-ns#">
      <rdf:Description rdf:about=""/>
   </rdf:RDF>
</x:xmpmeta>
                                                                                                    
                                                                                                    
                                                                                                    
                                                                                                    
                                                                                                    
                                                                                                    
                                                                                                    
                                                                                                    
                                                                                                    
                                                                                                    
                                                                                                    
                                                                                                    
                                                                                                    
                                                                                                    
                                                                                                    
                                                                                                    
                                                                                                    
                                                                                                    
                                                                                                    
                                                                                                    
                           
<?xpacket end="w"?></metadata>
<defs>
    <style>
      .cls-1 {
        fill: #fff;
        fill-rule: evenodd;
      }
    </style>
  </defs>
  <path id="シェイプ_3" data-name="シェイプ 3" class="cls-1" d="M20.5,15.7a2.345,2.345,0,0,0,1.676-.7l2.355-2.366,7.444-7.489A1.386,1.386,0,0,0,30.61,4H10.385A1.386,1.386,0,0,0,9.022,5.151l9.8,9.855A2.351,2.351,0,0,0,20.5,15.7Zm-6.38-3.066-3-3.012L9.007,7.494V7.5L9,7.494V17.787Zm11.591,1.187h0L25.7,13.821l-2.352,2.366a4.016,4.016,0,0,1-5.707,0L15.3,13.826h0l-0.005-.005L9.078,20.072A1.388,1.388,0,0,0,10.385,21H30.61a1.388,1.388,0,0,0,1.308-.928l-6.209-6.246h0ZM32,7.5l0,0.005V7.492l-5.117,5.148,5.117,5.147V11.76Z"/>
</svg>
