<svg xmlns="http://www.w3.org/2000/svg" width="40" height="25" viewBox="0 0 40 25">
  <metadata><?xpacket begin="﻿" id="W5M0MpCehiHzreSzNTczkc9d"?>
<x:xmpmeta xmlns:x="adobe:ns:meta/" x:xmptk="Adobe XMP Core 5.6-c138 79.159824, 2016/09/14-01:09:01        ">
   <rdf:RDF xmlns:rdf="http://www.w3.org/1999/02/22-rdf-syntax-ns#">
      <rdf:Description rdf:about=""/>
   </rdf:RDF>
</x:xmpmeta>
                                                                                                    
                                                                                                    
                                                                                                    
                                                                                                    
                                                                                                    
                                                                                                    
                                                                                                    
                                                                                                    
                                                                                                    
                                                                                                    
                                                                                                    
                                                                                                    
                                                                                                    
                                                                                                    
                                                                                                    
                                                                                                    
                                                                                                    
                                                                                                    
                                                                                                    
                                                                                                    
                           
<?xpacket end="w"?></metadata>
<defs>
    <style>
      .cls-1 {
        fill: #fff;
        fill-rule: evenodd;
      }
    </style>
  </defs>
  <path id="シェイプ_4" data-name="シェイプ 4" class="cls-1" d="M29,13.379c0-.041,0-0.082-0.006-0.124-0.006-.139-0.014-0.278-0.026-0.419-0.015-.185-0.035-0.371-0.058-0.557,0-.005,0-0.011,0-0.016-0.029-.227-0.064-0.454-0.107-0.682l0,0.005,0-.01h0a12.4,12.4,0,0,1-1.724,1.912,0.681,0.681,0,0,1-.069.05c0.04-.13.888-2.972-0.9-7.009-0.028-.064-0.058-0.129-0.088-0.193Q25.9,6.07,25.757,5.8c-0.032-.065-0.059-0.127-0.093-0.191l0,0,0-.007L24.721,7.138l-0.59.959c-0.039-.121-1.9-5.849-4.124-8.1-1.936,1.963-3.6,6.578-4.024,7.8-0.06.171-.1,0.276-0.105,0.3L14.857,6.42l-0.491-.814,0,0,0-.007a11.375,11.375,0,0,0-1.393,7.766c0.022,0.1.037,0.155,0.041,0.171A8.9,8.9,0,0,1,11.713,12.2c-0.151-.184-0.313-0.387-0.488-0.618v0.006l-0.006-.008C9.783,19,15.795,24,20.007,24,23.871,24,29.237,19.795,29,13.379ZM16.359,17.43A12.049,12.049,0,0,1,17.01,13.3c0.576,0.615,1.648,2.456,1.82,2.006,0.137-.352.809-3.36,1.176-3.36s1.043,3.008,1.176,3.36c0.161,0.42,1.1-1.155,1.7-1.867,0.043-.049.085-0.1,0.124-0.135a11.959,11.959,0,0,1,.646,4.128c-0.194,1.916-1.748,3.859-3.648,3.859S16.554,19.346,16.359,17.43Z"/>
</svg>
