<svg xmlns="http://www.w3.org/2000/svg" width="40" height="25" viewBox="0 0 40 25">
  <metadata><?xpacket begin="﻿" id="W5M0MpCehiHzreSzNTczkc9d"?>
<x:xmpmeta xmlns:x="adobe:ns:meta/" x:xmptk="Adobe XMP Core 5.6-c138 79.159824, 2016/09/14-01:09:01        ">
   <rdf:RDF xmlns:rdf="http://www.w3.org/1999/02/22-rdf-syntax-ns#">
      <rdf:Description rdf:about=""/>
   </rdf:RDF>
</x:xmpmeta>
                                                                                                    
                                                                                                    
                                                                                                    
                                                                                                    
                                                                                                    
                                                                                                    
                                                                                                    
                                                                                                    
                                                                                                    
                                                                                                    
                                                                                                    
                                                                                                    
                                                                                                    
                                                                                                    
                                                                                                    
                                                                                                    
                                                                                                    
                                                                                                    
                                                                                                    
                                                                                                    
                           
<?xpacket end="w"?></metadata>
<defs>
    <style>
      .cls-1 {
        fill: #fff;
        fill-rule: evenodd;
      }
    </style>
  </defs>
  <path id="シェイプ_9" data-name="シェイプ 9" class="cls-1" d="M21,10.006A2.494,2.494,0,1,0,23.527,12.5,2.513,2.513,0,0,0,21,10.006Zm10.615,5.737L29.993,14.68a0.842,0.842,0,0,1-.374-0.839,8.335,8.335,0,0,0,.107-1.338,8.225,8.225,0,0,0-.107-1.338,0.842,0.842,0,0,1,.374-0.839l1.622-1.062a0.853,0.853,0,0,0,.273-1.139l-1.6-2.747a0.864,0.864,0,0,0-1.135-.335L27.409,5.9a0.884,0.884,0,0,1-.927-0.1,8.744,8.744,0,0,0-2.347-1.344,0.854,0.854,0,0,1-.547-0.739L23.469,1.8A0.86,0.86,0,0,0,22.608,1H19.4a0.856,0.856,0,0,0-.861.8L18.419,3.717a0.851,0.851,0,0,1-.553.739A8.744,8.744,0,0,0,15.519,5.8a0.874,0.874,0,0,1-.921.1l-1.741-.857a0.863,0.863,0,0,0-1.135.335l-1.6,2.747a0.845,0.845,0,0,0,.267,1.139l1.628,1.062a0.842,0.842,0,0,1,.374.839,8.259,8.259,0,0,0-.107,1.338,8.37,8.37,0,0,0,.107,1.338,0.842,0.842,0,0,1-.374.839l-1.628,1.062a0.836,0.836,0,0,0-.267,1.133l1.6,2.753a0.874,0.874,0,0,0,1.135.334l1.741-.857a0.85,0.85,0,0,1,.921.1,8.727,8.727,0,0,0,2.347,1.338,0.857,0.857,0,0,1,.553.739L18.537,23.2a0.856,0.856,0,0,0,.861.8h3.209a0.86,0.86,0,0,0,.861-0.8l0.119-1.919a0.861,0.861,0,0,1,.547-0.739,8.726,8.726,0,0,0,2.347-1.338,0.86,0.86,0,0,1,.927-0.1l1.741,0.857a0.876,0.876,0,0,0,1.135-.334l1.6-2.753A0.844,0.844,0,0,0,31.616,15.743Zm-5.36-3.24A5.253,5.253,0,1,1,21,7.309,5.222,5.222,0,0,1,26.256,12.5Z"/>
</svg>
