<svg xmlns="http://www.w3.org/2000/svg" width="40" height="25" viewBox="0 0 40 25">
  <metadata><?xpacket begin="﻿" id="W5M0MpCehiHzreSzNTczkc9d"?>
<x:xmpmeta xmlns:x="adobe:ns:meta/" x:xmptk="Adobe XMP Core 5.6-c138 79.159824, 2016/09/14-01:09:01        ">
   <rdf:RDF xmlns:rdf="http://www.w3.org/1999/02/22-rdf-syntax-ns#">
      <rdf:Description rdf:about=""/>
   </rdf:RDF>
</x:xmpmeta>
                                                                                                    
                                                                                                    
                                                                                                    
                                                                                                    
                                                                                                    
                                                                                                    
                                                                                                    
                                                                                                    
                                                                                                    
                                                                                                    
                                                                                                    
                                                                                                    
                                                                                                    
                                                                                                    
                                                                                                    
                                                                                                    
                                                                                                    
                                                                                                    
                                                                                                    
                                                                                                    
                           
<?xpacket end="w"?></metadata>
<defs>
    <style>
      .cls-1 {
        fill: #fff;
        fill-rule: evenodd;
      }
    </style>
  </defs>
  <path id="シェイプ_11" data-name="シェイプ 11" class="cls-1" d="M11.631,16.561h1.837V13.8H11.631v2.756ZM27.529,1H14.1a2.456,2.456,0,0,0-2.471,2.436v2.3h1.837v-2.3A0.63,0.63,0,0,1,14.1,2.811H27.529a0.631,0.631,0,0,1,.635.625V21.565a0.631,0.631,0,0,1-.635.624H14.1a0.63,0.63,0,0,1-.634-0.624V19.217H11.631v2.347A2.456,2.456,0,0,0,14.1,24H27.529A2.457,2.457,0,0,0,30,21.565V3.436A2.457,2.457,0,0,0,27.529,1Zm-15.9,10.148h1.837V8.392H11.631v2.757ZM11.122,7.667h2.857A0.123,0.123,0,0,0,14.1,7.546V6.581a0.123,0.123,0,0,0-.123-0.121H11.122A0.122,0.122,0,0,0,11,6.581V7.546A0.123,0.123,0,0,0,11.122,7.667Zm0,5.413h2.857a0.124,0.124,0,0,0,.123-0.121V11.993a0.123,0.123,0,0,0-.123-0.121H11.122a0.123,0.123,0,0,0-.122.121v0.966A0.123,0.123,0,0,0,11.122,13.08Zm2.346,5.413h0.511a0.123,0.123,0,0,0,.123-0.121V17.406a0.123,0.123,0,0,0-.123-0.121H11.122a0.123,0.123,0,0,0-.122.121v0.966a0.122,0.122,0,0,0,.122.121h2.346ZM25.251,7.064V6.109H16.381V7.056h0V7.064h8.869Zm-8.869,4.051v0.007h8.869V10.167H16.381v0.947h0Zm0,4.058V15.18h8.869V14.225H16.381v0.947h0Zm0,4.058v0.007h8.869V18.284H16.381v0.947h0Z"/>
</svg>
