<svg xmlns="http://www.w3.org/2000/svg" width="40" height="25" viewBox="0 0 40 25">
  <metadata><?xpacket begin="﻿" id="W5M0MpCehiHzreSzNTczkc9d"?>
<x:xmpmeta xmlns:x="adobe:ns:meta/" x:xmptk="Adobe XMP Core 5.6-c138 79.159824, 2016/09/14-01:09:01        ">
   <rdf:RDF xmlns:rdf="http://www.w3.org/1999/02/22-rdf-syntax-ns#">
      <rdf:Description rdf:about=""/>
   </rdf:RDF>
</x:xmpmeta>
                                                                                                    
                                                                                                    
                                                                                                    
                                                                                                    
                                                                                                    
                                                                                                    
                                                                                                    
                                                                                                    
                                                                                                    
                                                                                                    
                                                                                                    
                                                                                                    
                                                                                                    
                                                                                                    
                                                                                                    
                                                                                                    
                                                                                                    
                                                                                                    
                                                                                                    
                                                                                                    
                           
<?xpacket end="w"?></metadata>
<defs>
    <style>
      .cls-1 {
        fill: #fff;
        fill-rule: evenodd;
      }
    </style>
  </defs>
  <path id="シェイプ_2" data-name="シェイプ 2" class="cls-1" d="M28.7,14.045l1.828-6.8L31,5.487h0l0-.008H14.209L13.523,2.928A1.267,1.267,0,0,0,12.3,2H7V3.4a1.262,1.262,0,0,0,1.27,1.255H11.2l3.49,12.974a1.267,1.267,0,0,0,1.227.932H28.995V15.909h0V15.9H17.013l-0.4-1.481-0.1-.376H28.7Zm-11.61,5.638a2.158,2.158,0,1,0,2.183,2.158A2.171,2.171,0,0,0,17.087,19.683Zm9.726,0a2.158,2.158,0,1,0,2.183,2.158A2.171,2.171,0,0,0,26.812,19.683Z"/>
</svg>
