<svg xmlns="http://www.w3.org/2000/svg" width="40" height="25" viewBox="0 0 40 25">
  <metadata><?xpacket begin="﻿" id="W5M0MpCehiHzreSzNTczkc9d"?>
<x:xmpmeta xmlns:x="adobe:ns:meta/" x:xmptk="Adobe XMP Core 5.6-c138 79.159824, 2016/09/14-01:09:01        ">
   <rdf:RDF xmlns:rdf="http://www.w3.org/1999/02/22-rdf-syntax-ns#">
      <rdf:Description rdf:about=""/>
   </rdf:RDF>
</x:xmpmeta>
                                                                                                    
                                                                                                    
                                                                                                    
                                                                                                    
                                                                                                    
                                                                                                    
                                                                                                    
                                                                                                    
                                                                                                    
                                                                                                    
                                                                                                    
                                                                                                    
                                                                                                    
                                                                                                    
                                                                                                    
                                                                                                    
                                                                                                    
                                                                                                    
                                                                                                    
                                                                                                    
                           
<?xpacket end="w"?></metadata>
<defs>
    <style>
      .cls-1 {
        fill: #fff;
        fill-rule: evenodd;
      }
    </style>
  </defs>
  <path id="シェイプ_8" data-name="シェイプ 8" class="cls-1" d="M20,1A11,11,0,1,0,31,12,11,11,0,0,0,20,1Zm1.1,17.685H18.9L18.746,16.3h2.507Zm1.888-6.148a4.216,4.216,0,0,1-1.539.984,0.3,0.3,0,0,0-.2.284v1.224H18.746v-2.2a1.561,1.561,0,0,1,1.561-1.561,1.781,1.781,0,0,0,1.416-1.724,1.724,1.724,0,0,0-3.447,0h0.007a1.983,1.983,0,0,1-1.257.22,1.983,1.983,0,0,1-1.257-.22,4.276,4.276,0,0,1,2.516-3.886,1.867,1.867,0,0,1,.178-0.074A4.288,4.288,0,0,1,23.887,7.83a1.855,1.855,0,0,1,.073.178A4.276,4.276,0,0,1,22.992,12.537Z"/>
</svg>
