<svg xmlns="http://www.w3.org/2000/svg" width="40" height="25" viewBox="0 0 40 25">
  <metadata><?xpacket begin="﻿" id="W5M0MpCehiHzreSzNTczkc9d"?>
<x:xmpmeta xmlns:x="adobe:ns:meta/" x:xmptk="Adobe XMP Core 5.6-c138 79.159824, 2016/09/14-01:09:01        ">
   <rdf:RDF xmlns:rdf="http://www.w3.org/1999/02/22-rdf-syntax-ns#">
      <rdf:Description rdf:about=""/>
   </rdf:RDF>
</x:xmpmeta>
                                                                                                    
                                                                                                    
                                                                                                    
                                                                                                    
                                                                                                    
                                                                                                    
                                                                                                    
                                                                                                    
                                                                                                    
                                                                                                    
                                                                                                    
                                                                                                    
                                                                                                    
                                                                                                    
                                                                                                    
                                                                                                    
                                                                                                    
                                                                                                    
                                                                                                    
                                                                                                    
                           
<?xpacket end="w"?></metadata>
<defs>
    <style>
      .cls-1 {
        fill: #fff;
        fill-rule: evenodd;
      }
    </style>
  </defs>
  <path id="シェイプ_10" data-name="シェイプ 10" class="cls-1" d="M29.9,2.78A2.445,2.445,0,0,0,28.2,1.1,2.336,2.336,0,0,0,27.494,1H12.507A2.491,2.491,0,0,0,10,3.47V21.592A2.49,2.49,0,0,0,12.475,24h9.348a3.385,3.385,0,0,0,2.381-.974l4.81-4.742A3.292,3.292,0,0,0,30,15.933V3.47A2.21,2.21,0,0,0,29.9,2.78ZM22.17,17.015v4.941a1.354,1.354,0,0,1-.348.045H12.5a0.477,0.477,0,0,1-.47-0.458V3.47A0.475,0.475,0,0,1,12.507,3H27.494a0.357,0.357,0,0,1,.13.021,0.476,0.476,0,0,1,.337.354,0.286,0.286,0,0,1,.012.1V15.933a1.334,1.334,0,0,1-.046.345H22.918A0.742,0.742,0,0,0,22.17,17.015ZM16.025,7.075h7.95a0.1,0.1,0,0,0,.1-0.1V6.28a0.1,0.1,0,0,0-.1-0.1h-7.95a0.1,0.1,0,0,0-.1.1V6.974A0.1,0.1,0,0,0,16.025,7.075Zm0,3.482h7.95a0.1,0.1,0,0,0,.1-0.1V9.763a0.1,0.1,0,0,0-.1-0.1h-7.95a0.1,0.1,0,0,0-.1.1v0.694A0.1,0.1,0,0,0,16.025,10.557Zm8.052,3.381V13.245a0.1,0.1,0,0,0-.1-0.1h-7.95a0.1,0.1,0,0,0-.1.1v0.694a0.1,0.1,0,0,0,.1.1h7.95A0.1,0.1,0,0,0,24.078,13.939Zm-3.95,2.688h-4.1a0.1,0.1,0,0,0-.1.1v0.694a0.1,0.1,0,0,0,.1.1h4.1a0.1,0.1,0,0,0,.1-0.1V16.727A0.1,0.1,0,0,0,20.128,16.626Z"/>
</svg>
