<svg xmlns="http://www.w3.org/2000/svg" width="40" height="25" viewBox="0 0 40 25">
  <metadata><?xpacket begin="﻿" id="W5M0MpCehiHzreSzNTczkc9d"?>
<x:xmpmeta xmlns:x="adobe:ns:meta/" x:xmptk="Adobe XMP Core 5.6-c138 79.159824, 2016/09/14-01:09:01        ">
   <rdf:RDF xmlns:rdf="http://www.w3.org/1999/02/22-rdf-syntax-ns#">
      <rdf:Description rdf:about=""/>
   </rdf:RDF>
</x:xmpmeta>
                                                                                                    
                                                                                                    
                                                                                                    
                                                                                                    
                                                                                                    
                                                                                                    
                                                                                                    
                                                                                                    
                                                                                                    
                                                                                                    
                                                                                                    
                                                                                                    
                                                                                                    
                                                                                                    
                                                                                                    
                                                                                                    
                                                                                                    
                                                                                                    
                                                                                                    
                                                                                                    
                           
<?xpacket end="w"?></metadata>
<defs>
    <style>
      .cls-1 {
        fill: #fff;
        fill-rule: evenodd;
      }
    </style>
  </defs>
  <path id="シェイプ_7" data-name="シェイプ 7" class="cls-1" d="M20,2C13.935,2,9,6.31,9,11.6a8.566,8.566,0,0,0,1.021,4.02A9.464,9.464,0,0,0,11.415,17.6a10.773,10.773,0,0,0,3.412,2.477l0.406,2.969a1.1,1.1,0,0,0,.661.868,1.05,1.05,0,0,0,1.063-.153l3.194-2.56c6-.07,10.849-4.35,10.849-9.6C31,6.31,26.065,2,20,2Zm4.941,7.48a0.624,0.624,0,0,1-.616.632h-8.65a0.632,0.632,0,0,1,0-1.264h8.651A0.624,0.624,0,0,1,24.941,9.483Zm-9.882,3.091a0.624,0.624,0,0,1,.616-0.632h8.651a0.633,0.633,0,0,1,0,1.265h-8.65A0.624,0.624,0,0,1,15.059,12.574Zm0.616,2.459h4.944a0.632,0.632,0,0,1,0,1.265H15.675A0.632,0.632,0,0,1,15.675,15.032Z"/>
</svg>
