<svg xmlns="http://www.w3.org/2000/svg" width="40" height="25" viewBox="0 0 40 25">
  <metadata><?xpacket begin="﻿" id="W5M0MpCehiHzreSzNTczkc9d"?>
<x:xmpmeta xmlns:x="adobe:ns:meta/" x:xmptk="Adobe XMP Core 5.6-c138 79.159824, 2016/09/14-01:09:01        ">
   <rdf:RDF xmlns:rdf="http://www.w3.org/1999/02/22-rdf-syntax-ns#">
      <rdf:Description rdf:about=""/>
   </rdf:RDF>
</x:xmpmeta>
                                                                                                    
                                                                                                    
                                                                                                    
                                                                                                    
                                                                                                    
                                                                                                    
                                                                                                    
                                                                                                    
                                                                                                    
                                                                                                    
                                                                                                    
                                                                                                    
                                                                                                    
                                                                                                    
                                                                                                    
                                                                                                    
                                                                                                    
                                                                                                    
                                                                                                    
                                                                                                    
                           
<?xpacket end="w"?></metadata>
<defs>
    <style>
      .cls-1 {
        fill: #fff;
        fill-rule: evenodd;
      }
    </style>
  </defs>
  <path id="シェイプ_12" data-name="シェイプ 12" class="cls-1" d="M20.5,6.924A1.941,1.941,0,0,0,18.79,9.03V9.95H22.21V9.03A1.941,1.941,0,0,0,20.5,6.924Zm0,4.792a1.181,1.181,0,0,0-.746,2.1l0.072,0.058-0.005.092v1.305a0.681,0.681,0,1,0,1.361,0V14l-0.006-.128,0.072-.058A1.181,1.181,0,0,0,20.5,11.716ZM20.5,1A11.5,11.5,0,1,0,32,12.5,11.5,11.5,0,0,0,20.5,1Zm5.178,17.019H15.322V9.95H17.41V9.03A3.309,3.309,0,0,1,20.5,5.544,3.309,3.309,0,0,1,23.59,9.03V9.95h2.088v8.068Z"/>
</svg>
