<svg xmlns="http://www.w3.org/2000/svg" width="150" height="70" viewBox="0 0 150 70">
  <metadata><?xpacket begin="﻿" id="W5M0MpCehiHzreSzNTczkc9d"?>
<x:xmpmeta xmlns:x="adobe:ns:meta/" x:xmptk="Adobe XMP Core 5.6-c138 79.159824, 2016/09/14-01:09:01        ">
   <rdf:RDF xmlns:rdf="http://www.w3.org/1999/02/22-rdf-syntax-ns#">
      <rdf:Description rdf:about=""/>
   </rdf:RDF>
</x:xmpmeta>
                                                                                                    
                                                                                                    
                                                                                                    
                                                                                                    
                                                                                                    
                                                                                                    
                                                                                                    
                                                                                                    
                                                                                                    
                                                                                                    
                                                                                                    
                                                                                                    
                                                                                                    
                                                                                                    
                                                                                                    
                                                                                                    
                                                                                                    
                                                                                                    
                                                                                                    
                                                                                                    
                           
<?xpacket end="w"?></metadata>
<defs>
    <style>
      .cls-1 {
        fill: #010101;
        fill-rule: evenodd;
      }
    </style>
  </defs>
  <path id="前橋" class="cls-1" d="M75.263,6.47H66.474l1.559-3.656H54.111L52.693,6.47H33.708L33.58,2.814H19.658L19.927,6.47H11l-2.17,12.3H73.093Zm-4.139,14.7H58.82l-6.013,34.1H42.963L40.892,67.009H63.041Zm-14.766,0H44.195l-5.6,31.781H50.755Zm-14.555,0H9.953L1.869,67.009h12.8l1.463-8.3h6.258l-1.463,8.3h12.8ZM20.27,35.228l0.793-4.5h6.258l-0.793,4.5H20.27ZM17.8,49.22l0.781-4.43h6.258L24.06,49.22H17.8Zm123.647-22.5-4.327-3.375h4.922l1.562-8.859H124.551l3.049-2.531,15.472-.422,1.538-8.719L102.277,4.431l-1.463,8.3,13.645-.422-2.494,2.18H99.52l-1.562,8.859h3.515l-4.11,3.375L95.095,39.587,103.85,32.2l-1.229,6.961H131.8l1.166-6.609,6.213,7.031Zm-3.44,13.922H95.892l-4.636,26.3h10.758l3.223-18.281h20.531l-3.223,18.281h10.828Zm-13.9,9.844H106.531l-2.616,14.836h17.579ZM99.462,8.439H95.735l0.992-5.625H85.407L84.415,8.439h-3.8L78.485,20.533h3.8l-0.174.984-6.2,13.641L72.075,56.884l5.843-11.6L74.1,66.939H85.42L89.871,41.7l2.271,5.063,3.051-17.3-2.433-4.148L93.6,20.533h3.727Zm12.492,16.875,2.316-1.969h10.406l1.763,1.969H111.954Zm2.831,7.875,0.346-1.969h6.961l-0.346,1.969h-6.961ZM112.34,59.415l0.533-3.023h2.742l-0.533,3.023H112.34Z"/>
</svg>
