<svg id="グループ_1" data-name="グループ 1" xmlns="http://www.w3.org/2000/svg" width="294" height="80" viewBox="0 0 294 80">
  <metadata><?xpacket begin="﻿" id="W5M0MpCehiHzreSzNTczkc9d"?>
<x:xmpmeta xmlns:x="adobe:ns:meta/" x:xmptk="Adobe XMP Core 5.6-c138 79.159824, 2016/09/14-01:09:01        ">
   <rdf:RDF xmlns:rdf="http://www.w3.org/1999/02/22-rdf-syntax-ns#">
      <rdf:Description rdf:about=""/>
   </rdf:RDF>
</x:xmpmeta>
                                                                                                    
                                                                                                    
                                                                                                    
                                                                                                    
                                                                                                    
                                                                                                    
                                                                                                    
                                                                                                    
                                                                                                    
                                                                                                    
                                                                                                    
                                                                                                    
                                                                                                    
                                                                                                    
                                                                                                    
                                                                                                    
                                                                                                    
                                                                                                    
                                                                                                    
                                                                                                    
                           
<?xpacket end="w"?></metadata>
<defs>
    <style>
      .cls-1, .cls-2 {
        fill-rule: evenodd;
      }

      .cls-2 {
        fill: #fff;
      }
    </style>
  </defs>
  <rect id="長方形_2" data-name="長方形 2" x="-1" width="120" height="80"/>
  <path id="レース" class="cls-1" d="M126.889,14.141a47.817,47.817,0,0,1,.36,6.543v0.96l-0.24,33.375c-0.06,3-.12,3.662-0.72,4.922l5.342,6.243c1.02-.6,1.381-0.66,3.6-1.081,17.707-3.061,28.812-10.024,37.516-23.47a33,33,0,0,1-8.1-8.644C159.183,43.854,150.179,50.7,138.054,53.4l0.36-31.814a57.7,57.7,0,0,1,.42-7.383ZM175.63,45.115c3.661-.3,5.642-0.36,12.365-0.36h28.573a115.848,115.848,0,0,1,12.365.36V33.529a98.485,98.485,0,0,1-12.305.54H187.935a85.043,85.043,0,0,1-12.305-.54V45.115ZM285.873,57.12c-9.364-8.944-11.825-11.045-19.088-16.267,3.361-4.5,5.642-8.7,8.824-16.207a9.479,9.479,0,0,1,2.16-3.541l-5.282-5.4c-1.621.6-1.981,0.6-4.8,0.66l-20.529.3c-1.741.06-2.881,0.06-3.361,0.06a44.478,44.478,0,0,1-6.3-.42l0.3,10.685a71.288,71.288,0,0,1,9.544-.6l15.607-.24a48.291,48.291,0,0,1-12.065,17.648,56.609,56.609,0,0,1-19.449,12.125,31.437,31.437,0,0,1,6.723,9.484c9.3-4.5,16.447-9.784,22.09-16.447A96.494,96.494,0,0,1,277.469,66Z"/>
  <path id="_6" data-name="6" class="cls-2" d="M80.9,24.167A21.727,21.727,0,0,0,76.4,16.634c-3.632-3.833-9.147-5.918-15.738-5.918-8.407,0-14.594,2.959-18.966,9.012-3.5,4.842-5.582,12.711-5.582,21.185,0,9.147,2.354,16.679,6.86,21.656,3.9,4.439,9.819,6.793,16.814,6.793,13.249,0,22.4-8.138,22.4-19.773,0-11.568-7.667-18.831-19.84-18.831A20.423,20.423,0,0,0,53.4,32.506a12.131,12.131,0,0,0-4.237,3.026c0.4-4.035.874-6.053,1.95-8.34a9.4,9.4,0,0,1,9.012-5.784c4.1,0,6.389,1.681,7.6,5.582ZM59.92,41.451c5.784,0,9.281,3.161,9.281,8.34,0,5.111-3.968,8.676-9.55,8.676-5.38,0-9.348-3.565-9.348-8.541C50.3,44.747,54.069,41.451,59.92,41.451Z"/>
</svg>
