<svg id="グループ_1" data-name="グループ 1" xmlns="http://www.w3.org/2000/svg" width="294" height="80" viewBox="0 0 294 80">
  <metadata><?xpacket begin="﻿" id="W5M0MpCehiHzreSzNTczkc9d"?>
<x:xmpmeta xmlns:x="adobe:ns:meta/" x:xmptk="Adobe XMP Core 5.6-c138 79.159824, 2016/09/14-01:09:01        ">
   <rdf:RDF xmlns:rdf="http://www.w3.org/1999/02/22-rdf-syntax-ns#">
      <rdf:Description rdf:about=""/>
   </rdf:RDF>
</x:xmpmeta>
                                                                                                    
                                                                                                    
                                                                                                    
                                                                                                    
                                                                                                    
                                                                                                    
                                                                                                    
                                                                                                    
                                                                                                    
                                                                                                    
                                                                                                    
                                                                                                    
                                                                                                    
                                                                                                    
                                                                                                    
                                                                                                    
                                                                                                    
                                                                                                    
                                                                                                    
                                                                                                    
                           
<?xpacket end="w"?></metadata>
<defs>
    <style>
      .cls-1, .cls-2 {
        fill-rule: evenodd;
      }

      .cls-2 {
        fill: #fff;
      }
    </style>
  </defs>
  <rect id="長方形_2" data-name="長方形 2" x="-1" width="120" height="80"/>
  <path id="レース" class="cls-1" d="M126.889,14.141a47.817,47.817,0,0,1,.36,6.543v0.96l-0.24,33.375c-0.06,3-.12,3.662-0.72,4.922l5.342,6.243c1.02-.6,1.381-0.66,3.6-1.081,17.707-3.061,28.812-10.024,37.516-23.47a33,33,0,0,1-8.1-8.644C159.183,43.854,150.179,50.7,138.054,53.4l0.36-31.814a57.7,57.7,0,0,1,.42-7.383ZM175.63,45.115c3.661-.3,5.642-0.36,12.365-0.36h28.573a115.848,115.848,0,0,1,12.365.36V33.529a98.485,98.485,0,0,1-12.305.54H187.935a85.043,85.043,0,0,1-12.305-.54V45.115ZM285.873,57.12c-9.364-8.944-11.825-11.045-19.088-16.267,3.361-4.5,5.642-8.7,8.824-16.207a9.479,9.479,0,0,1,2.16-3.541l-5.282-5.4c-1.621.6-1.981,0.6-4.8,0.66l-20.529.3c-1.741.06-2.881,0.06-3.361,0.06a44.478,44.478,0,0,1-6.3-.42l0.3,10.685a71.288,71.288,0,0,1,9.544-.6l15.607-.24a48.291,48.291,0,0,1-12.065,17.648,56.609,56.609,0,0,1-19.449,12.125,31.437,31.437,0,0,1,6.723,9.484c9.3-4.5,16.447-9.784,22.09-16.447A96.494,96.494,0,0,1,277.469,66Z"/>
  <path id="_5" data-name="5" class="cls-2" d="M53.064,22.822h15.6a108.968,108.968,0,0,1,10.963.471V11.523a82.977,82.977,0,0,1-11.1.471H48.424c-3.228,0-3.9,0-6.725-.135-0.067,2.556-.134,4.17-0.269,5.582L39.613,38.425c-0.2,1.883-.4,3.5-0.673,5.515L51.45,45.15c1.48-3.3,4.237-4.977,8.474-4.977,5.649,0,9.281,3.5,9.281,8.878S65.439,58,59.79,58c-4.842,0-7.667-2.085-8.81-6.524L37.461,53.557a21.26,21.26,0,0,0,3.363,7.533c3.9,5.38,10.559,8.272,19.033,8.272,14.258,0,22.732-7.667,22.732-20.58,0-5.649-1.681-10.021-5.044-13.451-3.564-3.632-8.474-5.515-14.46-5.515a17.588,17.588,0,0,0-10.9,3.228c0.135-1.143.2-1.816,0.2-2.152Z"/>
</svg>
