<svg xmlns="http://www.w3.org/2000/svg" width="1400" height="298" viewBox="0 0 1400 298">
  <metadata><?xpacket begin="﻿" id="W5M0MpCehiHzreSzNTczkc9d"?>
<x:xmpmeta xmlns:x="adobe:ns:meta/" x:xmptk="Adobe XMP Core 5.6-c138 79.159824, 2016/09/14-01:09:01        ">
   <rdf:RDF xmlns:rdf="http://www.w3.org/1999/02/22-rdf-syntax-ns#">
      <rdf:Description rdf:about=""/>
   </rdf:RDF>
</x:xmpmeta>
                                                                                                    
                                                                                                    
                                                                                                    
                                                                                                    
                                                                                                    
                                                                                                    
                                                                                                    
                                                                                                    
                                                                                                    
                                                                                                    
                                                                                                    
                                                                                                    
                                                                                                    
                                                                                                    
                                                                                                    
                                                                                                    
                                                                                                    
                                                                                                    
                                                                                                    
                                                                                                    
                           
<?xpacket end="w"?></metadata>
<defs>
    <style>
      .cls-1 {
        fill: #b43d2e;
        fill-rule: evenodd;
      }
    </style>
  </defs>
  <path id="シェイプ_1" data-name="シェイプ 1" class="cls-1" d="M1414.14,34.471a1.189,1.189,0,0,0-.98-0.6c-1.51-.012-3.54,3-5.1,7.228-0.1.183-.21,0.375-0.31,0.564-1.04-1.284-2.11-2.036-3.07-2.02-2.46.038-3.28,5.087-1.81,11.283a29.234,29.234,0,0,0,1.49,4.581,21.237,21.237,0,0,0,2.55,9.8c-3.2,7.606-6.03,18.6-7.53,30.433l-2.04,16.059c-1.79-5.787-3.46-11.018-4.61-14.316-0.75-2.165-1.46-4.012-2.13-5.6,1.15-2.749,1.14-6.321.12-10.035,0.06-.785.09-1.593,0.08-2.418-0.06-5.785-1.88-10.028-4.05-9.5a3.077,3.077,0,0,0-1.68,1.442,0.182,0.182,0,0,1-.02-0.022,26.312,26.312,0,0,0-2.66-2.683c0.27-2.858.46-6.1,0.52-9.526,0.18-10.888-.97-19.4-2.58-19-1.61.381-3.07,9.527-3.24,20.416q-0.045,2.438,0,4.685a14.719,14.719,0,0,0-2.14-.742c-0.32-2.143-.72-4.43-1.22-6.781-2.12-10.039-5-17.344-6.44-16.314s-0.88,10.025,1.24,20.071c0.22,1.072.46,2.105,0.7,3.111a7.2,7.2,0,0,0-3.21,2.263,8.416,8.416,0,0,0-1.2,1.99,3.351,3.351,0,0,0-1.99-1.36c-1.83.031-.57,6.59,2.82,14.649a62.738,62.738,0,0,0,6.05,11.394,83.967,83.967,0,0,0,3.83,13.843,34.761,34.761,0,0,0-20.69,7.752c0.35-3.3-.18-5.834-1.49-6.27a2.378,2.378,0,0,0-2.3.967,23.279,23.279,0,0,0-1.72-1.888c-0.78-2.335-1.82-4.038-2.77-4.33a1.144,1.144,0,0,0-1.35.92c-0.11-.079-0.22-0.162-0.33-0.24-0.52-.344-1.01-0.646-1.49-0.927-0.56-1.24-1.14-2.042-1.68-2.2-0.45-.137-0.81.187-1.07,0.869-0.03-.008-0.05-0.019-0.08-0.029-0.05-.627-0.11-1.271-0.19-1.937-0.82-7.434-2.66-14.154-4.11-15.03s-1.94,4.457-1.11,11.889c0.22,2.04.53,4.017,0.88,5.842a2.051,2.051,0,0,0-.15.511,69.9,69.9,0,0,1,.03,9.842c-0.27,3.479-2.73,10.159-4.47,14.519a5.841,5.841,0,0,0-2.61-1.791c-2.33-.31-0.23,6.8,4.67,15.9a101.882,101.882,0,0,0,5.36,8.8c-0.14,1.467-.25,3.345-0.32,5.515-0.11,0-.23-0.012-0.34-0.012-2.29-.015-3.63,1.645-5.77,2.293-1.45.437-3.74-.3-5.09,0.4a30.625,30.625,0,0,0-9.32,7.709c-0.21-3.206-1.06-5.93-2.2-7.369a64,64,0,0,0-2.3-9.334,28.516,28.516,0,0,0-16.05-20.592L1294.3,121c-4.1-10.557-9.23-20.019-13.93-26.262a20.422,20.422,0,0,0,.1-9.661,29.32,29.32,0,0,0,.31-4.594c-0.06-6.077-1.98-10.538-4.26-9.974-0.89.217-1.7,1.175-2.36,2.611-0.14-.149-0.28-0.3-0.43-0.445-2.4-3.526-4.96-5.81-6.35-5.434a1.159,1.159,0,0,0-.77.8,12.491,12.491,0,0,0-8.44-.185,3.589,3.589,0,0,0-2.78-.908c-1.07.285-1.43,1.608-1.15,3.431a8.767,8.767,0,0,0-.72.749,13.435,13.435,0,0,0-2.4,4.343A4.094,4.094,0,0,0,1248.69,74c-1.73.046-.9,4.6,1.78,10.517a25.246,25.246,0,0,0,5.6,12.379,21.123,21.123,0,0,0,5.97,5,108.179,108.179,0,0,0,5.49,18.31l4.01,10.326a7.336,7.336,0,0,0-3.2.909c-9.48,7.361-14.4,21.136-12.16,32.99a28.2,28.2,0,0,0,1.51,5.232,37.559,37.559,0,0,0,.84,7.24c3.2,13.129,9.22,15.514,13.33,16.518a19.788,19.788,0,0,0-5.02,12.379,15.049,15.049,0,0,0,.3,3.09l-27.5-8.118a6.336,6.336,0,0,0-6.06-6.192h-4.54a37.57,37.57,0,0,1-.39-3.935,28.7,28.7,0,0,0,10.54-9.754,67.08,67.08,0,0,0,4.67-7.882c-0.87,2.968-1.91,5.9-1.91,5.9a43.869,43.869,0,0,0,2.41-4.7c-0.51,3.272-.18,2.974-1.3,5.828,4.43-4.753,6.54-6,8.14-12.713a11.226,11.226,0,0,0,.42-1.713,23.642,23.642,0,0,0,1.73-5.921c0.65-4.008.34-7.648-.66-9.674a76.458,76.458,0,0,0-.48-10.936c0.32-19.117-15.71-33.445-32.33-33.555-2.61-.019-4.14,1.875-6.58,2.61-1.65.5-4.26-.338-5.8,0.458-11.48,5.96-19.59,19.689-20.12,33.1a9.03,9.03,0,0,0-2.08-3.939,51.759,51.759,0,0,0-2.8-8.193c-3.33-12.65-16.85-19.452-30.08-18.369l-7.31-11.028a65.034,65.034,0,0,0-7.77-9.578L1141,79.13a1.644,1.644,0,0,0,.02-0.885c0.19-.629.38-1.271,0.55-1.935,2.06-7.856,2.16-15.087.24-16.15-1.25-.692-3.06,1.424-4.73,5.154-0.52-5.422-1.76-9.859-3.06-10.533-1.16-.6-2.04,1.889-2.34,5.959-0.6-6.083-1.71-10.7-2.84-11.278-1.39-.713-2.33,4.821-2.26,12.673-0.48-4.922-1.77-9.218-3.04-9.856-1.35-.677-2.16,3.105-1.79,8.454a35.324,35.324,0,0,0,1.38,7.817,1.523,1.523,0,0,0-.24.411,41.237,41.237,0,0,1-.61,7.766,19.769,19.769,0,0,1-1.9,4.694l-2.62-.073c-3.93-5.6-8.32-9.972-10.93-10.693,0.45-3.39.15-5.347-1.03-4.96-1.76.575-4.9,6.121-7.68,13.269l-1.79.088a36.089,36.089,0,0,1-1.29-5.78,88.058,88.058,0,0,1-.42-9.567,3.587,3.587,0,0,0-.16-0.55,73.81,73.81,0,0,0,.93-9.581c0.26-6.587-.29-11.247-1.21-10.41-0.87.784-1.76,6.079-2.08,12.134,0.05-9.671-.6-16.486-1.55-15.6-0.77.713-1.53,6.4-1.94,13.9-0.2-5.024-.81-8.091-1.6-7.357-0.89.832-1.74,6.3-2.09,12.978-1.15-4.6-2.38-7.206-3.24-6.35-1.31,1.309-1.23,10.216.17,19.89,0.12,0.818.25,1.608,0.37,2.383a3.931,3.931,0,0,0,.02,1.092l2.5,14.116a88.569,88.569,0,0,0-5.31,11.8l-0.87,2.365a31.832,31.832,0,0,0-7.17-5.171c-1.49-.772-4.01.04-5.6-0.443-2.35-.711-3.83-2.536-6.35-2.521-14.07.1-27.7,10.738-30.64,25.8a71.921,71.921,0,0,0-3.95-8.424l2.1-11.613a3.3,3.3,0,0,0,.01-0.893c0.11-.64.22-1.291,0.32-1.961,1.18-7.961,1.24-15.286.14-16.36-0.72-.7-1.76,1.439-2.72,5.22-0.3-5.492-1.01-9.987-1.76-10.673-0.66-.6-1.17,1.919-1.33,6.05-0.35-6.17-.98-10.848-1.64-11.435-0.79-.724-1.33,4.869-1.29,12.813-0.27-4.974-1.02-9.317-1.74-9.961-0.78-.686-1.24,3.144-1.02,8.563a57.889,57.889,0,0,0,.78,7.88,1.9,1.9,0,0,0-.14.453,70.069,70.069,0,0,1-.35,7.868,29.3,29.3,0,0,1-1.08,4.756l-1.51-.075c-2.33-5.878-4.96-10.439-6.43-10.914-1.83-.584-1.19,5.324,1.43,13.2a77.346,77.346,0,0,0,3.08,7.858,7.562,7.562,0,0,0,1.16,3.977c0.41,1.356.89,2.765,1.43,4.222,0,0,3.8,7.337,7.94,15.861-7.87-11.568-23.458-16.746-36.988-13.162-2.624.693-3.659,2.851-5.9,4.186-1.518.911-4.352,0.846-5.686,2a35.952,35.952,0,0,0-9.856,14.424,80.86,80.86,0,0,0-8.78-15.127,15.467,15.467,0,0,0,.076-7.453,21.84,21.84,0,0,0,.248-3.544c-0.052-4.688-1.562-8.129-3.354-7.693a3.312,3.312,0,0,0-1.862,2.013c-0.113-.114-0.221-0.232-0.331-0.344-1.892-2.721-3.915-4.485-5.008-4.193a0.906,0.906,0,0,0-.605.615,10.048,10.048,0,0,0-6.662-.14,2.875,2.875,0,0,0-2.181-.7c-0.831.222-1.106,1.239-.9,2.635-0.194.19-.389,0.378-0.577,0.593a10.179,10.179,0,0,0-1.882,3.349,3.282,3.282,0,0,0-1.919-1.134c-1.357.036-.711,3.549,1.4,8.115a19.372,19.372,0,0,0,4.409,9.549,16.808,16.808,0,0,0,4.7,3.859,82.985,82.985,0,0,0,4.326,14.122l18.185,45.834c-1.116.439-2.06,1.218-3.327,1.6-1.241.37-3.2-.251-4.358,0.337a25.59,25.59,0,0,0-6.987,5.35l-3.569-6.348a22.3,22.3,0,0,0,1.18-5.4c0.381-3.869-.151-7.323-1.255-9.192a72.514,72.514,0,0,0-1.163-10.41c-0.882-17.733-16.474-30.2-32.2-30.055l-4.314-6.186,1.011-15.168a23.007,23.007,0,0,0,1.706-5.6c0.971-5.434.144-10.179-1.835-10.6-0.738-.155-1.532.311-2.293,1.237a25.452,25.452,0,0,0-2-1.745c-1.074-2.294-2.337-3.923-3.361-4.118a1.19,1.19,0,0,0-1.3,1.088c-0.126-.067-0.252-0.139-0.383-0.207-0.57-.3-1.117-0.551-1.643-0.785-0.721-1.207-1.416-1.964-2-2.071-0.479-.09-0.821.281-1.023,1.007a0.793,0.793,0,0,0-.084-0.021c-0.125-.638-0.256-1.288-0.407-1.961-1.675-7.507-4.325-14.176-5.937-14.908-1.595-.726-1.531,4.767.144,12.269,0.461,2.058.993,4.045,1.561,5.874a2.407,2.407,0,0,0-.1.539,71.43,71.43,0,0,1,1.108,10.053c0.1,3.581-1.733,10.679-3.071,15.323a6.18,6.18,0,0,0-2.922-1.542c-2.459-.063.5,6.975,6.624,15.731,1.716,2.453,3.494,4.773,5.22,6.855-9.9,7.015-16.118,20.221-15.423,32.521a31.465,31.465,0,0,0,.895,5.869,40.993,40.993,0,0,0-.114,7.937,38.028,38.028,0,0,0,3.925,13.881,25.647,25.647,0,0,0-7.1-4.575c-0.5-1.236-.943-2.355-1.307-3.309-2.189-5.706-7.953-23.126-7.953-23.126a77.61,77.61,0,0,0-9.664-17.842,13.573,13.573,0,0,0,.07-6.563A19.341,19.341,0,0,0,859.66,149c-0.045-4.131-1.373-7.163-2.957-6.781A2.951,2.951,0,0,0,855.066,144a15.748,15.748,0,0,0-1.632-1.463,78.463,78.463,0,0,0-1.908-8.279c-2.243-7.82-5.06-13.661-6.3-13.041s-0.436,7.456,1.808,15.275q0.548,1.908,1.126,3.628a8.324,8.324,0,0,0-4.193.3,2.523,2.523,0,0,0-1.918-.619c-0.736.195-.98,1.092-0.79,2.321-0.171.166-.346,0.334-0.508,0.52a9.075,9.075,0,0,0-1.66,2.95,2.874,2.874,0,0,0-1.687-1c-1.2.031-.63,3.125,1.235,7.146a17,17,0,0,0,3.88,8.41,14.775,14.775,0,0,0,4.145,3.4c0.174,0.878.385,1.806,0.63,2.767a24.928,24.928,0,0,0-3.076-.225c-2.118-.016-3.357,1.489-5.327,2.076-1.339.394-3.455-.275-4.7,0.361a26.68,26.68,0,0,0-6.013,4.254l-0.726-1.945a73.093,73.093,0,0,0-4.461-9.7l2.1-11.614a3.145,3.145,0,0,0,.007-0.892c0.108-.639.214-1.29,0.317-1.964,1.181-7.958,1.241-15.279.144-16.358-0.72-.7-1.759,1.44-2.717,5.223-0.3-5.494-1.008-9.99-1.757-10.674-0.663-.6-1.174,1.917-1.339,6.046-0.35-6.169-.982-10.847-1.632-11.434-0.795-.722-1.335,4.87-1.295,12.814-0.274-4.974-1.017-9.317-1.744-9.96-0.776-.686-1.235,3.146-1.022,8.562a60.033,60.033,0,0,0,.784,7.881,2.059,2.059,0,0,0-.132.453,73.265,73.265,0,0,1-.35,7.869,30.453,30.453,0,0,1-1.086,4.753l-1.506-.073c-2.335-5.88-4.961-10.439-6.436-10.911-0.99-.321-1.249,1.29-0.863,4.077-2.194.6-5.879,4.19-9.174,8.8l-2.2.062a15.628,15.628,0,0,1-1.59-3.861,32.913,32.913,0,0,1-.515-6.389,1.307,1.307,0,0,0-.2-0.338,28.162,28.162,0,0,0,1.154-6.427c0.312-4.4-.36-7.512-1.494-6.952-1.067.522-2.156,4.056-2.55,8.1,0.06-6.456-.734-11.007-1.9-10.421-0.949.477-1.876,4.276-2.386,9.28-0.247-3.349-.986-5.394-1.956-4.907-1.1.555-2.14,4.207-2.571,8.661-1.409-3.067-2.923-4.8-3.973-4.235-1.607.876-1.518,6.82,0.206,13.282,0.147,0.545.3,1.073,0.461,1.591a1.412,1.412,0,0,0,.014.728l3.073,9.425a54.273,54.273,0,0,0-6.521,7.878l-6.123,9.069c-11.107-.891-22.441,4.7-25.242,15.108a41.911,41.911,0,0,0-2.343,6.737,7.411,7.411,0,0,0-1.753,3.242c-0.443-11.034-7.243-22.325-16.876-27.227-1.291-.658-3.487.034-4.868-0.377-2.041-.605-3.324-2.161-5.519-2.146a27.673,27.673,0,0,0-18.354,7.44c0.117-.521.226-1.035,0.325-1.536a18.154,18.154,0,0,0,5.1-4.185,21.014,21.014,0,0,0,4.786-10.368c2.292-4.952,3-8.766,1.519-8.808a3.581,3.581,0,0,0-2.08,1.231,11.117,11.117,0,0,0-2.045-3.634c-0.2-.228-0.407-0.428-0.615-0.63,0.243-1.527-.075-2.632-0.982-2.873a3.106,3.106,0,0,0-2.379.762,10.917,10.917,0,0,0-7.222.154,0.972,0.972,0,0,0-.655-0.668c-1.187-.314-3.38,1.6-5.434,4.552-0.123.121-.24,0.25-0.361,0.371a3.6,3.6,0,0,0-2.018-2.184c-1.951-.471-3.594,3.262-3.644,8.352a23.333,23.333,0,0,0,.27,3.846,16.736,16.736,0,0,0,.083,8.088A95.714,95.714,0,0,0,664,195.513l-2.708,6.821a23.951,23.951,0,0,0-13.723,17.243,53.641,53.641,0,0,0-1.971,7.816,11.643,11.643,0,0,0-1.878,6.171,25.991,25.991,0,0,0-7.971-6.454c-1.155-.588-3.114.03-4.353-0.338-1.823-.542-2.971-1.933-4.931-1.917-0.1,0-.192,0-0.289.006-0.056-1.818-.151-3.387-0.275-4.614a82.588,82.588,0,0,0,4.578-7.372c4.2-7.618,5.994-13.569,4-13.309a5.01,5.01,0,0,0-2.233,1.5c-1.487-3.649-3.593-9.243-3.821-12.155a57.373,57.373,0,0,1,.025-8.242,2.135,2.135,0,0,0-.127-0.43c0.3-1.528.559-3.186,0.752-4.892,0.708-6.224.28-10.677-.951-9.954s-2.807,6.358-3.515,12.586c-0.064.556-.114,1.093-0.161,1.622a0.64,0.64,0,0,1-.066.023c-0.225-.572-0.534-0.84-0.917-0.727a3.324,3.324,0,0,0-1.437,1.845c-0.408.234-.826,0.487-1.267,0.776-0.1.068-.193,0.134-0.29,0.2a0.976,0.976,0,0,0-1.152-.771c-0.814.243-1.7,1.67-2.368,3.626a20.266,20.266,0,0,0-1.468,1.578,2.067,2.067,0,0,0-1.967-.807c-1.124.363-1.572,2.486-1.271,5.251a30.112,30.112,0,0,0-17.7-6.492,68.5,68.5,0,0,0,3.281-11.593,52.574,52.574,0,0,0,5.172-9.54c2.9-6.75,3.971-12.241,2.406-12.267a2.9,2.9,0,0,0-1.7,1.137,7.077,7.077,0,0,0-1.022-1.666,6.153,6.153,0,0,0-2.746-1.893q0.311-1.26.6-2.606c1.811-8.411,2.282-15.931,1.055-16.807s-3.7,5.254-5.5,13.661c-0.425,1.968-.772,3.884-1.045,5.677a13.315,13.315,0,0,0-1.829.624c0.025-1.253.029-2.561,0-3.924-0.149-9.115-1.392-16.775-2.767-17.095-1.377-.336-2.365,6.795-2.209,15.911,0.053,2.866.209,5.584,0.442,7.978a22.257,22.257,0,0,0-2.273,2.248,0.152,0.152,0,0,0-.017.018,2.629,2.629,0,0,0-1.437-1.21c-1.853-.446-3.415,3.108-3.465,7.951-0.008.69,0.019,1.369,0.071,2.026a12.866,12.866,0,0,0,.11,8.4c-0.58,1.332-1.185,2.875-1.83,4.689-0.98,2.763-2.408,7.143-3.943,11.992l-1.739-13.45c-1.282-9.909-3.7-19.121-6.437-25.487a17.519,17.519,0,0,0,2.179-8.2,24.586,24.586,0,0,0,1.268-3.837c1.264-5.191.562-9.417-1.543-9.45a3.777,3.777,0,0,0-2.622,1.691c-0.09-.157-0.18-0.32-0.272-0.471-1.328-3.544-3.063-6.062-4.353-6.054a1.019,1.019,0,0,0-.838.508,11.511,11.511,0,0,0-7.312-2.057,3.279,3.279,0,0,0-2.22-1.4c-0.989.009-1.6,1.048-1.745,2.662-0.266.156-.531,0.3-0.789,0.481a11.591,11.591,0,0,0-3.022,3.157,3.754,3.754,0,0,0-1.8-1.791c-1.51-.35-1.782,3.712-0.731,9.35a22.116,22.116,0,0,0,2.188,11.8,19.178,19.178,0,0,0,4.111,5.6,78.112,78.112,0,0,0,.022,8.173,31.985,31.985,0,0,0-19.805-8.6c-2.548-.137-4.127,1.6-6.529,2.187-1.635.405-4.14-.521-5.682,0.17a31.169,31.169,0,0,0-4.438,2.473l-4.521-9.768,3-12.038a18.845,18.845,0,0,0,2.18-4.259c1.565-4.227,1.583-8.152.057-8.764a2.08,2.08,0,0,0-2.022.679,19.529,19.529,0,0,0-1.352-1.677c-0.528-1.993-1.312-3.477-2.105-3.773a0.98,0.98,0,0,0-1.2.692c-0.092-.072-0.184-0.147-0.277-0.22-0.417-.315-0.814-0.595-1.2-0.855a3.323,3.323,0,0,0-1.3-1.94c-0.373-.138-0.7.111-0.967,0.667-0.023-.012-0.045-0.022-0.066-0.031-0.007-.526-0.018-1.068-0.043-1.628-0.262-6.261-1.427-11.981-2.615-12.79s-1.918,3.614-1.654,9.87c0.073,1.714.215,3.387,0.4,4.93a2.16,2.16,0,0,0-.155.418,57.834,57.834,0,0,1-.565,8.227c-0.433,2.889-2.929,8.332-4.674,11.876a5.006,5.006,0,0,0-2.121-1.644c-1.968-.391-0.6,5.67,3.045,13.547a69.458,69.458,0,0,0,6.754,11.737c0.419,1.95.984,4.088,1.687,6.357a38.877,38.877,0,0,0-7,18.553c-0.16-.4-0.313-0.781-0.456-1.138-2.58-6.532-9.365-26.462-9.365-26.462q-0.993-2.429-2.072-4.74c-0.074-3.651-.5-11.024-2.711-12.738a8.063,8.063,0,0,0-5.272-1.172q-0.672-.932-1.334-1.765a15.149,15.149,0,0,0,.082-7.509,21.438,21.438,0,0,0,.258-3.569c-0.052-4.726-1.619-8.191-3.482-7.754a3.387,3.387,0,0,0-1.932,2.03,18.041,18.041,0,0,0-1.923-1.673,86.449,86.449,0,0,0-2.246-9.471c-2.642-8.946-5.963-15.633-7.427-14.922s-0.515,8.531,2.129,17.479c0.428,1.453.875,2.837,1.328,4.149a10.125,10.125,0,0,0-4.941.344,3.047,3.047,0,0,0-2.264-.708c-0.864.224-1.149,1.248-.928,2.656-0.2.191-.408,0.38-0.6,0.595a10.3,10.3,0,0,0-1.955,3.373,3.434,3.434,0,0,0-1.989-1.138c-1.411.036-.74,3.575,1.451,8.173A19.285,19.285,0,0,0,456,137.093a17.3,17.3,0,0,0,4.879,3.887q0.285,1.406.673,2.927a6.2,6.2,0,0,0-1.539,2.64c-0.475,1.974,2.335,5.289,5.074,7.97,0.093,0.228.185,0.46,0.28,0.69l17.3,42.352a42.147,42.147,0,0,0-9.887,3.944,57.106,57.106,0,0,0-.957-7.675c-0.88-15.069-14.256-25.451-27.275-24.607-2.047.131-3.132,1.707-4.991,2.423a0.888,0.888,0,0,1-.139.038l-1.2-3.429a90.142,90.142,0,0,0-4.971-11.628L435.6,142.7a3.944,3.944,0,0,0,.013-1.076c0.119-.763.238-1.538,0.349-2.346,1.317-9.539,1.383-18.318.159-19.608-0.8-.844-1.958,1.729-3.029,6.262-0.332-6.586-1.123-11.977-1.961-12.794-0.74-.725-1.307,2.3-1.494,7.242-0.388-7.386-1.1-13-1.821-13.7-0.886-.867-1.491,5.842-1.448,15.371-0.3-5.968-1.132-11.177-1.943-11.952-0.867-.823-1.38,3.77-1.14,10.266a77.208,77.208,0,0,0,.874,9.443,2.963,2.963,0,0,0-.149.544,93.467,93.467,0,0,1-.389,9.429,38.422,38.422,0,0,1-1.209,5.7l-1.682-.09c-2.6-7.046-5.539-12.511-7.182-13.08-2.039-.7-1.322,6.38,1.595,15.816a97.911,97.911,0,0,0,3.426,9.394,9.689,9.689,0,0,0,1.31,4.8q0.692,2.438,1.6,5.057s2.541,5.272,5.827,12.387a32.716,32.716,0,0,0-6.023,20.581,26.577,26.577,0,0,0,.764,4.842,34.852,34.852,0,0,0-.026,6.551c2,17.249,11.738,18.92,11.554,19.583,0.7-.374-1.314-4.42-3.546-9.093a49.576,49.576,0,0,0,4.891,7.347,22.77,22.77,0,0,0,8.829,7.093c0.022,1.023,0,2.074-.076,3.117l-3.5.251a4.971,4.971,0,0,0-4.377,5.2l-11.672,4.4-17.04-5.587c-0.184-3.106-2.308-5.56-4.907-5.56h-3.626c-0.161-1.174-.263-2.371-0.319-3.538a24.381,24.381,0,0,0,8.543-8.779,57.814,57.814,0,0,0,4.472-8.746c-1.937,5.49-3.7,10.258-2.951,10.626-0.241-.743,9.659-3.437,10.387-23.2a43.605,43.605,0,0,0-.531-7.442,33.251,33.251,0,0,0,.416-5.564c-0.108-12.361-6.794-25.22-16.334-30.72-1.249-.721-3.365.036-4.7-0.415-1.968-.662-3.207-2.363-5.325-2.346a21.683,21.683,0,0,0-3.316.289c3.88-8.48,7.106-15.172,7.106-15.172,0.609-1.745,1.135-3.432,1.6-5.052a9.683,9.683,0,0,0,1.31-4.8,98.634,98.634,0,0,0,3.426-9.392c2.918-9.437,3.632-16.516,1.6-15.819-1.644.568-4.578,6.036-7.184,13.082l-1.681.087a38.139,38.139,0,0,1-1.21-5.7,93.964,93.964,0,0,1-.39-9.427,2.708,2.708,0,0,0-.148-0.542,77.575,77.575,0,0,0,.874-9.45c0.239-6.491-.274-11.085-1.139-10.262-0.813.772-1.641,5.978-1.944,11.942,0.043-9.521-.562-16.227-1.448-15.363-0.725.7-1.432,6.31-1.821,13.7-0.187-4.946-.753-7.969-1.494-7.244-0.837.821-1.63,6.209-1.96,12.8-1.073-4.535-2.229-7.1-3.03-6.262-1.224,1.293-1.159,10.071.16,19.609,0.111,0.806.23,1.585,0.349,2.346a4,4,0,0,0,.012,1.077l2.344,13.919a90.8,90.8,0,0,0-4.972,11.625l-17.593,50.417a7.991,7.991,0,0,1-2.321.315c-1.976-.2-3.408-1.368-5.43-1a25.6,25.6,0,0,0-7.887,2.842l13.884-37.586a82.659,82.659,0,0,0,3.808-13.36,15.016,15.016,0,0,0,4.142-3.65,18.923,18.923,0,0,0,3.881-9.035c1.862-4.317,2.431-7.641,1.236-7.676a2.865,2.865,0,0,0-1.689,1.072,9.97,9.97,0,0,0-1.66-3.166c-0.162-.2-0.336-0.38-0.51-0.561,0.191-1.318-.053-2.283-0.787-2.491a2.4,2.4,0,0,0-1.92.665,7.807,7.807,0,0,0-4.194-.326c0.383-1.234.763-2.531,1.125-3.895,2.246-8.4,3.055-15.753,1.809-16.409s-4.061,5.611-6.3,14.008a88.171,88.171,0,0,0-1.907,8.895,15.725,15.725,0,0,0-1.634,1.566,3.064,3.064,0,0,0-1.639-1.9c-1.581-.411-2.911,2.845-2.953,7.281a21.973,21.973,0,0,0,.219,3.349,15.621,15.621,0,0,0,.068,7.051,85.47,85.47,0,0,0-9.666,19.166s-0.018.061-.047,0.15c-3-9.441-9.86-17.983-18.413-22.466a95.022,95.022,0,0,0,8.462-9.663c6.424-8.378,9.585-15.158,7.054-15.152-1.084,0-3.039,1.261-5.424,3.347-1.1-3.535-2.277-7.9-2.308-10.546a53.009,53.009,0,0,0,2.272-6.287c1.845-6.275,2-10.89.347-10.31-1.035.361-2.526,2.657-3.946,5.852-0.1-.007-0.2,0-0.305,0-0.021-1.494-.427-2.364-1.217-2.257-0.82.1-1.893,1.251-2.957,2.992-0.339.1-.686,0.213-1.045,0.337-0.13-1.2-.641-1.892-1.5-1.776-1.2.164-2.746,1.872-3.972,4.2-0.5.275-.981,0.556-1.438,0.842a2.994,2.994,0,0,0-2.529-1.307c-1.56.242-2.466,2.629-2.4,5.794a2.361,2.361,0,0,0-.3,1.172l1.292,20.815-6.584,8.6c-0.113.123-.223,0.239-0.338,0.367-15.572,2.424-28.845,17.33-26.632,35a43.977,43.977,0,0,0,.142,5.044l-6.413,10.366a40,40,0,0,0-6.08-9.583l9.756-24.592a93.51,93.51,0,0,0,4.9-15.99,19.007,19.007,0,0,0,5.324-4.367,21.941,21.941,0,0,0,4.993-10.815c2.39-5.17,3.123-9.148,1.584-9.191a3.744,3.744,0,0,0-2.17,1.282,11.605,11.605,0,0,0-2.134-3.79c-0.2-.238-0.423-0.445-0.643-0.66,0.253-1.591-.076-2.744-1.024-3a3.24,3.24,0,0,0-2.481.792,11.368,11.368,0,0,0-7.535.163,1.013,1.013,0,0,0-.684-0.695c-1.237-.332-3.524,1.665-5.67,4.747-0.125.126-.249,0.26-0.374,0.388a3.781,3.781,0,0,0-2.109-2.283c-2.033-.489-3.744,3.409-3.8,8.718a24.4,24.4,0,0,0,.281,4.011,17.447,17.447,0,0,0,.089,8.438c-4.193,5.455-8.771,13.721-12.429,22.944l-5.36,13.509a5.939,5.939,0,0,0-2.772-.721,30.579,30.579,0,0,0-10.623,2.016,62.5,62.5,0,0,0,2.3-8.818,52.328,52.328,0,0,0,5.172-9.54c2.9-6.751,3.972-12.243,2.407-12.269a2.905,2.905,0,0,0-1.7,1.141,7.293,7.293,0,0,0-1.02-1.671,6.18,6.18,0,0,0-2.748-1.893c0.205-.841.408-1.706,0.6-2.6,1.81-8.412,2.281-15.933,1.052-16.807s-3.694,5.252-5.5,13.665c-0.424,1.966-.77,3.88-1.043,5.677a12.414,12.414,0,0,0-1.829.621c0.023-1.256.028-2.565,0-3.924-0.15-9.115-1.4-16.777-2.771-17.1-1.375-.334-2.362,6.8-2.207,15.914,0.053,2.864.21,5.581,0.443,7.976a22.129,22.129,0,0,0-2.274,2.245,0.092,0.092,0,0,1-.017.022,2.615,2.615,0,0,0-1.437-1.21c-1.855-.447-3.414,3.107-3.467,7.95-0.006.69,0.022,1.365,0.072,2.026a12.887,12.887,0,0,0,.109,8.4c-0.578,1.329-1.185,2.875-1.828,4.689-2.109,5.942-6.276,19.373-9.171,28.835v22.4l-20.26-5.988a6.226,6.226,0,0,0-5.946-6.084h-4.46c-0.195-1.28-.317-2.586-0.385-3.862a28.238,28.238,0,0,0,10.35-9.581,66.311,66.311,0,0,0,4.578-7.74c-0.852,2.914-1.874,5.79-1.874,5.79a42.956,42.956,0,0,0,2.371-4.612c-0.5,3.214-.182,2.922-1.283,5.727,4.346-4.671,6.42-5.893,7.986-12.486a10.513,10.513,0,0,0,.415-1.683,23.167,23.167,0,0,0,1.7-5.813c0.639-3.94.333-7.515-.645-9.5a75.7,75.7,0,0,0-.472-10.742c0.31-18.773-15.409-32.844-31.725-32.954-2.565-.018-4.064,1.839-6.45,2.562-1.622.492-4.186-.336-5.7,0.451-11.263,5.851-19.22,19.34-19.739,32.513a8.908,8.908,0,0,0-2.045-3.872,50.958,50.958,0,0,0-2.745-8.046c-3.272-12.422-16.531-19.1-29.522-18.041L96.287,107.3a64.326,64.326,0,0,0-7.625-9.405l3.591-11.257a1.721,1.721,0,0,0,.018-0.87c0.188-.62.368-1.249,0.54-1.9,2.019-7.714,2.118-14.816.24-15.859-1.228-.683-3,1.4-4.645,5.061C87.9,67.738,86.684,63.381,85.4,62.719c-1.136-.585-2,1.854-2.292,5.851C82.513,62.6,81.427,58.064,80.316,57.5c-1.359-.7-2.286,4.726-2.221,12.436-0.459-4.829-1.734-9.046-2.981-9.672-1.324-.666-2.111,3.05-1.748,8.3a34.218,34.218,0,0,0,1.351,7.676,1.5,1.5,0,0,0-.237.4,40.079,40.079,0,0,1-.6,7.631,19.142,19.142,0,0,1-1.856,4.611l-2.575-.073c-3.854-5.5-8.168-9.792-10.731-10.5,0.45-3.331.148-5.251-1.009-4.871-1.723.564-4.8,6.008-7.53,13.03l-1.761.09a36.439,36.439,0,0,1-1.27-5.681,88.321,88.321,0,0,1-.407-9.4,2.739,2.739,0,0,0-.156-0.54,73.7,73.7,0,0,0,.915-9.41c0.251-6.47-.288-11.047-1.2-10.227-0.849.769-1.718,5.955-2.033,11.893,0.043-9.484-.59-16.164-1.518-15.3-0.761.7-1.5,6.291-1.911,13.657-0.2-4.932-.791-7.944-1.565-7.223-0.878.819-1.707,6.188-2.054,12.751C36.1,62.564,34.887,60,34.046,60.84c-1.284,1.286-1.213,10.031.166,19.536,0.117,0.806.242,1.583,0.37,2.346a3.755,3.755,0,0,0,.01,1.065l2.456,13.868a87.68,87.68,0,0,0-5.21,11.585l-0.852,2.322a31.287,31.287,0,0,0-7.034-5.081c-1.459-.754-3.936.04-5.5-0.433-2.3-.7-3.75-2.494-6.228-2.476-11.843.081-23.358,7.78-28.222,19.3v43.671c1.38,2.94,3.258,4.468,6.262,7.7-1.063-2.705-.752-2.424-1.24-5.529a41.174,41.174,0,0,0,2.289,4.453s-0.987-2.78-1.812-5.593a63.909,63.909,0,0,0,4.424,7.475A27.27,27.27,0,0,0,3.916,184.3c-0.069,1.232-.184,2.49-0.372,3.729H-0.763A6.012,6.012,0,0,0-6.506,193.9l-9.494,2.8V299.6H94.861a309.542,309.542,0,0,1,3.709-34.939c2.109,11.665,3.865,24.675,3.692,34.939h104.3a288.258,288.258,0,0,1,2.744-33.486V299.6h73.53c0.662-4.934,1.4-9.811,2.16-14.483h2.1c1.045,4.953,1.95,9.834,2.646,14.483H422.313c0.375-4.766.872-9.644,1.44-14.483h0.5c0.944,4.914,1.77,9.813,2.384,14.483H768.291c0.563-4.475,1.3-9.019,2.1-13.345,0.7,4.382,1.328,8.884,1.853,13.345H1143.57c0.16-11.911,1.81-26.022,3.87-39.2,2.4,13.3,4.37,28.325,3.62,39.2h106.43c-0.18-12.058,1.28-26.879,3.24-40.986,2.6,12.868,5.12,29.712,2.86,38.524l-0.61,1.988-0.15.474H1416V33.406A15.992,15.992,0,0,0,1414.14,34.471ZM1018.73,90.685c0.01-.309.03-0.627,0.04-0.96,0.01,0.329.01,0.658,0.03,0.982A0.527,0.527,0,0,0,1018.73,90.685Zm-592.3,38.3c0.018-.367.03-0.749,0.04-1.152,0.012,0.4.022,0.793,0.035,1.182C426.478,129,426.451,128.988,426.426,128.98ZM391,103.939c0.009,0.4.024,0.782,0.038,1.15-0.026.007-.05,0.021-0.074,0.03C390.976,104.733,390.986,104.333,391,103.939ZM78.247,74.587c0.019,0.33.037,0.659,0.057,0.984a1.116,1.116,0,0,1-.119-0.023C78.211,75.243,78.234,74.926,78.247,74.587ZM44.166,68.968c0.009,0.4.023,0.776,0.04,1.143-0.025.008-.052,0.021-0.077,0.028C44.143,69.755,44.154,69.36,44.166,68.968ZM29.626,193.886a6.012,6.012,0,0,0-5.743-5.858H19.643c-0.08-.522-0.14-1.05-0.2-1.58q0.911-1.566,1.811-3.321a25.44,25.44,0,0,0,3.581-2.838c2.637,10.717,8.887,14.174,11.06,15.453Zm7.235,2.138c0.209-1.258-1.753-5.761-3.883-10.867a57.906,57.906,0,0,0,5.581,9.221,32.885,32.885,0,0,0,2.283,2.823ZM50.1,125.378c-1.671.473-4.312-.322-5.87,0.436a32.041,32.041,0,0,0-3.137,1.782c-0.15-.449-0.3-0.9-0.47-1.342,4.634-9.718,8.775-17.881,8.775-17.881,0.638-1.738,1.19-3.419,1.675-5.038a9.27,9.27,0,0,0,1.361-4.753,94.5,94.5,0,0,0,3.6-9.386c0.587-1.8,1.086-3.52,1.5-5.114a42.285,42.285,0,0,0,3.349,6.943,62.541,62.541,0,0,0,5.253,7.6c-0.193.965,0.571,2.364,2.009,3.878,0.707,1.313,1.516,2.678,2.451,4.089,0,0,8.166,8.937,16.149,18.409a31.209,31.209,0,0,0-6.457,7.811,34.217,34.217,0,0,0-23.543-9.91C54.1,122.888,52.556,124.681,50.1,125.378Zm55.393,63.4a5.394,5.394,0,0,0-3.954,6.106L77.109,208.96s1.145,1.932,3,5.209l-3.38-.934a6.213,6.213,0,0,0-6.124-5.872H66a37.305,37.305,0,0,1-.4-3.733,28.551,28.551,0,0,0,10.666-9.252,63.766,63.766,0,0,0,4.719-7.477c-0.881,2.812-1.934,5.594-1.934,5.594a40.1,40.1,0,0,0,2.444-4.453c-0.521,3.1-.189,2.822-1.323,5.528,4.481-4.508,6.617-5.687,8.229-12.057a9.3,9.3,0,0,0,.427-1.623c0.112-.228.213-0.479,0.317-0.722,3.963,2.5,7.342,2.432,7.293,2.808,0.729-.535-2.307-3.945-5.706-7.906a46.871,46.871,0,0,0,6.916,5.882A25.9,25.9,0,0,0,105.7,183.9a22,22,0,0,0-.282,3.166C105.409,187.64,105.45,188.207,105.491,188.774Zm202.093,31.295-4.411.46a6.086,6.086,0,0,0-5.24,6.5l-18.4,7.468-7.249-3.974c2.193-3.623,4.058-8.932,4.384-16.77,0.029-.69.026-1.374,0-2.057l7.767-12.555c1.9,3.878,4.079,5.131,8.05,8.509-1.382-2.6-1.032-2.352-1.87-5.411a41.2,41.2,0,0,0,2.829,4.224s-1.312-2.683-2.461-5.416a64.755,64.755,0,0,0,5.34,7.024,28.073,28.073,0,0,0,11.235,8.218A37.78,37.78,0,0,1,307.584,220.069Zm245.07,24.816L545.2,242.34a6.555,6.555,0,0,0-1.233-3.727c-0.553-2.111-1.235-4.377-2.064-6.749l-1.166-3.348a31,31,0,0,0,4.964-5.194,64.391,64.391,0,0,0,4.921-7.315c-0.987,2.8-2.142,5.547-2.142,5.547a41.261,41.261,0,0,0,2.578-4.371c-0.658,3.1-.321,2.83-1.551,5.5,3.741-3.569,5.839-4.948,7.508-8.864l0.014,0.12a27.127,27.127,0,0,0-.494,4.728,24.325,24.325,0,0,0,.385,4.544,31.521,31.521,0,0,0-.491,6.08,34.817,34.817,0,0,0,.819,6.359Zm149.283,1.966h-3.812a5.269,5.269,0,0,0-5.085,5.1l-3.89,1.123c2.078-1.977,4.06-5.223,5.434-10.745a24.988,24.988,0,0,0,.626-4.409,22.992,22.992,0,0,0,7.056,5.7C702.205,244.686,702.1,245.78,701.937,246.851ZM816.9,137.11c0.011,0.329.02,0.659,0.031,0.985-0.02-.008-0.045-0.018-0.065-0.028C816.883,137.761,816.9,137.443,816.9,137.11Zm-29.135,4.7c0.009,0.283.03,0.553,0.051,0.813-0.036,0-.069.012-0.1,0.018C787.735,142.367,787.749,142.085,787.767,141.81ZM798.233,253h-3.928a5.262,5.262,0,0,0-5.236,4.917l-2.89.786c1.582-2.749,2.56-4.367,2.56-4.367l-20.883-11.79a4.518,4.518,0,0,0-3.382-5.112c0.035-.475.071-0.949,0.064-1.434a19.026,19.026,0,0,0-.242-2.651,22.414,22.414,0,0,0,6.88-3.3,39.9,39.9,0,0,0,5.909-4.926c-2.905,3.316-5.5,6.173-4.877,6.622-0.04-.315,2.849-0.259,6.235-2.352,0.088,0.2.178,0.413,0.27,0.6a7.515,7.515,0,0,0,.368,1.361c1.378,5.333,3.2,6.32,7.032,10.095-0.968-2.266-.685-2.029-1.13-4.629a33.2,33.2,0,0,0,2.089,3.729s-0.9-2.327-1.654-4.684a52.66,52.66,0,0,0,4.038,6.261,24.261,24.261,0,0,0,9.116,7.748A29.83,29.83,0,0,1,798.233,253Zm18.616-68.286c-1.33-.636-3.591.031-5.017-0.364-2.1-.588-3.422-2.088-5.684-2.074a29.533,29.533,0,0,0-20.127,8.3,26.217,26.217,0,0,0-5.522-6.54c6.827-7.931,13.809-15.418,13.809-15.418,0.8-1.181,1.49-2.322,2.1-3.424,1.226-1.268,1.878-2.436,1.715-3.246a53.213,53.213,0,0,0,4.49-6.363,35.264,35.264,0,0,0,2.862-5.816c0.354,1.337.782,2.773,1.282,4.284a78.435,78.435,0,0,0,3.081,7.858,7.593,7.593,0,0,0,1.166,3.98q0.612,2.034,1.431,4.218s3.539,6.837,7.5,14.975c-0.145.372-.274,0.745-0.4,1.124A27.307,27.307,0,0,0,816.849,184.714Zm2.895,59.779a27.729,27.729,0,0,0,1.956-2.366,48.959,48.959,0,0,0,4.771-7.72c-1.825,4.272-3.5,8.045-3.323,9.1Zm18.126-7.682h-3.628a5.088,5.088,0,0,0-4.91,4.906l-5.36,1.553c1.856-1.072,7.2-3.964,9.454-12.94a21.921,21.921,0,0,0,3.06,2.377q0.766,1.466,1.553,2.782C837.989,235.929,837.94,236.372,837.87,236.811Zm70.175-9.022-4.36.276a6.108,6.108,0,0,0-5.506,6.277l-3.868,1.394a6.9,6.9,0,0,0-.6-2.026,55.094,55.094,0,0,0-.356-8.043,23.4,23.4,0,0,0-2.838-11.6c2.832,2.425,5.178,3.046,5.073,3.4,0.876-.449-1.582-5.365-4.3-11.043a59.159,59.159,0,0,0,5.992,8.934,28.008,28.008,0,0,0,10.887,8.657C908.19,225.254,908.151,226.529,908.045,227.789ZM1028.79,154.4c0.02,0.114.04,0.217,0.06,0.323-0.06-.212-0.12-0.422-0.18-0.628C1028.71,154.192,1028.75,154.3,1028.79,154.4Zm-1.57-5.175c0.08,0.422.17,0.84,0.26,1.243-0.42-1.185-.82-2.17-1.16-2.889-0.09-.323-0.18-0.637-0.28-0.955C1026.44,147.5,1026.84,148.366,1027.22,149.222Zm23.38,33.147h-4.39a6.127,6.127,0,0,0-5.86,5.979l-17.96,5.3a32.3,32.3,0,0,0,1.81-4.006,61.449,61.449,0,0,0,2.61-8.532c-0.09,2.972-.37,5.956-0.37,5.956a39.31,39.31,0,0,0,1.19-4.983c0.34,3.155.59,2.792,0.21,5.726,1.33-2.326,2.42-3.981,3.22-5.6V161.248c1.37,2.523,3.21,4.081,6,7.08-1.08-2.756-.77-2.468-1.27-5.628a42.4,42.4,0,0,0,2.34,4.533s-1.01-2.831-1.85-5.694a65.316,65.316,0,0,0,4.51,7.61,27.782,27.782,0,0,0,10.19,9.424C1050.9,179.825,1050.79,181.107,1050.6,182.369Zm76.13-115.507c0.02,0.337.03,0.674,0.06,1-0.04-.007-0.08-0.015-0.13-0.021C1126.69,67.531,1126.72,67.207,1126.73,66.862ZM1092,61.129c0.01,0.411.02,0.8,0.04,1.18a0.789,0.789,0,0,0-.08.029C1091.97,61.939,1091.98,61.532,1092,61.129Zm-14.82,127.207a6.136,6.136,0,0,0-5.86-5.967H1067c-0.08-.533-0.14-1.072-0.2-1.611,0.62-1.062,1.24-2.191,1.85-3.38a26.21,26.21,0,0,0,3.65-2.888c2.69,10.915,9.06,14.431,11.27,15.734Zm7.37,2.175c0.21-1.284-1.79-5.869-3.96-11.066a58.448,58.448,0,0,0,5.69,9.388,33.413,33.413,0,0,0,2.33,2.875Zm13.49-71.93c-1.7.482-4.39-.33-5.98,0.441a33.7,33.7,0,0,0-3.2,1.815q-0.225-.689-0.48-1.367c4.73-9.893,8.94-18.207,8.94-18.207q0.975-2.652,1.71-5.124a9.456,9.456,0,0,0,1.4-4.874,96.276,96.276,0,0,0,3.66-9.525c0.6-1.839,1.11-3.584,1.53-5.2a42.944,42.944,0,0,0,3.41,7.066,63.544,63.544,0,0,0,5.35,7.737c-0.19.987,0.59,2.407,2.05,3.95q1.08,2.007,2.5,4.161s8.32,9.1,16.46,18.747a31.625,31.625,0,0,0-6.58,7.95,34.882,34.882,0,0,0-24-10.087C1102.12,116.043,1100.54,117.87,1098.04,118.581Zm56.45,64.546a5.492,5.492,0,0,0-4.03,6.219l-24.9,14.332s1.18,1.967,3.06,5.309l-3.44-.954a6.339,6.339,0,0,0-6.25-5.979h-4.68a38.152,38.152,0,0,1-.41-3.8,29.14,29.14,0,0,0,10.88-9.422,64.934,64.934,0,0,0,4.8-7.614c-0.9,2.867-1.97,5.7-1.97,5.7a40.694,40.694,0,0,0,2.49-4.533c-0.53,3.16-.19,2.873-1.35,5.628,4.57-4.59,6.75-5.792,8.39-12.276a9.323,9.323,0,0,0,.44-1.652c0.11-.231.21-0.488,0.32-0.736,4.04,2.548,7.48,2.478,7.43,2.861,0.75-.545-2.35-4.019-5.81-8.053a47.878,47.878,0,0,0,7.04,5.99,26.422,26.422,0,0,0,8.2,4.015,23.431,23.431,0,0,0-.28,3.227C1154.41,181.973,1154.45,182.548,1154.49,183.127Zm33.22-33.239v0Z"/>
</svg>
