<svg id="グループ_2" data-name="グループ 2" xmlns="http://www.w3.org/2000/svg" width="380" height="60" viewBox="0 0 380 60">
  <metadata><?xpacket begin="﻿" id="W5M0MpCehiHzreSzNTczkc9d"?>
<x:xmpmeta xmlns:x="adobe:ns:meta/" x:xmptk="Adobe XMP Core 5.6-c138 79.159824, 2016/09/14-01:09:01        ">
   <rdf:RDF xmlns:rdf="http://www.w3.org/1999/02/22-rdf-syntax-ns#">
      <rdf:Description rdf:about=""/>
   </rdf:RDF>
</x:xmpmeta>
                                                                                                    
                                                                                                    
                                                                                                    
                                                                                                    
                                                                                                    
                                                                                                    
                                                                                                    
                                                                                                    
                                                                                                    
                                                                                                    
                                                                                                    
                                                                                                    
                                                                                                    
                                                                                                    
                                                                                                    
                                                                                                    
                                                                                                    
                                                                                                    
                                                                                                    
                                                                                                    
                           
<?xpacket end="w"?></metadata>
<defs>
    <style>
      .cls-1, .cls-3 {
        fill: #3f5996;
      }

      .cls-2, .cls-4 {
        fill: #fff;
      }

      .cls-3, .cls-4 {
        fill-rule: evenodd;
      }
    </style>
  </defs>
  <rect id="角丸長方形_1" data-name="角丸長方形 1" class="cls-1" x="1" y="1" width="378" height="58" rx="4" ry="4"/>
  <rect id="角丸長方形_2" data-name="角丸長方形 2" class="cls-2" x="30" y="17" width="26" height="26" rx="4" ry="4"/>
  <path id="シェイプ_2" data-name="シェイプ 2" class="cls-3" d="M46.685,21.355A7.383,7.383,0,0,1,48.979,21H53q0,1.843,0,3.687H51.332a7.291,7.291,0,0,0-1.265.056,1.1,1.1,0,0,0-.633.315,1.148,1.148,0,0,0-.233.669c-0.026.336-.015,0.672-0.017,1.008,0,0.519-.008,1.038,0,1.557,1.173,0,2.346,0,3.52,0q-0.21,1.851-.421,3.7h-3.1q0,5.5,0,11H44.006q0-5.5,0-11H42q0-1.852,0-3.7h2.006q0-1.223,0-2.445a6.827,6.827,0,0,1,.335-2.192,3.7,3.7,0,0,1,.863-1.4A3.844,3.844,0,0,1,46.685,21.355Z"/>
  <path id="Facebookアカウントで登録" class="cls-4" d="M73.676,31.022h3.853a17.578,17.578,0,0,1,2.449.126V28.754a17.749,17.749,0,0,1-2.449.126H73.676V25.062h4.79a17.192,17.192,0,0,1,2.467.126V22.758a18.409,18.409,0,0,1-2.467.126H73.424c-1.1,0-1.549-.018-2.287-0.054a15.552,15.552,0,0,1,.144,2.341v9.489a15.183,15.183,0,0,1-.144,2.557H73.82a15.521,15.521,0,0,1-.144-2.593v-3.6Zm15.733,6.194h2.431a14.486,14.486,0,0,1-.144-2.251V30.122a3.024,3.024,0,0,0-.846-2.485c-0.774-.756-1.819-1.062-3.547-1.062a5.391,5.391,0,0,0-3.439.918,3.762,3.762,0,0,0-1.422,2l2.3,0.414a1.962,1.962,0,0,1,.72-1.152,3.249,3.249,0,0,1,1.873-.522c1.368,0,2.071.54,2.071,1.584v0.918a13.622,13.622,0,0,0-5.078.72A3.194,3.194,0,0,0,82.3,34.371c0,1.891,1.332,3.025,3.529,3.025A6.373,6.373,0,0,0,87.5,37.18a3.9,3.9,0,0,0,1.908-1.134v1.17Zm0-4.015a2.145,2.145,0,0,1-.648,1.584,3.656,3.656,0,0,1-2.5.954,1.41,1.41,0,0,1-1.639-1.368c0-1.4,1.35-2,4.789-2.071v0.9Zm13.95-3.385a5.994,5.994,0,0,0-.63-1.314A4.657,4.657,0,0,0,98.7,26.557a4.93,4.93,0,0,0-3.619,1.368,5.822,5.822,0,0,0-1.531,4.159c0,3.331,2.053,5.474,5.222,5.474a4.679,4.679,0,0,0,3.961-1.819,5.041,5.041,0,0,0,.756-1.53l-2.232-.45a2.517,2.517,0,0,1-.36.9,2.412,2.412,0,0,1-2.071,1.008c-1.819,0-2.935-1.386-2.935-3.637,0-2.233,1.1-3.619,2.863-3.619a2.264,2.264,0,0,1,1.854.828,3.226,3.226,0,0,1,.559,1.1Zm11.556,2.827c-0.036-.414-0.036-0.468-0.036-0.5a7.4,7.4,0,0,0-.522-2.737,4.574,4.574,0,0,0-4.483-2.845c-3.079,0-5.078,2.179-5.078,5.51,0,3.367,2.017,5.492,5.2,5.492a5.114,5.114,0,0,0,3.709-1.386,5.062,5.062,0,0,0,1.1-1.656l-2.124-.684a2.616,2.616,0,0,1-.522.936,3.03,3.03,0,0,1-4.412-.108,3.347,3.347,0,0,1-.666-2.017h7.832Zm-7.778-1.782a2.7,2.7,0,0,1,2.7-2.449,2.566,2.566,0,0,1,1.944.72,2.821,2.821,0,0,1,.793,1.729h-5.438Zm11.952,6.356V36.334c0-.216,0-0.414-0.018-0.648a3.917,3.917,0,0,0,3.583,1.782,4.615,4.615,0,0,0,3.457-1.3,5.888,5.888,0,0,0,1.477-4.213c0-3.349-1.783-5.312-4.808-5.312a4.2,4.2,0,0,0-3.709,1.819c0.018-.612.036-1.062,0.036-1.35v-1.8a18.356,18.356,0,0,1,.126-2.431h-2.539a21,21,0,0,1,.126,2.413v9.489a18.908,18.908,0,0,1-.126,2.431h2.395Zm6.158-5.258c0,2.179-1.17,3.583-2.989,3.583a3.141,3.141,0,0,1-1.891-.666,3.756,3.756,0,0,1-1.188-2.845,3.878,3.878,0,0,1,.882-2.5,3.215,3.215,0,0,1,2.449-.99C124.167,28.538,125.247,29.888,125.247,31.959Zm9.107,5.6c3.2,0,5.311-2.2,5.311-5.528s-2.07-5.456-5.329-5.456c-3.277,0-5.366,2.143-5.366,5.492C128.97,35.434,131.059,37.558,134.354,37.558Zm-0.018-9.111c1.908,0,3.007,1.332,3.007,3.655,0,2.2-1.153,3.547-3.025,3.547s-3.025-1.368-3.025-3.583C131.293,29.816,132.445,28.447,134.336,28.447Zm12.078,9.111c3.205,0,5.311-2.2,5.311-5.528s-2.07-5.456-5.329-5.456c-3.277,0-5.366,2.143-5.366,5.492C141.03,35.434,143.119,37.558,146.414,37.558ZM146.4,28.447c1.908,0,3.007,1.332,3.007,3.655,0,2.2-1.153,3.547-3.025,3.547s-3.025-1.368-3.025-3.583C143.353,29.816,144.505,28.447,146.4,28.447Zm7.162-5.564a16.518,16.518,0,0,1,.126,2.359v9.633a17.62,17.62,0,0,1-.126,2.341H156.1a13.04,13.04,0,0,1-.126-2.3v-1.17l1.476-1.4,1.945,2.845a8.671,8.671,0,0,1,1.188,2.035h3.2a13.8,13.8,0,0,1-1.638-2.089L159.1,30.968l2.557-2.431c0.774-.738.774-0.738,1.8-1.657h-3.367a8.291,8.291,0,0,1-1.422,1.6l-2.7,2.683V25.243a16.854,16.854,0,0,1,.126-2.359h-2.539Zm26.23,0.342a4.955,4.955,0,0,1-1.746.162h-9.4a14.363,14.363,0,0,1-2.485-.144v2.251a17.308,17.308,0,0,1,2.449-.108h9.453a7.454,7.454,0,0,1-1.711,2.287,8.346,8.346,0,0,1-2.628,1.656,6.085,6.085,0,0,1,1.62,1.639,11.3,11.3,0,0,0,2.161-1.494,11.444,11.444,0,0,0,2.773-3.619,5,5,0,0,1,.72-1.26Zm-8.552,3.637a4.56,4.56,0,0,1,.09,1.08c0,3.4-.576,4.951-2.413,6.41a8.3,8.3,0,0,1-3.151,1.53,6.374,6.374,0,0,1,1.423,2.053A10.4,10.4,0,0,0,171.83,34.7c1.224-1.567,1.71-3.3,1.783-6.374a8.268,8.268,0,0,1,.072-1.458h-2.449Zm25.778-1.4a3.632,3.632,0,0,1-1.422.162l-4,.018c0.054-.576.054-0.738,0.072-1.134,0.036-.936.036-0.936,0.072-1.314,0-.126.018-0.234,0.018-0.342a5.241,5.241,0,0,1,.072-0.558l-2.413-.054a3.5,3.5,0,0,1,.054.7v0.45c0,0.522-.036,1.567-0.09,2.251l-3.151.018a10.337,10.337,0,0,1-2-.144l0.018,2.215a12.8,12.8,0,0,1,1.945-.09l2.989-.018c-0.018.126-.054,0.306-0.09,0.558a9.22,9.22,0,0,1-.919,3.133,10.135,10.135,0,0,1-4.681,4.537,7.118,7.118,0,0,1,1.621,1.908,13.206,13.206,0,0,0,4.861-4.987,13.184,13.184,0,0,0,1.44-5.15l4.2-.018a40.432,40.432,0,0,1-.4,5.762c-0.288,1.566-.559,1.963-1.333,1.963a9.343,9.343,0,0,1-2.377-.414,5.427,5.427,0,0,1,.415,2.3,13.728,13.728,0,0,0,2.232.2c2.161,0,2.791-.738,3.259-3.853,0.18-1.188.378-3.961,0.432-6a2.814,2.814,0,0,1,.2-1.206Zm18.234-.486a4.19,4.19,0,0,1-1.764.144h-3.241V23.568a8.237,8.237,0,0,1,.09-1.3h-2.5a6.939,6.939,0,0,1,.09,1.314v1.549h-3.529a14.008,14.008,0,0,1-1.945-.09,14.767,14.767,0,0,1,.072,1.71v2.611a13.4,13.4,0,0,1-.09,1.512h2.413c-0.036-.4-0.054-0.882-0.054-1.44V27.115h8.787a8.9,8.9,0,0,1-4.322,7.22,11.834,11.834,0,0,1-3.835,1.495,6.586,6.586,0,0,1,1.441,2.143,16.35,16.35,0,0,0,3.583-1.62,10.544,10.544,0,0,0,4.447-4.969,15.116,15.116,0,0,0,1.134-4.357,2.843,2.843,0,0,1,.271-0.99Zm5.09,0.468A18.907,18.907,0,0,1,224.93,29.1l1.548-1.963a25.5,25.5,0,0,0-4.645-3.475Zm0.631,11.884a6.37,6.37,0,0,1,1.188-.306,19.45,19.45,0,0,0,6.86-2.7,15.8,15.8,0,0,0,5.708-7.058,7.75,7.75,0,0,1-1.909-1.765,15.036,15.036,0,0,1-1.836,3.6,12.032,12.032,0,0,1-5.348,4.411,17.161,17.161,0,0,1-5.33,1.332ZM243.38,37.81a19.8,19.8,0,0,1-.072-2V31.058a9.311,9.311,0,0,0-.072-1.224,5.829,5.829,0,0,0,.612.306,42.624,42.624,0,0,1,6.374,3.439l1.26-2.125a52.9,52.9,0,0,0-8.174-3.8V24.306a12.075,12.075,0,0,1,.072-1.891h-2.467a11.578,11.578,0,0,1,.108,1.837V35.794a12.132,12.132,0,0,1-.108,2.017h2.467ZM255.6,26.791a26.143,26.143,0,0,1,2.989-.36c3.907-.288,4.609-0.36,6.068-0.576a7.954,7.954,0,0,0-2.5,1.819,6.271,6.271,0,0,0-1.71,4.231,4.818,4.818,0,0,0,2.574,4.339,10.836,10.836,0,0,0,4.214,1.188c0.306,0.054.4,0.054,0.612,0.108l0.324-2.449c-0.18.018-.342,0.018-0.36,0.018a10.926,10.926,0,0,1-2.683-.468,3.024,3.024,0,0,1-2.395-2.935c0-1.819,1.351-3.619,3.637-4.807a8.055,8.055,0,0,1,3.565-.972,2.809,2.809,0,0,1,.379.018l-0.127-2.287a13.267,13.267,0,0,1-2.07.162c-4.988.234-7.977,0.4-8.985,0.45-2.647.18-2.647,0.18-2.971,0.18-0.09,0-.288,0-0.684-0.018Zm10.839,0.972a11.421,11.421,0,0,1,1.6,2.467l1.368-.72a9.656,9.656,0,0,0-1.6-2.431Zm4.952,0.738a9.412,9.412,0,0,0-1.585-2.323l-1.314.648a11.934,11.934,0,0,1,1.548,2.395Zm15.965-4.357a10.044,10.044,0,0,1-1.782,2.125,12.38,12.38,0,0,1-1.117-.9,19.521,19.521,0,0,0,1.855-2.071l-1.5-.99a9.888,9.888,0,0,1-1.512,1.945,4.5,4.5,0,0,1-1.206-2.035,10.072,10.072,0,0,1-1.549.072h-3.385a8.1,8.1,0,0,1-1.494-.09v1.819a8.013,8.013,0,0,1,1.1-.072h2.377a9.38,9.38,0,0,1-1.711,1.819,22.264,22.264,0,0,0-2.52-2.2l-1.333,1.188A15.087,15.087,0,0,1,276,26.863a15.308,15.308,0,0,1-3.385,1.782,5.626,5.626,0,0,1,.972,1.711,19.544,19.544,0,0,0,4.483-2.791v1.17a6.8,6.8,0,0,1,1.135-.072h3.979a6.905,6.905,0,0,1,1.206.072V27.673a17.393,17.393,0,0,0,4.358,2.611,5.874,5.874,0,0,1,.936-1.8,18.823,18.823,0,0,1-2.737-1.278,19.7,19.7,0,0,0,1.585-1.675,2.467,2.467,0,0,1,.324-0.378Zm-8.048,2.917h-0.63a14.423,14.423,0,0,0,2.484-2.827,15.605,15.605,0,0,0,2.485,2.827h-4.339Zm-4.484,9.219a11.3,11.3,0,0,1-1.746-.09v1.945a13.344,13.344,0,0,1,1.873-.09H287.41a13.189,13.189,0,0,1,1.873.09V36.19a11.569,11.569,0,0,1-1.765.09h-3.079c0.126-.18.541-0.954,0.829-1.495l-1.495-.54h1.747a11.828,11.828,0,0,1,1.3.054,8.823,8.823,0,0,1-.072-1.314V30.7a7.892,7.892,0,0,1,.072-1.206,10.184,10.184,0,0,1-1.4.072h-8.5a11.17,11.17,0,0,1-1.422-.072,8.786,8.786,0,0,1,.072,1.224v2.269a10.342,10.342,0,0,1-.072,1.314,11.6,11.6,0,0,1,1.3-.054h1.927l-1.585.576a6.931,6.931,0,0,1,.738,1.458h-3.043Zm4.988,0a14.579,14.579,0,0,0-.9-2.035h4.5a10.748,10.748,0,0,1-.918,2.035h-2.683Zm-2.4-5.114h7.418v1.458h-7.418V31.166ZM297,34.641a16.365,16.365,0,0,0,.864-2.881l-1.368-.45a13.716,13.716,0,0,1-.721,2.935Zm1.026-4.177a12.167,12.167,0,0,1,1.585,2.863L301,32.409a11.7,11.7,0,0,0-1.567-2.683Zm-4.195-2.575V29.1h-0.918a15.3,15.3,0,0,1-1.783-.09v1.837a14.706,14.706,0,0,1,1.765-.09h0.936v5.041a13.337,13.337,0,0,1-2.809.378l0.27,1.98a10.877,10.877,0,0,1,1.422-.324,40.34,40.34,0,0,0,4.826-1.278V35.83l0.576,1.278c0.306-.216.306-0.216,0.594-0.414,1.225-.846,1.225-0.846,1.531-1.062a15.342,15.342,0,0,0,1.278-1.008v1.71c0,0.4-.126.468-0.792,0.468a7.079,7.079,0,0,1-1.4-.18,5.184,5.184,0,0,1,.415,1.819c0.7,0.054,1.188.072,1.584,0.072,1.458,0,1.981-.432,1.981-1.639v-2.3q-0.054-1.458-.108-2a10.062,10.062,0,0,0,1.368,2.791,10.966,10.966,0,0,0,2.2,2.323,7.6,7.6,0,0,1,1.08-1.764,8.746,8.746,0,0,1-2.773-2.593,20.117,20.117,0,0,0,2.4-2.557l-1.477-1.044a8.7,8.7,0,0,1-1.746,2.161,8.493,8.493,0,0,1-.864-2.665h2.412a15.345,15.345,0,0,1,1.711.09V27.529a11.139,11.139,0,0,1-1.729.108h-0.108c0.072-.936.162-2.521,0.216-3.457a15.243,15.243,0,0,1,.108-1.746,13.377,13.377,0,0,1-1.656.072H300.1a12.229,12.229,0,0,1-1.8-.09v1.729a14.158,14.158,0,0,1,1.711-.072h4.033c-0.018.486-.018,0.54-0.054,0.99h-3.637a9.3,9.3,0,0,1-1.639-.09v1.71a12.524,12.524,0,0,1,1.639-.072h3.565c-0.018.306-.036,0.486-0.072,1.026h-4.556a11.628,11.628,0,0,1-1.728-.108v1.494a8.3,8.3,0,0,1-1.278.072h-0.721V27.889h0.522a6.327,6.327,0,0,1,1.063.054v-1.35l0.144,0.126a6.5,6.5,0,0,1,1.1-1.6,7.2,7.2,0,0,1-2.629-3.025h-1.98a8.319,8.319,0,0,1-3.115,3.889,5.4,5.4,0,0,1,.828,1.71c0.378-.306.486-0.4,0.828-0.7v0.954a10.51,10.51,0,0,1,1.063-.054h0.45Zm7.688,1.332v3.421a19.253,19.253,0,0,1-4,2.611V34.875c-0.954.288-1.278,0.4-1.963,0.558V30.752h0.721a7.377,7.377,0,0,1,1.4.09V29.294a12.784,12.784,0,0,1,1.6-.072h2.233Zm-8.462-2.953a10.729,10.729,0,0,0,1.8-2.557,10.632,10.632,0,0,0,1.909,2.539c-0.234.018-.342,0.018-0.667,0.018h-3.042Zm0.36,8.625a19.3,19.3,0,0,0-.793-3.493l-1.4.432a18.128,18.128,0,0,1,.756,3.511Z"/>
</svg>
