<svg id="グループ_2" data-name="グループ 2" xmlns="http://www.w3.org/2000/svg" width="380" height="60" viewBox="0 0 380 60">
  <metadata><?xpacket begin="﻿" id="W5M0MpCehiHzreSzNTczkc9d"?>
<x:xmpmeta xmlns:x="adobe:ns:meta/" x:xmptk="Adobe XMP Core 5.6-c138 79.159824, 2016/09/14-01:09:01        ">
   <rdf:RDF xmlns:rdf="http://www.w3.org/1999/02/22-rdf-syntax-ns#">
      <rdf:Description rdf:about=""/>
   </rdf:RDF>
</x:xmpmeta>
                                                                                                    
                                                                                                    
                                                                                                    
                                                                                                    
                                                                                                    
                                                                                                    
                                                                                                    
                                                                                                    
                                                                                                    
                                                                                                    
                                                                                                    
                                                                                                    
                                                                                                    
                                                                                                    
                                                                                                    
                                                                                                    
                                                                                                    
                                                                                                    
                                                                                                    
                                                                                                    
                           
<?xpacket end="w"?></metadata>
<defs>
    <style>
      .cls-1, .cls-3 {
        fill: #3f5996;
      }

      .cls-2, .cls-4 {
        fill: #fff;
      }

      .cls-3, .cls-4 {
        fill-rule: evenodd;
      }
    </style>
  </defs>
  <rect id="角丸長方形_1" data-name="角丸長方形 1" class="cls-1" x="1" y="1" width="378" height="58" rx="4" ry="4"/>
  <rect id="角丸長方形_2" data-name="角丸長方形 2" class="cls-2" x="30" y="17" width="26" height="26" rx="4" ry="4"/>
  <path id="シェイプ_2" data-name="シェイプ 2" class="cls-3" d="M46.685,21.355A7.383,7.383,0,0,1,48.979,21H53q0,1.843,0,3.687H51.332a7.291,7.291,0,0,0-1.265.056,1.1,1.1,0,0,0-.633.315,1.148,1.148,0,0,0-.233.669c-0.026.336-.015,0.672-0.017,1.008,0,0.519-.008,1.038,0,1.557,1.173,0,2.346,0,3.52,0q-0.21,1.851-.421,3.7h-3.1q0,5.5,0,11H44.006q0-5.5,0-11H42q0-1.852,0-3.7h2.006q0-1.223,0-2.445a6.827,6.827,0,0,1,.335-2.192,3.7,3.7,0,0,1,.863-1.4A3.844,3.844,0,0,1,46.685,21.355Z"/>
  <path id="Facebookでログイン" class="cls-4" d="M101.676,31.022h3.853a17.568,17.568,0,0,1,2.448.126V28.754a17.739,17.739,0,0,1-2.448.126h-3.853V25.062h4.789a17.2,17.2,0,0,1,2.467.126V22.758a18.424,18.424,0,0,1-2.467.126h-5.042c-1.1,0-1.548-.018-2.286-0.054a15.552,15.552,0,0,1,.144,2.341v9.489a15.183,15.183,0,0,1-.144,2.557h2.683a15.535,15.535,0,0,1-.144-2.593v-3.6Zm15.733,6.194h2.43a14.486,14.486,0,0,1-.144-2.251V30.122a3.024,3.024,0,0,0-.846-2.485c-0.774-.756-1.818-1.062-3.547-1.062a5.391,5.391,0,0,0-3.439.918,3.762,3.762,0,0,0-1.422,2l2.3,0.414a1.958,1.958,0,0,1,.721-1.152,3.247,3.247,0,0,1,1.872-.522c1.369,0,2.071.54,2.071,1.584v0.918a13.626,13.626,0,0,0-5.078.72,3.194,3.194,0,0,0-2.034,2.917c0,1.891,1.332,3.025,3.529,3.025a6.369,6.369,0,0,0,1.674-.216,3.906,3.906,0,0,0,1.909-1.134v1.17Zm0-4.015a2.146,2.146,0,0,1-.648,1.584,3.659,3.659,0,0,1-2.5.954,1.41,1.41,0,0,1-1.639-1.368c0-1.4,1.351-2,4.79-2.071v0.9Zm13.95-3.385a5.994,5.994,0,0,0-.63-1.314,4.657,4.657,0,0,0-4.033-1.945,4.929,4.929,0,0,0-3.619,1.368,5.819,5.819,0,0,0-1.531,4.159c0,3.331,2.053,5.474,5.222,5.474a4.679,4.679,0,0,0,3.961-1.819,5.041,5.041,0,0,0,.756-1.53l-2.232-.45a2.517,2.517,0,0,1-.36.9,2.412,2.412,0,0,1-2.071,1.008c-1.819,0-2.935-1.386-2.935-3.637,0-2.233,1.1-3.619,2.863-3.619a2.264,2.264,0,0,1,1.854.828,3.226,3.226,0,0,1,.559,1.1Zm11.556,2.827c-0.036-.414-0.036-0.468-0.036-0.5a7.4,7.4,0,0,0-.522-2.737,4.574,4.574,0,0,0-4.483-2.845c-3.079,0-5.078,2.179-5.078,5.51,0,3.367,2.017,5.492,5.2,5.492a5.114,5.114,0,0,0,3.709-1.386,5.062,5.062,0,0,0,1.1-1.656l-2.124-.684a2.616,2.616,0,0,1-.522.936,3.03,3.03,0,0,1-4.412-.108,3.347,3.347,0,0,1-.666-2.017h7.832Zm-7.778-1.782a2.7,2.7,0,0,1,2.7-2.449,2.566,2.566,0,0,1,1.944.72,2.821,2.821,0,0,1,.793,1.729h-5.438Zm11.952,6.356V36.334c0-.216,0-0.414-0.018-0.648a3.917,3.917,0,0,0,3.583,1.782,4.615,4.615,0,0,0,3.457-1.3,5.888,5.888,0,0,0,1.477-4.213c0-3.349-1.783-5.312-4.808-5.312a4.2,4.2,0,0,0-3.709,1.819c0.018-.612.036-1.062,0.036-1.35v-1.8a18.356,18.356,0,0,1,.126-2.431h-2.539a21,21,0,0,1,.126,2.413v9.489a18.908,18.908,0,0,1-.126,2.431h2.4Zm6.158-5.258c0,2.179-1.17,3.583-2.989,3.583a3.141,3.141,0,0,1-1.891-.666,3.756,3.756,0,0,1-1.188-2.845,3.878,3.878,0,0,1,.882-2.5,3.215,3.215,0,0,1,2.449-.99C152.167,28.538,153.247,29.888,153.247,31.959Zm9.107,5.6c3.2,0,5.311-2.2,5.311-5.528s-2.07-5.456-5.329-5.456c-3.277,0-5.366,2.143-5.366,5.492C156.97,35.434,159.059,37.558,162.354,37.558Zm-0.018-9.111c1.908,0,3.007,1.332,3.007,3.655,0,2.2-1.153,3.547-3.025,3.547s-3.025-1.368-3.025-3.583C159.293,29.816,160.445,28.447,162.336,28.447Zm12.078,9.111c3.205,0,5.311-2.2,5.311-5.528s-2.07-5.456-5.329-5.456c-3.277,0-5.366,2.143-5.366,5.492C169.03,35.434,171.119,37.558,174.414,37.558ZM174.4,28.447c1.908,0,3.007,1.332,3.007,3.655,0,2.2-1.153,3.547-3.025,3.547s-3.025-1.368-3.025-3.583C171.353,29.816,172.505,28.447,174.4,28.447Zm7.162-5.564a16.518,16.518,0,0,1,.126,2.359v9.633a17.62,17.62,0,0,1-.126,2.341H184.1a13.04,13.04,0,0,1-.126-2.3v-1.17l1.476-1.4,1.945,2.845a8.671,8.671,0,0,1,1.188,2.035h3.2a13.8,13.8,0,0,1-1.638-2.089L187.1,30.968l2.557-2.431c0.774-.738.774-0.738,1.8-1.657h-3.367a8.291,8.291,0,0,1-1.422,1.6l-2.7,2.683V25.243a16.854,16.854,0,0,1,.126-2.359h-2.539ZM193.6,26.791a26.143,26.143,0,0,1,2.989-.36c3.907-.288,4.609-0.36,6.068-0.576a7.954,7.954,0,0,0-2.5,1.819,6.271,6.271,0,0,0-1.71,4.231,4.818,4.818,0,0,0,2.574,4.339,10.836,10.836,0,0,0,4.214,1.188c0.306,0.054.4,0.054,0.612,0.108l0.324-2.449c-0.18.018-.342,0.018-0.36,0.018a10.926,10.926,0,0,1-2.683-.468,3.024,3.024,0,0,1-2.4-2.935c0-1.819,1.351-3.619,3.637-4.807a8.055,8.055,0,0,1,3.565-.972,2.809,2.809,0,0,1,.379.018l-0.127-2.287a13.267,13.267,0,0,1-2.07.162c-4.988.234-7.977,0.4-8.985,0.45-2.647.18-2.647,0.18-2.971,0.18-0.09,0-.288,0-0.684-0.018Zm10.839,0.972a11.421,11.421,0,0,1,1.6,2.467l1.368-.72a9.656,9.656,0,0,0-1.6-2.431Zm4.952,0.738a9.412,9.412,0,0,0-1.585-2.323l-1.314.648a11.934,11.934,0,0,1,1.548,2.395Zm14.093,7.454V37.2h2.322a12.347,12.347,0,0,1-.072-1.566v-10.3c0-.666.018-1.026,0.054-1.494-0.414.036-.738,0.054-1.512,0.054H214.049c-0.72,0-1.1-.018-1.531-0.054a11.96,11.96,0,0,1,.072,1.512V35.668a12.037,12.037,0,0,1-.072,1.548h2.323v-1.26h8.643Zm0-2.053h-8.643V25.927h8.643V33.9Zm19.152-9.147,0.954-.342a8.457,8.457,0,0,0-1.386-2.323l-1.441.5a9.832,9.832,0,0,1,1.243,2.071,4.954,4.954,0,0,1-.9.054l-3.944.054c-0.378.018-.666,0.018-0.864,0.036,0.252-.468.378-0.738,0.7-1.459a2.5,2.5,0,0,1,.36-0.648l-2.466-.5a6.77,6.77,0,0,1-.919,2.395,13.844,13.844,0,0,1-4.663,5.222,4.794,4.794,0,0,1,1.747,1.548,17.433,17.433,0,0,0,4.213-4.627l5.419-.072a14.323,14.323,0,0,1-5.257,7.6,15.634,15.634,0,0,1-3.943,2.107,5.547,5.547,0,0,1,1.53,1.891,17.929,17.929,0,0,0,6.41-4.555,18.664,18.664,0,0,0,3.691-6.95,3.2,3.2,0,0,1,.45-1.08Zm3.151-1.044a9.391,9.391,0,0,0-1.386-2.233L243,22.02a11.637,11.637,0,0,1,1.351,2.287ZM259.9,22.38a14.409,14.409,0,0,1-3.349,3.367,26.3,26.3,0,0,1-9.453,4.681,6.774,6.774,0,0,1,1.206,2.053,29.16,29.16,0,0,0,6.428-2.917V35.9a10.131,10.131,0,0,1-.108,1.945h2.521a13.625,13.625,0,0,1-.09-2V28.159A31.847,31.847,0,0,0,261.3,24.45a7.4,7.4,0,0,1,.666-0.63Zm6.44,3.061A18.907,18.907,0,0,1,270.93,29.1l1.548-1.963a25.5,25.5,0,0,0-4.645-3.475Zm0.631,11.884a6.37,6.37,0,0,1,1.188-.306,19.45,19.45,0,0,0,6.86-2.7,15.8,15.8,0,0,0,5.708-7.058,7.75,7.75,0,0,1-1.909-1.765,15.036,15.036,0,0,1-1.836,3.6,12.032,12.032,0,0,1-5.348,4.411,17.161,17.161,0,0,1-5.33,1.332Z"/>
</svg>
