<svg xmlns="http://www.w3.org/2000/svg" width="120" height="34" viewBox="0 0 120 34">
  <metadata><?xpacket begin="﻿" id="W5M0MpCehiHzreSzNTczkc9d"?>
<x:xmpmeta xmlns:x="adobe:ns:meta/" x:xmptk="Adobe XMP Core 5.6-c138 79.159824, 2016/09/14-01:09:01        ">
   <rdf:RDF xmlns:rdf="http://www.w3.org/1999/02/22-rdf-syntax-ns#">
      <rdf:Description rdf:about=""/>
   </rdf:RDF>
</x:xmpmeta>
                                                                                                    
                                                                                                    
                                                                                                    
                                                                                                    
                                                                                                    
                                                                                                    
                                                                                                    
                                                                                                    
                                                                                                    
                                                                                                    
                                                                                                    
                                                                                                    
                                                                                                    
                                                                                                    
                                                                                                    
                                                                                                    
                                                                                                    
                                                                                                    
                                                                                                    
                                                                                                    
                           
<?xpacket end="w"?></metadata>
<defs>
    <style>
      .cls-1, .cls-3 {
        fill: #3f5996;
      }

      .cls-2, .cls-4 {
        fill: #fff;
      }

      .cls-3, .cls-4 {
        fill-rule: evenodd;
      }
    </style>
  </defs>
  <rect id="角丸長方形_1" data-name="角丸長方形 1" class="cls-1" x="1" y="1" width="118" height="32" rx="4" ry="4"/>
  <rect id="角丸長方形_2" data-name="角丸長方形 2" class="cls-2" x="4" y="4" width="26" height="26" rx="4" ry="4"/>
  <path id="シェイプ_2" data-name="シェイプ 2" class="cls-3" d="M20.685,8.355A7.382,7.382,0,0,1,22.979,8H27q0,1.843,0,3.687H25.332a7.292,7.292,0,0,0-1.265.056,1.1,1.1,0,0,0-.633.315,1.148,1.148,0,0,0-.233.669c-0.026.336-.015,0.672-0.017,1.008,0,0.519-.008,1.038,0,1.557,1.173,0,2.346,0,3.52,0q-0.21,1.851-.421,3.7h-3.1q0,5.5,0,11H18.006q0-5.5,0-11H16q0-1.852,0-3.7h2.006q0-1.223,0-2.445a6.829,6.829,0,0,1,.335-2.192,3.7,3.7,0,0,1,.863-1.4A3.846,3.846,0,0,1,20.685,8.355Z"/>
  <path id="ログイン" class="cls-4" d="M51.616,21.73v1.035h1.935a10.282,10.282,0,0,1-.06-1.3V12.88c0-.555.015-0.855,0.045-1.245-0.345.03-.615,0.045-1.26,0.045h-8.52c-0.6,0-.915-0.015-1.275-0.045a9.962,9.962,0,0,1,.06,1.26V21.49a10.024,10.024,0,0,1-.06,1.29h1.935V21.73h7.2Zm0-1.71h-7.2V13.375h7.2V20.02ZM68.175,12.4l0.8-.285a7.048,7.048,0,0,0-1.155-1.935l-1.2.42a8.222,8.222,0,0,1,1.035,1.725,4.128,4.128,0,0,1-.75.045l-3.285.045c-0.315.015-.555,0.015-0.72,0.03,0.21-.39.315-0.615,0.585-1.215a2.083,2.083,0,0,1,.3-0.54l-2.055-.42a5.649,5.649,0,0,1-.765,1.995,11.538,11.538,0,0,1-3.885,4.35,3.984,3.984,0,0,1,1.455,1.29,14.507,14.507,0,0,0,3.51-3.855l4.515-.06a11.935,11.935,0,0,1-4.38,6.33,13.021,13.021,0,0,1-3.285,1.755,4.622,4.622,0,0,1,1.275,1.575,14.942,14.942,0,0,0,5.34-3.795,15.556,15.556,0,0,0,3.075-5.79,2.666,2.666,0,0,1,.375-0.9Zm2.625-.87a7.822,7.822,0,0,0-1.155-1.86l-1.17.45a9.651,9.651,0,0,1,1.125,1.9Zm12.359-1.11a12,12,0,0,1-2.79,2.8,21.9,21.9,0,0,1-7.875,3.9,5.642,5.642,0,0,1,1,1.71,24.308,24.308,0,0,0,5.355-2.43v5.28a8.437,8.437,0,0,1-.09,1.62h2.1a11.347,11.347,0,0,1-.075-1.665v-6.4a26.523,26.523,0,0,0,3.54-3.09,6.179,6.179,0,0,1,.555-0.525Zm5.969,2.55a15.748,15.748,0,0,1,3.825,3.045l1.29-1.635a21.246,21.246,0,0,0-3.87-2.895Zm0.525,9.9a5.311,5.311,0,0,1,.99-0.255,16.2,16.2,0,0,0,5.715-2.25,13.168,13.168,0,0,0,4.755-5.88,6.473,6.473,0,0,1-1.59-1.47,12.53,12.53,0,0,1-1.53,3,10.021,10.021,0,0,1-4.455,3.675A14.291,14.291,0,0,1,89.1,20.8Z"/>
</svg>
