<svg xmlns="http://www.w3.org/2000/svg" width="380" height="60" viewBox="0 0 380 60">
  <metadata><?xpacket begin="﻿" id="W5M0MpCehiHzreSzNTczkc9d"?>
<x:xmpmeta xmlns:x="adobe:ns:meta/" x:xmptk="Adobe XMP Core 5.6-c138 79.159824, 2016/09/14-01:09:01        ">
   <rdf:RDF xmlns:rdf="http://www.w3.org/1999/02/22-rdf-syntax-ns#">
      <rdf:Description rdf:about=""/>
   </rdf:RDF>
</x:xmpmeta>
                                                                                                    
                                                                                                    
                                                                                                    
                                                                                                    
                                                                                                    
                                                                                                    
                                                                                                    
                                                                                                    
                                                                                                    
                                                                                                    
                                                                                                    
                                                                                                    
                                                                                                    
                                                                                                    
                                                                                                    
                                                                                                    
                                                                                                    
                                                                                                    
                                                                                                    
                                                                                                    
                           
<?xpacket end="w"?></metadata>
<defs>
    <style>
      .cls-1, .cls-3 {
        fill: #d7413c;
      }

      .cls-2, .cls-4 {
        fill: #fff;
      }

      .cls-3, .cls-4 {
        fill-rule: evenodd;
      }
    </style>
  </defs>
  <rect id="角丸長方形_1" data-name="角丸長方形 1" class="cls-1" x="1" y="1" width="378" height="58" rx="4" ry="4"/>
  <circle id="楕円形_1" data-name="楕円形 1" class="cls-2" cx="43" cy="30" r="13"/>
  <path id="シェイプ_1" data-name="シェイプ 1" class="cls-3" d="M36.463,24.569a6.184,6.184,0,0,1,5.059-.057,6.012,6.012,0,0,1,1.588,1.073c-0.568.506-1.1,1.053-1.659,1.565a3.577,3.577,0,0,0-2.482-.929,3.891,3.891,0,0,0-2.069.7A3.758,3.758,0,0,0,35.338,29.5a3.8,3.8,0,0,0,.489,2.4,3.759,3.759,0,0,0,2.643,1.812,3.966,3.966,0,0,0,2.417-.386A3.109,3.109,0,0,0,42.468,31.2c-1.143,0-2.287,0-3.431,0-0.007-.687,0-1.375,0-2.062,1.906-.005,3.811,0,5.717,0a6.443,6.443,0,0,1-.614,4.019,5.419,5.419,0,0,1-4.509,2.808,3.715,3.715,0,0,1-1.048.011,5.988,5.988,0,0,1-4.95-8.642A6.052,6.052,0,0,1,36.463,24.569ZM48.525,27.43q0.879,0,1.757,0c0,0.566,0,1.133,0,1.7,0.572,0,1.144,0,1.717,0q0,0.87,0,1.739c-0.573,0-1.145,0-1.718,0q0,0.851,0,1.7-0.877,0-1.754,0,0-.851,0-1.7c-0.573,0-1.145,0-1.718,0q0-.869,0-1.739c0.573,0,1.145,0,1.718,0C48.525,28.563,48.528,28,48.525,27.43Z"/>
  <path id="Google_でログイン" data-name="Google+でログイン" class="cls-4" d="M118.283,31.634a15.1,15.1,0,0,1,.126-2.233c-0.774.054-1.3,0.072-2.124,0.072h-0.937a13.431,13.431,0,0,1-2.16-.108v2.323a9.854,9.854,0,0,1,1.836-.108H116v2.935a5.376,5.376,0,0,1-3.061.81,3.768,3.768,0,0,1-3.133-1.242,6.353,6.353,0,0,1-1.225-4.213,5.633,5.633,0,0,1,1.333-4.105,3.8,3.8,0,0,1,2.737-1.1c1.854,0,2.718.576,3.313,2.215l2.466-.666a5.076,5.076,0,0,0-1.332-2.143,5.88,5.88,0,0,0-4.141-1.548,6.831,6.831,0,0,0-4,1.062c-1.872,1.26-2.88,3.457-2.88,6.32a8.459,8.459,0,0,0,1.692,5.474,6.3,6.3,0,0,0,5.114,2.071,10.655,10.655,0,0,0,2.646-.342,11.4,11.4,0,0,0,2.881-1.242,14.886,14.886,0,0,1-.126-2.341V31.634Zm7.27,5.924c3.205,0,5.312-2.2,5.312-5.528s-2.071-5.456-5.33-5.456c-3.277,0-5.366,2.143-5.366,5.492C120.169,35.434,122.258,37.558,125.553,37.558Zm-0.018-9.111c1.909,0,3.007,1.332,3.007,3.655,0,2.2-1.152,3.547-3.025,3.547s-3.025-1.368-3.025-3.583C122.492,29.816,123.645,28.447,125.535,28.447Zm12.078,9.111c3.205,0,5.312-2.2,5.312-5.528s-2.071-5.456-5.33-5.456c-3.277,0-5.366,2.143-5.366,5.492C132.229,35.434,134.318,37.558,137.613,37.558ZM137.6,28.447c1.909,0,3.007,1.332,3.007,3.655,0,2.2-1.152,3.547-3.025,3.547s-3.025-1.368-3.025-3.583C134.552,29.816,135.7,28.447,137.6,28.447Zm6.91,10.425a5.225,5.225,0,0,0,4.52,1.873,6.8,6.8,0,0,0,4.249-1.152c1.044-.882,1.513-2.269,1.513-4.429V29.132a16.732,16.732,0,0,1,.126-2.251H152.5v0.828a4.332,4.332,0,0,0,.036.594,3.8,3.8,0,0,0-3.439-1.584c-2.917,0-4.808,2.017-4.808,5.132,0,3.079,1.837,5.042,4.7,5.042a4.1,4.1,0,0,0,3.529-1.639,4.907,4.907,0,0,1-.468,2.395A3.237,3.237,0,0,1,149.1,39a3.049,3.049,0,0,1-2.791-1.368Zm2.143-6.968c0-2.143,1.116-3.493,2.917-3.493a2.72,2.72,0,0,1,1.746.648,3.317,3.317,0,0,1,1.081,2.665,3.814,3.814,0,0,1-.5,2.053,3.014,3.014,0,0,1-2.5,1.422,2.761,2.761,0,0,1-1.909-.81A3.475,3.475,0,0,1,146.648,31.9Zm10.529-9.021a16.241,16.241,0,0,1,.126,2.341v9.651a17.441,17.441,0,0,1-.126,2.341h2.611a18.552,18.552,0,0,1-.126-2.341V25.243a16.685,16.685,0,0,1,.126-2.359h-2.611Zm14.565,9.759c-0.036-.414-0.036-0.468-0.036-0.5a7.4,7.4,0,0,0-.522-2.737,4.574,4.574,0,0,0-4.483-2.845c-3.079,0-5.078,2.179-5.078,5.51,0,3.367,2.017,5.492,5.2,5.492a5.115,5.115,0,0,0,3.709-1.386,5.062,5.062,0,0,0,1.1-1.656l-2.125-.684a2.616,2.616,0,0,1-.522.936,3.029,3.029,0,0,1-4.411-.108,3.347,3.347,0,0,1-.666-2.017h7.832Zm-7.778-1.782a2.7,2.7,0,0,1,2.7-2.449,2.566,2.566,0,0,1,1.944.72,2.826,2.826,0,0,1,.792,1.729h-5.437Zm15.661,2.233h4.267V31.022h-4.267V26.755h-2.089v4.267h-4.267v2.071h4.267V37.36h2.089V33.093Zm6.568-6.3a26.143,26.143,0,0,1,2.989-.36c3.907-.288,4.609-0.36,6.068-0.576a7.954,7.954,0,0,0-2.5,1.819,6.271,6.271,0,0,0-1.71,4.231,4.818,4.818,0,0,0,2.574,4.339,10.836,10.836,0,0,0,4.214,1.188c0.306,0.054.4,0.054,0.612,0.108l0.324-2.449c-0.18.018-.342,0.018-0.36,0.018a10.926,10.926,0,0,1-2.683-.468,3.024,3.024,0,0,1-2.395-2.935c0-1.819,1.351-3.619,3.637-4.807a8.055,8.055,0,0,1,3.565-.972,2.809,2.809,0,0,1,.379.018l-0.127-2.287a13.267,13.267,0,0,1-2.07.162c-4.988.234-7.977,0.4-8.985,0.45-2.647.18-2.647,0.18-2.971,0.18-0.09,0-.288,0-0.684-0.018Zm10.839,0.972a11.421,11.421,0,0,1,1.6,2.467L200,29.51a9.656,9.656,0,0,0-1.6-2.431Zm4.952,0.738a9.412,9.412,0,0,0-1.585-2.323l-1.314.648a11.934,11.934,0,0,1,1.548,2.395Zm14.093,7.454V37.2H218.4a12.347,12.347,0,0,1-.072-1.566v-10.3c0-.666.018-1.026,0.054-1.494-0.414.036-.738,0.054-1.512,0.054H206.642c-0.72,0-1.1-.018-1.531-0.054a11.96,11.96,0,0,1,.072,1.512V35.668a12.037,12.037,0,0,1-.072,1.548h2.323v-1.26h8.643Zm0-2.053h-8.643V25.927h8.643V33.9Zm19.152-9.147,0.954-.342a8.457,8.457,0,0,0-1.386-2.323l-1.441.5a9.832,9.832,0,0,1,1.243,2.071,4.954,4.954,0,0,1-.9.054l-3.944.054c-0.378.018-.666,0.018-0.864,0.036,0.252-.468.378-0.738,0.7-1.459a2.5,2.5,0,0,1,.36-0.648l-2.466-.5a6.77,6.77,0,0,1-.919,2.395,13.844,13.844,0,0,1-4.663,5.222,4.794,4.794,0,0,1,1.747,1.548,17.416,17.416,0,0,0,4.213-4.627l5.419-.072a14.323,14.323,0,0,1-5.257,7.6,15.634,15.634,0,0,1-3.943,2.107,5.547,5.547,0,0,1,1.53,1.891,17.929,17.929,0,0,0,6.41-4.555,18.664,18.664,0,0,0,3.691-6.95,3.2,3.2,0,0,1,.45-1.08Zm3.151-1.044a9.391,9.391,0,0,0-1.386-2.233l-1.405.54a11.637,11.637,0,0,1,1.351,2.287Zm14.111-1.332a14.409,14.409,0,0,1-3.349,3.367,26.3,26.3,0,0,1-9.453,4.681,6.774,6.774,0,0,1,1.206,2.053,29.16,29.16,0,0,0,6.428-2.917V35.9a10.131,10.131,0,0,1-.108,1.945h2.521a13.625,13.625,0,0,1-.09-2V28.159A31.847,31.847,0,0,0,253.9,24.45a7.4,7.4,0,0,1,.666-0.63Zm6.44,3.061a18.907,18.907,0,0,1,4.592,3.655l1.548-1.963a25.5,25.5,0,0,0-4.645-3.475Zm0.631,11.884a6.37,6.37,0,0,1,1.188-.306,19.45,19.45,0,0,0,6.86-2.7,15.8,15.8,0,0,0,5.708-7.058,7.75,7.75,0,0,1-1.909-1.765,15.036,15.036,0,0,1-1.836,3.6,12.032,12.032,0,0,1-5.348,4.411,17.161,17.161,0,0,1-5.33,1.332Z"/>
</svg>
