<svg id="グループ_1" data-name="グループ 1" xmlns="http://www.w3.org/2000/svg" width="380" height="60" viewBox="0 0 380 60">
  <metadata><?xpacket begin="﻿" id="W5M0MpCehiHzreSzNTczkc9d"?>
<x:xmpmeta xmlns:x="adobe:ns:meta/" x:xmptk="Adobe XMP Core 5.6-c138 79.159824, 2016/09/14-01:09:01        ">
   <rdf:RDF xmlns:rdf="http://www.w3.org/1999/02/22-rdf-syntax-ns#">
      <rdf:Description rdf:about=""/>
   </rdf:RDF>
</x:xmpmeta>
                                                                                                    
                                                                                                    
                                                                                                    
                                                                                                    
                                                                                                    
                                                                                                    
                                                                                                    
                                                                                                    
                                                                                                    
                                                                                                    
                                                                                                    
                                                                                                    
                                                                                                    
                                                                                                    
                                                                                                    
                                                                                                    
                                                                                                    
                                                                                                    
                                                                                                    
                                                                                                    
                           
<?xpacket end="w"?></metadata>
<defs>
    <style>
      .cls-1, .cls-3 {
        fill: #d7413c;
      }

      .cls-2, .cls-4 {
        fill: #fff;
      }

      .cls-3, .cls-4 {
        fill-rule: evenodd;
      }
    </style>
  </defs>
  <rect id="角丸長方形_1" data-name="角丸長方形 1" class="cls-1" x="1" y="1" width="378" height="58" rx="4" ry="4"/>
  <circle id="楕円形_1" data-name="楕円形 1" class="cls-2" cx="43" cy="30" r="13"/>
  <path id="シェイプ_1" data-name="シェイプ 1" class="cls-3" d="M36.464,24.569a6.184,6.184,0,0,1,5.059-.057,6.012,6.012,0,0,1,1.588,1.073c-0.568.506-1.1,1.053-1.659,1.565a3.577,3.577,0,0,0-2.482-.929,3.891,3.891,0,0,0-2.069.7A3.758,3.758,0,0,0,35.338,29.5a3.8,3.8,0,0,0,.489,2.4,3.759,3.759,0,0,0,2.643,1.812,3.966,3.966,0,0,0,2.417-.386A3.109,3.109,0,0,0,42.468,31.2c-1.143,0-2.287,0-3.431,0-0.007-.687,0-1.375,0-2.062,1.906-.005,3.811,0,5.717,0a6.443,6.443,0,0,1-.614,4.019,5.419,5.419,0,0,1-4.509,2.808,3.715,3.715,0,0,1-1.048.011,5.988,5.988,0,0,1-4.95-8.642A6.052,6.052,0,0,1,36.464,24.569ZM48.525,27.43q0.879,0,1.757,0c0,0.566,0,1.133,0,1.7,0.572,0,1.144,0,1.717,0q0,0.87,0,1.739c-0.573,0-1.145,0-1.718,0q0,0.851,0,1.7-0.877,0-1.754,0,0-.851,0-1.7c-0.573,0-1.145,0-1.718,0q0-.869,0-1.739c0.573,0,1.145,0,1.718,0C48.525,28.563,48.528,28,48.525,27.43Z"/>
  <path id="Google_アカウントで登録" data-name="Google+アカウントで登録" class="cls-4" d="M91.283,31.634a15.1,15.1,0,0,1,.126-2.233c-0.774.054-1.3,0.072-2.125,0.072H88.348a13.44,13.44,0,0,1-2.161-.108v2.323a9.86,9.86,0,0,1,1.837-.108H89v2.935a5.374,5.374,0,0,1-3.061.81A3.769,3.769,0,0,1,82.8,34.083a6.358,6.358,0,0,1-1.224-4.213,5.636,5.636,0,0,1,1.332-4.105,3.8,3.8,0,0,1,2.737-1.1c1.855,0,2.719.576,3.313,2.215l2.467-.666a5.076,5.076,0,0,0-1.332-2.143,5.881,5.881,0,0,0-4.141-1.548,6.828,6.828,0,0,0-4,1.062c-1.873,1.26-2.881,3.457-2.881,6.32a8.458,8.458,0,0,0,1.693,5.474,6.3,6.3,0,0,0,5.114,2.071,10.66,10.66,0,0,0,2.647-.342,11.415,11.415,0,0,0,2.881-1.242,14.886,14.886,0,0,1-.126-2.341V31.634Zm7.27,5.924c3.2,0,5.312-2.2,5.312-5.528s-2.071-5.456-5.33-5.456c-3.277,0-5.366,2.143-5.366,5.492C93.17,35.434,95.258,37.558,98.553,37.558Zm-0.018-9.111c1.909,0,3.007,1.332,3.007,3.655,0,2.2-1.152,3.547-3.025,3.547s-3.025-1.368-3.025-3.583C95.492,29.816,96.645,28.447,98.535,28.447Zm12.078,9.111c3.2,0,5.312-2.2,5.312-5.528s-2.071-5.456-5.33-5.456c-3.277,0-5.366,2.143-5.366,5.492C105.229,35.434,107.318,37.558,110.613,37.558ZM110.6,28.447c1.909,0,3.007,1.332,3.007,3.655,0,2.2-1.152,3.547-3.025,3.547s-3.025-1.368-3.025-3.583C107.552,29.816,108.7,28.447,110.6,28.447Zm6.91,10.425a5.225,5.225,0,0,0,4.52,1.873,6.8,6.8,0,0,0,4.249-1.152c1.044-.882,1.513-2.269,1.513-4.429V29.132a16.732,16.732,0,0,1,.126-2.251H125.5v0.828a4.332,4.332,0,0,0,.036.594,3.8,3.8,0,0,0-3.439-1.584c-2.917,0-4.808,2.017-4.808,5.132,0,3.079,1.837,5.042,4.7,5.042a4.1,4.1,0,0,0,3.529-1.639,4.907,4.907,0,0,1-.468,2.395A3.237,3.237,0,0,1,122.1,39a3.049,3.049,0,0,1-2.791-1.368Zm2.143-6.968c0-2.143,1.116-3.493,2.917-3.493a2.72,2.72,0,0,1,1.746.648,3.317,3.317,0,0,1,1.081,2.665,3.814,3.814,0,0,1-.5,2.053,3.014,3.014,0,0,1-2.5,1.422,2.761,2.761,0,0,1-1.909-.81A3.475,3.475,0,0,1,119.648,31.9Zm10.529-9.021a16.241,16.241,0,0,1,.126,2.341v9.651a17.441,17.441,0,0,1-.126,2.341h2.611a18.552,18.552,0,0,1-.126-2.341V25.243a16.685,16.685,0,0,1,.126-2.359h-2.611Zm14.565,9.759c-0.036-.414-0.036-0.468-0.036-0.5a7.4,7.4,0,0,0-.522-2.737,4.574,4.574,0,0,0-4.483-2.845c-3.079,0-5.078,2.179-5.078,5.51,0,3.367,2.017,5.492,5.2,5.492a5.115,5.115,0,0,0,3.709-1.386,5.062,5.062,0,0,0,1.1-1.656l-2.125-.684a2.616,2.616,0,0,1-.522.936,3.029,3.029,0,0,1-4.411-.108,3.347,3.347,0,0,1-.666-2.017h7.832Zm-7.778-1.782a2.7,2.7,0,0,1,2.7-2.449,2.566,2.566,0,0,1,1.944.72,2.826,2.826,0,0,1,.792,1.729h-5.437Zm15.661,2.233h4.267V31.022h-4.267V26.755h-2.089v4.267h-4.267v2.071h4.267V37.36h2.089V33.093Zm20.756-9.867a4.955,4.955,0,0,1-1.746.162h-9.4a14.371,14.371,0,0,1-2.485-.144v2.251a17.308,17.308,0,0,1,2.449-.108h9.453a7.454,7.454,0,0,1-1.711,2.287,8.346,8.346,0,0,1-2.628,1.656,6.085,6.085,0,0,1,1.62,1.639,11.3,11.3,0,0,0,2.161-1.494,11.444,11.444,0,0,0,2.773-3.619,5,5,0,0,1,.72-1.26Zm-8.552,3.637a4.56,4.56,0,0,1,.09,1.08c0,3.4-.576,4.951-2.413,6.41a8.3,8.3,0,0,1-3.151,1.53,6.374,6.374,0,0,1,1.423,2.053,10.4,10.4,0,0,0,4.645-3.241c1.224-1.567,1.711-3.3,1.783-6.374a8.268,8.268,0,0,1,.072-1.458h-2.449Zm25.778-1.4a3.632,3.632,0,0,1-1.422.162l-4,.018c0.054-.576.054-0.738,0.072-1.134,0.036-.936.036-0.936,0.072-1.314,0-.126.018-0.234,0.018-0.342a5.241,5.241,0,0,1,.072-0.558l-2.413-.054a3.5,3.5,0,0,1,.054.7v0.45c0,0.522-.036,1.567-0.09,2.251l-3.151.018a10.344,10.344,0,0,1-2-.144l0.018,2.215a12.806,12.806,0,0,1,1.945-.09l2.989-.018c-0.018.126-.054,0.306-0.09,0.558a9.242,9.242,0,0,1-.918,3.133,10.142,10.142,0,0,1-4.682,4.537,7.118,7.118,0,0,1,1.621,1.908,13.206,13.206,0,0,0,4.861-4.987,13.184,13.184,0,0,0,1.44-5.15l4.2-.018a40.432,40.432,0,0,1-.4,5.762c-0.288,1.566-.559,1.963-1.333,1.963a9.329,9.329,0,0,1-2.376-.414,5.443,5.443,0,0,1,.414,2.3,13.728,13.728,0,0,0,2.232.2c2.161,0,2.791-.738,3.259-3.853,0.18-1.188.378-3.961,0.432-6a2.814,2.814,0,0,1,.2-1.206Zm18.234-.486a4.19,4.19,0,0,1-1.764.144h-3.241V23.568a8.237,8.237,0,0,1,.09-1.3h-2.5a6.939,6.939,0,0,1,.09,1.314v1.549h-3.529a14.008,14.008,0,0,1-1.945-.09,14.767,14.767,0,0,1,.072,1.71v2.611a13.4,13.4,0,0,1-.09,1.512h2.413c-0.036-.4-0.054-0.882-0.054-1.44V27.115h8.787a8.9,8.9,0,0,1-4.322,7.22,11.834,11.834,0,0,1-3.835,1.495,6.586,6.586,0,0,1,1.441,2.143,16.35,16.35,0,0,0,3.583-1.62,10.544,10.544,0,0,0,4.447-4.969,15.116,15.116,0,0,0,1.134-4.357,2.843,2.843,0,0,1,.271-0.99Zm5.09,0.468a18.907,18.907,0,0,1,4.592,3.655l1.548-1.963a25.5,25.5,0,0,0-4.645-3.475Zm0.631,11.884a6.37,6.37,0,0,1,1.188-.306,19.45,19.45,0,0,0,6.86-2.7,15.8,15.8,0,0,0,5.708-7.058,7.75,7.75,0,0,1-1.909-1.765,15.036,15.036,0,0,1-1.836,3.6,12.032,12.032,0,0,1-5.348,4.411,17.161,17.161,0,0,1-5.33,1.332Zm22.411,0.486a19.8,19.8,0,0,1-.072-2V31.058a9.311,9.311,0,0,0-.072-1.224,5.829,5.829,0,0,0,.612.306,42.624,42.624,0,0,1,6.374,3.439l1.26-2.125a52.9,52.9,0,0,0-8.174-3.8V24.306a12.075,12.075,0,0,1,.072-1.891h-2.467a11.578,11.578,0,0,1,.108,1.837V35.794a12.132,12.132,0,0,1-.108,2.017h2.467Zm12.22-11.019a26.143,26.143,0,0,1,2.989-.36c3.907-.288,4.609-0.36,6.068-0.576a7.954,7.954,0,0,0-2.5,1.819,6.271,6.271,0,0,0-1.71,4.231,4.818,4.818,0,0,0,2.574,4.339,10.836,10.836,0,0,0,4.214,1.188c0.306,0.054.4,0.054,0.612,0.108l0.324-2.449c-0.18.018-.342,0.018-0.36,0.018a10.926,10.926,0,0,1-2.683-.468,3.024,3.024,0,0,1-2.4-2.935c0-1.819,1.351-3.619,3.637-4.807a8.055,8.055,0,0,1,3.565-.972,2.809,2.809,0,0,1,.379.018l-0.127-2.287a13.267,13.267,0,0,1-2.07.162c-4.988.234-7.977,0.4-8.985,0.45-2.647.18-2.647,0.18-2.971,0.18-0.09,0-.288,0-0.684-0.018Zm10.839,0.972a11.421,11.421,0,0,1,1.6,2.467L263,29.51a9.656,9.656,0,0,0-1.6-2.431Zm4.952,0.738a9.412,9.412,0,0,0-1.585-2.323l-1.314.648a11.934,11.934,0,0,1,1.548,2.395Zm15.965-4.357a10.044,10.044,0,0,1-1.782,2.125,12.38,12.38,0,0,1-1.117-.9A19.521,19.521,0,0,0,279.9,23.3l-1.495-.99a9.888,9.888,0,0,1-1.512,1.945,4.5,4.5,0,0,1-1.206-2.035,10.072,10.072,0,0,1-1.549.072h-3.385a8.1,8.1,0,0,1-1.494-.09v1.819a8.013,8.013,0,0,1,1.1-.072h2.377a9.38,9.38,0,0,1-1.711,1.819,22.264,22.264,0,0,0-2.52-2.2l-1.333,1.188a15.087,15.087,0,0,1,2.413,2.107,15.308,15.308,0,0,1-3.385,1.782,5.626,5.626,0,0,1,.972,1.711,19.544,19.544,0,0,0,4.483-2.791v1.17a6.8,6.8,0,0,1,1.135-.072h3.979a6.905,6.905,0,0,1,1.206.072V27.673a17.393,17.393,0,0,0,4.358,2.611,5.874,5.874,0,0,1,.936-1.8,18.823,18.823,0,0,1-2.737-1.278,19.7,19.7,0,0,0,1.585-1.675,2.467,2.467,0,0,1,.324-0.378ZM272.9,27.061h-0.63a14.423,14.423,0,0,0,2.484-2.827,15.605,15.605,0,0,0,2.485,2.827H272.9Zm-4.483,9.219a11.309,11.309,0,0,1-1.747-.09v1.945a13.344,13.344,0,0,1,1.873-.09H281a13.189,13.189,0,0,1,1.873.09V36.19a11.569,11.569,0,0,1-1.765.09h-3.079c0.126-.18.541-0.954,0.829-1.495l-1.5-.54h1.747a11.828,11.828,0,0,1,1.3.054,8.823,8.823,0,0,1-.072-1.314V30.7a7.892,7.892,0,0,1,.072-1.206,10.184,10.184,0,0,1-1.4.072h-8.5a11.17,11.17,0,0,1-1.422-.072,8.786,8.786,0,0,1,.072,1.224v2.269a10.342,10.342,0,0,1-.072,1.314,11.6,11.6,0,0,1,1.3-.054h1.927l-1.585.576a6.931,6.931,0,0,1,.738,1.458h-3.042Zm4.987,0a14.579,14.579,0,0,0-.9-2.035h4.5a10.748,10.748,0,0,1-.918,2.035H273.4Zm-2.395-5.114h7.418v1.458H271.01V31.166ZM290.6,34.641a16.365,16.365,0,0,0,.864-2.881l-1.368-.45a13.657,13.657,0,0,1-.721,2.935Zm1.026-4.177a12.167,12.167,0,0,1,1.585,2.863l1.386-.918a11.7,11.7,0,0,0-1.567-2.683Zm-4.195-2.575V29.1h-0.918a15.3,15.3,0,0,1-1.783-.09v1.837a14.706,14.706,0,0,1,1.765-.09h0.936v5.041a13.337,13.337,0,0,1-2.809.378l0.27,1.98a10.877,10.877,0,0,1,1.422-.324,40.34,40.34,0,0,0,4.826-1.278V35.83l0.576,1.278c0.306-.216.306-0.216,0.594-0.414,1.225-.846,1.225-0.846,1.531-1.062a15.342,15.342,0,0,0,1.278-1.008v1.71c0,0.4-.126.468-0.792,0.468a7.079,7.079,0,0,1-1.405-.18,5.184,5.184,0,0,1,.415,1.819c0.7,0.054,1.188.072,1.584,0.072,1.458,0,1.981-.432,1.981-1.639v-2.3q-0.054-1.458-.108-2a10.062,10.062,0,0,0,1.368,2.791,10.966,10.966,0,0,0,2.2,2.323,7.6,7.6,0,0,1,1.08-1.764,8.746,8.746,0,0,1-2.773-2.593,20.117,20.117,0,0,0,2.395-2.557l-1.477-1.044a8.7,8.7,0,0,1-1.746,2.161,8.493,8.493,0,0,1-.864-2.665h2.412a15.345,15.345,0,0,1,1.711.09V27.529a11.139,11.139,0,0,1-1.729.108h-0.108c0.072-.936.162-2.521,0.216-3.457a15.243,15.243,0,0,1,.108-1.746,13.377,13.377,0,0,1-1.656.072h-4.231a12.229,12.229,0,0,1-1.8-.09v1.729a14.158,14.158,0,0,1,1.711-.072h4.033c-0.018.486-.018,0.54-0.054,0.99h-3.637a9.307,9.307,0,0,1-1.639-.09v1.71a12.534,12.534,0,0,1,1.639-.072h3.565c-0.018.306-.036,0.486-0.072,1.026h-4.556a11.628,11.628,0,0,1-1.728-.108v1.494a8.3,8.3,0,0,1-1.278.072h-0.721V27.889h0.522a6.327,6.327,0,0,1,1.063.054v-1.35l0.144,0.126a6.5,6.5,0,0,1,1.1-1.6,7.2,7.2,0,0,1-2.629-3.025h-1.98a8.319,8.319,0,0,1-3.115,3.889,5.4,5.4,0,0,1,.828,1.71c0.378-.306.486-0.4,0.828-0.7v0.954a10.51,10.51,0,0,1,1.063-.054h0.45Zm7.688,1.332v3.421a19.253,19.253,0,0,1-4,2.611V34.875c-0.954.288-1.278,0.4-1.963,0.558V30.752h0.721a7.377,7.377,0,0,1,1.4.09V29.294a12.784,12.784,0,0,1,1.6-.072h2.233Zm-8.462-2.953a10.729,10.729,0,0,0,1.8-2.557,10.632,10.632,0,0,0,1.909,2.539c-0.234.018-.342,0.018-0.667,0.018h-3.042Zm0.36,8.625a19.3,19.3,0,0,0-.793-3.493l-1.4.432a18.128,18.128,0,0,1,.756,3.511Z"/>
</svg>
