<svg xmlns="http://www.w3.org/2000/svg" width="150" height="70" viewBox="0 0 150 70">
  <metadata><?xpacket begin="﻿" id="W5M0MpCehiHzreSzNTczkc9d"?>
<x:xmpmeta xmlns:x="adobe:ns:meta/" x:xmptk="Adobe XMP Core 5.6-c138 79.159824, 2016/09/14-01:09:01        ">
   <rdf:RDF xmlns:rdf="http://www.w3.org/1999/02/22-rdf-syntax-ns#">
      <rdf:Description rdf:about=""/>
   </rdf:RDF>
</x:xmpmeta>
                                                                                                    
                                                                                                    
                                                                                                    
                                                                                                    
                                                                                                    
                                                                                                    
                                                                                                    
                                                                                                    
                                                                                                    
                                                                                                    
                                                                                                    
                                                                                                    
                                                                                                    
                                                                                                    
                                                                                                    
                                                                                                    
                                                                                                    
                                                                                                    
                                                                                                    
                                                                                                    
                           
<?xpacket end="w"?></metadata>
<defs>
    <style>
      .cls-1 {
        fill: #010101;
        fill-rule: evenodd;
      }
    </style>
  </defs>
  <path id="青森" class="cls-1" d="M71.266,24.611H46.376l0.3-1.687H70.017l1.414-8.016H48.087l0.285-1.617H73.263L74.689,5.2H49.8L50.22,2.814H35.806L35.384,5.2H10.423L9,13.29H33.958l-0.285,1.617H10.259L8.845,22.923H32.259l-0.3,1.688H7L5.612,32.486H69.878ZM66.38,34.384H8.442l-5.766,32.7H15.755l0.992-5.625H48.6l-0.992,5.625H60.614ZM19.8,44.158l0.4-2.25H52.045l-0.4,2.25H19.8Zm-1.724,9.773,0.4-2.25H50.322l-0.4,2.25H18.073ZM140.126,21.517l-13.848-4.008h14.555L142.8,6.329H120.022l0.621-3.516H106.792l-0.621,3.516H83.39l-1.971,11.18H95.973L80.712,21.517,78.655,33.189l24.12-7.594-1.338,7.594h13.851l1.338-7.594,21.444,7.594Zm-3.168,30.727-4.219-4.781H137.8L139.822,36H130.47l0.608-3.445H119.125L118.517,36h-9.562l-2.021,11.461h5.485l-6.258,4.781-2.5,14.2,11.2-9.7-1.811,10.266H125L126.838,56.6l7.616,9.844Zm-33.328,0-4.149-4.781h4.993L106.494,36H97.142l0.608-3.445H85.8L85.189,36H75.7l-2.02,11.461h5.414L72.9,52.244l-2.5,14.2,11.132-9.7L79.721,67.009H91.674L93.51,56.6l7.616,9.844Z"/>
</svg>
