<svg xmlns="http://www.w3.org/2000/svg" width="150" height="70" viewBox="0 0 150 70">
  <metadata><?xpacket begin="﻿" id="W5M0MpCehiHzreSzNTczkc9d"?>
<x:xmpmeta xmlns:x="adobe:ns:meta/" x:xmptk="Adobe XMP Core 5.6-c138 79.159824, 2016/09/14-01:09:01        ">
   <rdf:RDF xmlns:rdf="http://www.w3.org/1999/02/22-rdf-syntax-ns#">
      <rdf:Description rdf:about=""/>
   </rdf:RDF>
</x:xmpmeta>
                                                                                                    
                                                                                                    
                                                                                                    
                                                                                                    
                                                                                                    
                                                                                                    
                                                                                                    
                                                                                                    
                                                                                                    
                                                                                                    
                                                                                                    
                                                                                                    
                                                                                                    
                                                                                                    
                                                                                                    
                                                                                                    
                                                                                                    
                                                                                                    
                                                                                                    
                                                                                                    
                           
<?xpacket end="w"?></metadata>
<defs>
    <style>
      .cls-1 {
        fill: #010101;
        fill-rule: evenodd;
      }
    </style>
  </defs>
  <path id="函館_" data-name="函館 " class="cls-1" d="M56.763,26.3l-9.929,2.883L44.948,39.869,54.841,37.2Zm18.9-22.641h-64.2L9.532,14.626H28.587L25.229,17.72,23.593,27h10.2L30.143,47.673H28.1l1.14-6.469-9.827,1.9L17.507,53.931,26.268,52.1,25.722,55.2H15.6l6.324-35.859H10.249L1.966,66.306h61.1L71.35,19.337H59.678L53.355,55.2H40.206L46.815,17.72h-8.3l3.5-3.094H73.728ZM53.8,43.1l-9.087-1.9L42.841,51.822l9.049,2.109ZM31.364,29.181l-9.133-2.039L20.322,37.97l9.157,1.9ZM145.388,4.642h-9.7l0.323-1.828H122.157l-0.323,1.828h-9.7l-0.582,3.3-9.923-5.133H93.469l-12.8,5.625-2.1,11.883,17.118-6.961,13.766,6.469-0.236,1.336h1.617L102.912,66.1h30.164l3.98-22.57H119.338l0.47-2.672h17.718L141,21.165h1.477ZM103.005,51.611H92.037l-0.343,2.742H86.069l0.744-4.219h16.874l5.244-29.742h-9.14l0.62-3.516H89.372l-0.621,3.516h-8.93L71.763,66.1h29.743Zm18.967-33.4,0.509-2.883h8.789l-0.509,2.883h-8.789Zm-0.366,12.445,0.4-2.25h5.133l-0.4,2.25h-5.133ZM117.13,56.04l0.422-2.391h5.133l-0.422,2.391H117.13ZM90.123,31.361l0.545-3.094h4.57l-0.545,3.094h-4.57ZM88.275,41.837L88.846,38.6h4.57l-0.571,3.234h-4.57Z"/>
</svg>
