<svg id="グループ_1" data-name="グループ 1" xmlns="http://www.w3.org/2000/svg" width="380" height="60" viewBox="0 0 380 60">
  <metadata><?xpacket begin="﻿" id="W5M0MpCehiHzreSzNTczkc9d"?>
<x:xmpmeta xmlns:x="adobe:ns:meta/" x:xmptk="Adobe XMP Core 5.6-c138 79.159824, 2016/09/14-01:09:01        ">
   <rdf:RDF xmlns:rdf="http://www.w3.org/1999/02/22-rdf-syntax-ns#">
      <rdf:Description rdf:about=""/>
   </rdf:RDF>
</x:xmpmeta>
                                                                                                    
                                                                                                    
                                                                                                    
                                                                                                    
                                                                                                    
                                                                                                    
                                                                                                    
                                                                                                    
                                                                                                    
                                                                                                    
                                                                                                    
                                                                                                    
                                                                                                    
                                                                                                    
                                                                                                    
                                                                                                    
                                                                                                    
                                                                                                    
                                                                                                    
                                                                                                    
                           
<?xpacket end="w"?></metadata>
<defs>
    <style>
      .cls-1, .cls-3 {
        fill: #35a1f0;
      }

      .cls-2, .cls-4 {
        fill: #fff;
      }

      .cls-3, .cls-4 {
        fill-rule: evenodd;
      }
    </style>
  </defs>
  <rect id="角丸長方形_1" data-name="角丸長方形 1" class="cls-1" x="1" y="1" width="378" height="58" rx="4" ry="4"/>
  <rect id="角丸長方形_2" data-name="角丸長方形 2" class="cls-2" x="30" y="17" width="26" height="26" rx="4" ry="4"/>
  <path id="シェイプ_2" data-name="シェイプ 2" class="cls-3" d="M53,24.776a7.971,7.971,0,0,1-2.239.6,3.82,3.82,0,0,0,1.714-2.095A7.945,7.945,0,0,1,50,24.2,3.947,3.947,0,0,0,47.154,23a3.844,3.844,0,0,0-3.9,3.787,3.7,3.7,0,0,0,.1.863,11.178,11.178,0,0,1-8.035-3.956,3.687,3.687,0,0,0-.528,1.9,3.758,3.758,0,0,0,1.734,3.152,3.97,3.97,0,0,1-1.766-.474c0,0.016,0,.032,0,0.048a3.818,3.818,0,0,0,3.127,3.713,4.016,4.016,0,0,1-1.76.065,3.889,3.889,0,0,0,3.641,2.63,7.967,7.967,0,0,1-4.841,1.621A8.152,8.152,0,0,1,34,36.3,11.27,11.27,0,0,0,39.975,38,10.85,10.85,0,0,0,51.066,27.226q0-.246-0.011-0.49A7.8,7.8,0,0,0,53,24.776Z"/>
  <path id="Twitterアカウントで登録" class="cls-4" d="M91.156,25.044h2.251a18.918,18.918,0,0,1,2.647.126V22.758a19.108,19.108,0,0,1-2.647.126h-7.13a18.115,18.115,0,0,1-2.449-.126v2.413a17.866,17.866,0,0,1,2.467-.126h2.431v9.831a15.1,15.1,0,0,1-.144,2.341H91.3a14.95,14.95,0,0,1-.144-2.341V25.044Zm17.1,12.172a12.306,12.306,0,0,1,.45-1.71l2-6.392c0.468-1.494.5-1.638,0.738-2.233H108.8a11.18,11.18,0,0,1-.4,2.143l-1.008,3.6c-0.036.126-.162,0.7-0.216,0.954s-0.054.252-.09,0.4c-0.036-.162-0.054-0.18-0.108-0.414-0.108-.378-0.2-0.72-0.252-0.882l-1.333-4.087a17.668,17.668,0,0,1-.45-1.71h-1.926a12.735,12.735,0,0,1-.451,1.71l-1.3,3.925c-0.072.216-.378,1.278-0.414,1.458-0.144-.7-0.252-1.206-0.324-1.44l-0.99-3.511a12.455,12.455,0,0,1-.4-2.143H96.482c0.252,0.666.5,1.4,0.756,2.233l1.981,6.392a14.666,14.666,0,0,1,.468,1.71h2.088a17.337,17.337,0,0,1,.468-1.71l1.387-4.213c0.054-.18.27-0.918,0.36-1.242,0.2,0.738.306,1.134,0.342,1.206l1.386,4.249a14.593,14.593,0,0,1,.451,1.71h2.088Zm4.479-14.332v2.287h2.647V22.884h-2.647Zm0,4a14.8,14.8,0,0,1,.144,2.341v5.654a16.188,16.188,0,0,1-.144,2.341h2.629a18.093,18.093,0,0,1-.126-2.359V29.24a16.189,16.189,0,0,1,.126-2.359h-2.629Zm6.084-2.773a20.728,20.728,0,0,1,.126,2.215v0.558H118.28a8.276,8.276,0,0,1-1.621-.108V28.9a9.108,9.108,0,0,1,1.6-.108h0.684v6.05c0,1.891.828,2.629,2.9,2.629a5.639,5.639,0,0,0,2.251-.378l-0.324-1.909a2.386,2.386,0,0,1-1.315.4,1,1,0,0,1-1.188-1.206V28.79h0.81a9.943,9.943,0,0,1,1.765.108V26.773a10.349,10.349,0,0,1-1.819.108h-0.756V26.323a19.919,19.919,0,0,1,.126-2.215H118.82Zm7.812,0a20.728,20.728,0,0,1,.126,2.215v0.558h-0.666a8.27,8.27,0,0,1-1.621-.108V28.9a9.1,9.1,0,0,1,1.6-.108h0.684v6.05c0,1.891.828,2.629,2.9,2.629a5.631,5.631,0,0,0,2.25-.378l-0.324-1.909a2.381,2.381,0,0,1-1.314.4,1,1,0,0,1-1.188-1.206V28.79h0.81a9.924,9.924,0,0,1,1.764.108V26.773a10.33,10.33,0,0,1-1.818.108h-0.756V26.323a19.919,19.919,0,0,1,.126-2.215h-2.575Zm16.292,8.534c-0.036-.414-0.036-0.468-0.036-0.5a7.4,7.4,0,0,0-.522-2.737,4.574,4.574,0,0,0-4.483-2.845c-3.079,0-5.078,2.179-5.078,5.51,0,3.367,2.017,5.492,5.2,5.492a5.114,5.114,0,0,0,3.709-1.386,5.062,5.062,0,0,0,1.1-1.656l-2.124-.684a2.616,2.616,0,0,1-.523.936,3.029,3.029,0,0,1-4.411-.108,3.347,3.347,0,0,1-.666-2.017h7.832Zm-7.778-1.782a2.7,2.7,0,0,1,2.7-2.449,2.566,2.566,0,0,1,1.944.72,2.827,2.827,0,0,1,.793,1.729h-5.438Zm17.1-3.979a9.326,9.326,0,0,0-1.674-.2,3.445,3.445,0,0,0-3.385,1.891V26.881h-2.449a14.239,14.239,0,0,1,.126,2.341v5.654a19.756,19.756,0,0,1-.126,2.341h2.575a18.942,18.942,0,0,1-.126-2.341V31.544a2.9,2.9,0,0,1,.738-1.8,2.571,2.571,0,0,1,2.089-.882,5.373,5.373,0,0,1,1.6.288Zm15.842-3.655a4.955,4.955,0,0,1-1.746.162h-9.4a14.371,14.371,0,0,1-2.485-.144v2.251a17.308,17.308,0,0,1,2.449-.108h9.453a7.454,7.454,0,0,1-1.711,2.287,8.346,8.346,0,0,1-2.628,1.656,6.085,6.085,0,0,1,1.62,1.639,11.3,11.3,0,0,0,2.161-1.494,11.444,11.444,0,0,0,2.773-3.619,5,5,0,0,1,.72-1.26Zm-8.552,3.637a4.56,4.56,0,0,1,.09,1.08c0,3.4-.576,4.951-2.413,6.41a8.3,8.3,0,0,1-3.151,1.53,6.374,6.374,0,0,1,1.423,2.053,10.4,10.4,0,0,0,4.645-3.241c1.224-1.567,1.711-3.3,1.783-6.374a8.268,8.268,0,0,1,.072-1.458h-2.449Zm25.778-1.4a3.632,3.632,0,0,1-1.422.162l-4,.018c0.054-.576.054-0.738,0.072-1.134,0.036-.936.036-0.936,0.072-1.314,0-.126.018-0.234,0.018-0.342a5.241,5.241,0,0,1,.072-0.558l-2.413-.054a3.5,3.5,0,0,1,.054.7v0.45c0,0.522-.036,1.567-0.09,2.251l-3.151.018a10.344,10.344,0,0,1-2-.144l0.018,2.215a12.806,12.806,0,0,1,1.945-.09l2.989-.018c-0.018.126-.054,0.306-0.09,0.558a9.242,9.242,0,0,1-.918,3.133,10.142,10.142,0,0,1-4.682,4.537,7.118,7.118,0,0,1,1.621,1.908,13.206,13.206,0,0,0,4.861-4.987,13.184,13.184,0,0,0,1.44-5.15l4.2-.018a40.432,40.432,0,0,1-.4,5.762c-0.288,1.566-.559,1.963-1.333,1.963a9.329,9.329,0,0,1-2.376-.414,5.443,5.443,0,0,1,.414,2.3,13.728,13.728,0,0,0,2.232.2c2.161,0,2.791-.738,3.259-3.853,0.18-1.188.378-3.961,0.432-6a2.814,2.814,0,0,1,.2-1.206Zm18.234-.486a4.19,4.19,0,0,1-1.764.144h-3.241V23.568a8.237,8.237,0,0,1,.09-1.3h-2.5a6.939,6.939,0,0,1,.09,1.314v1.549h-3.529a14.008,14.008,0,0,1-1.945-.09,14.767,14.767,0,0,1,.072,1.71v2.611a13.4,13.4,0,0,1-.09,1.512h2.413c-0.036-.4-0.054-0.882-0.054-1.44V27.115h8.787a8.9,8.9,0,0,1-4.322,7.22,11.834,11.834,0,0,1-3.835,1.495,6.586,6.586,0,0,1,1.441,2.143,16.35,16.35,0,0,0,3.583-1.62,10.544,10.544,0,0,0,4.447-4.969,15.116,15.116,0,0,0,1.134-4.357,2.843,2.843,0,0,1,.271-0.99Zm5.09,0.468a18.907,18.907,0,0,1,4.592,3.655l1.548-1.963a25.5,25.5,0,0,0-4.645-3.475Zm0.631,11.884a6.37,6.37,0,0,1,1.188-.306,19.45,19.45,0,0,0,6.86-2.7,15.8,15.8,0,0,0,5.708-7.058,7.75,7.75,0,0,1-1.909-1.765,15.036,15.036,0,0,1-1.836,3.6,12.032,12.032,0,0,1-5.348,4.411,17.161,17.161,0,0,1-5.33,1.332Zm22.411,0.486a19.8,19.8,0,0,1-.072-2V31.058a9.311,9.311,0,0,0-.072-1.224,5.829,5.829,0,0,0,.612.306,42.624,42.624,0,0,1,6.374,3.439l1.26-2.125a52.9,52.9,0,0,0-8.174-3.8V24.306a12.075,12.075,0,0,1,.072-1.891h-2.467a11.578,11.578,0,0,1,.108,1.837V35.794a12.132,12.132,0,0,1-.108,2.017h2.467ZM243.9,26.791a26.143,26.143,0,0,1,2.989-.36c3.907-.288,4.609-0.36,6.068-0.576a7.966,7.966,0,0,0-2.5,1.819,6.271,6.271,0,0,0-1.71,4.231,4.818,4.818,0,0,0,2.574,4.339,10.836,10.836,0,0,0,4.214,1.188c0.306,0.054.4,0.054,0.612,0.108l0.324-2.449c-0.18.018-.342,0.018-0.36,0.018a10.926,10.926,0,0,1-2.683-.468,3.024,3.024,0,0,1-2.395-2.935c0-1.819,1.351-3.619,3.637-4.807a8.055,8.055,0,0,1,3.565-.972,2.809,2.809,0,0,1,.379.018l-0.126-2.287a13.305,13.305,0,0,1-2.071.162c-4.988.234-7.976,0.4-8.985,0.45-2.647.18-2.647,0.18-2.971,0.18-0.09,0-.288,0-0.684-0.018Zm10.839,0.972a11.421,11.421,0,0,1,1.6,2.467l1.368-.72a9.656,9.656,0,0,0-1.6-2.431Zm4.952,0.738a9.412,9.412,0,0,0-1.585-2.323l-1.314.648a11.934,11.934,0,0,1,1.548,2.395Zm15.965-4.357a10.044,10.044,0,0,1-1.782,2.125,12.38,12.38,0,0,1-1.117-.9,19.521,19.521,0,0,0,1.855-2.071l-1.5-.99a9.888,9.888,0,0,1-1.512,1.945,4.5,4.5,0,0,1-1.206-2.035,10.072,10.072,0,0,1-1.549.072h-3.385a8.1,8.1,0,0,1-1.494-.09v1.819a8.013,8.013,0,0,1,1.1-.072h2.377a9.38,9.38,0,0,1-1.711,1.819,22.264,22.264,0,0,0-2.52-2.2l-1.333,1.188a15.087,15.087,0,0,1,2.413,2.107,15.286,15.286,0,0,1-3.385,1.782,5.626,5.626,0,0,1,.972,1.711,19.544,19.544,0,0,0,4.483-2.791v1.17a6.8,6.8,0,0,1,1.135-.072h3.979a6.905,6.905,0,0,1,1.206.072V27.673a17.393,17.393,0,0,0,4.358,2.611,5.874,5.874,0,0,1,.936-1.8,18.823,18.823,0,0,1-2.737-1.278,19.7,19.7,0,0,0,1.585-1.675,2.467,2.467,0,0,1,.324-0.378Zm-8.048,2.917h-0.63a14.423,14.423,0,0,0,2.484-2.827,15.605,15.605,0,0,0,2.485,2.827h-4.339Zm-4.483,9.219a11.309,11.309,0,0,1-1.747-.09v1.945a13.344,13.344,0,0,1,1.873-.09h12.459a13.189,13.189,0,0,1,1.873.09V36.19a11.569,11.569,0,0,1-1.765.09H272.74c0.126-.18.541-0.954,0.829-1.495l-1.5-.54h1.747a11.828,11.828,0,0,1,1.3.054,8.823,8.823,0,0,1-.072-1.314V30.7a7.892,7.892,0,0,1,.072-1.206,10.184,10.184,0,0,1-1.4.072h-8.5a11.17,11.17,0,0,1-1.422-.072,8.786,8.786,0,0,1,.072,1.224v2.269a10.342,10.342,0,0,1-.072,1.314,11.6,11.6,0,0,1,1.3-.054h1.927l-1.585.576a6.931,6.931,0,0,1,.738,1.458h-3.042Zm4.987,0a14.579,14.579,0,0,0-.9-2.035h4.5a10.748,10.748,0,0,1-.918,2.035h-2.683Zm-2.395-5.114h7.419v1.458h-7.419V31.166ZM285.3,34.641a16.365,16.365,0,0,0,.864-2.881l-1.368-.45a13.657,13.657,0,0,1-.721,2.935Zm1.026-4.177a12.167,12.167,0,0,1,1.585,2.863l1.386-.918a11.7,11.7,0,0,0-1.567-2.683Zm-4.195-2.575V29.1h-0.918a15.3,15.3,0,0,1-1.783-.09v1.837a14.706,14.706,0,0,1,1.765-.09h0.936v5.041a13.337,13.337,0,0,1-2.809.378l0.27,1.98a10.877,10.877,0,0,1,1.422-.324,40.34,40.34,0,0,0,4.826-1.278V35.83l0.576,1.278c0.306-.216.306-0.216,0.594-0.414,1.225-.846,1.225-0.846,1.531-1.062a15.342,15.342,0,0,0,1.278-1.008v1.71c0,0.4-.126.468-0.792,0.468a7.079,7.079,0,0,1-1.4-.18,5.184,5.184,0,0,1,.415,1.819c0.7,0.054,1.188.072,1.584,0.072,1.458,0,1.981-.432,1.981-1.639v-2.3q-0.054-1.458-.108-2a10.062,10.062,0,0,0,1.368,2.791,10.966,10.966,0,0,0,2.2,2.323,7.6,7.6,0,0,1,1.08-1.764,8.746,8.746,0,0,1-2.773-2.593,20.117,20.117,0,0,0,2.395-2.557l-1.477-1.044a8.7,8.7,0,0,1-1.746,2.161,8.493,8.493,0,0,1-.864-2.665h2.412a15.345,15.345,0,0,1,1.711.09V27.529a11.139,11.139,0,0,1-1.729.108h-0.108c0.072-.936.162-2.521,0.216-3.457a15.243,15.243,0,0,1,.108-1.746,13.377,13.377,0,0,1-1.656.072H288.4a12.229,12.229,0,0,1-1.8-.09v1.729a14.158,14.158,0,0,1,1.711-.072h4.033c-0.018.486-.018,0.54-0.054,0.99h-3.637a9.307,9.307,0,0,1-1.639-.09v1.71a12.534,12.534,0,0,1,1.639-.072h3.565c-0.018.306-.036,0.486-0.072,1.026h-4.556a11.628,11.628,0,0,1-1.728-.108v1.494a8.3,8.3,0,0,1-1.278.072h-0.721V27.889h0.522a6.327,6.327,0,0,1,1.063.054v-1.35l0.144,0.126a6.5,6.5,0,0,1,1.1-1.6,7.2,7.2,0,0,1-2.629-3.025h-1.98a8.319,8.319,0,0,1-3.115,3.889,5.4,5.4,0,0,1,.828,1.71c0.378-.306.486-0.4,0.828-0.7v0.954a10.51,10.51,0,0,1,1.063-.054h0.45Zm7.688,1.332v3.421a19.253,19.253,0,0,1-4,2.611V34.875c-0.954.288-1.278,0.4-1.963,0.558V30.752h0.721a7.377,7.377,0,0,1,1.4.09V29.294a12.784,12.784,0,0,1,1.6-.072h2.233Zm-8.462-2.953a10.729,10.729,0,0,0,1.8-2.557,10.632,10.632,0,0,0,1.909,2.539c-0.234.018-.342,0.018-0.667,0.018H281.36Zm0.36,8.625a19.3,19.3,0,0,0-.793-3.493l-1.4.432a18.128,18.128,0,0,1,.756,3.511Z"/>
</svg>
