<svg id="グループ_1" data-name="グループ 1" xmlns="http://www.w3.org/2000/svg" width="380" height="60" viewBox="0 0 380 60">
  <metadata><?xpacket begin="﻿" id="W5M0MpCehiHzreSzNTczkc9d"?>
<x:xmpmeta xmlns:x="adobe:ns:meta/" x:xmptk="Adobe XMP Core 5.6-c138 79.159824, 2016/09/14-01:09:01        ">
   <rdf:RDF xmlns:rdf="http://www.w3.org/1999/02/22-rdf-syntax-ns#">
      <rdf:Description rdf:about=""/>
   </rdf:RDF>
</x:xmpmeta>
                                                                                                    
                                                                                                    
                                                                                                    
                                                                                                    
                                                                                                    
                                                                                                    
                                                                                                    
                                                                                                    
                                                                                                    
                                                                                                    
                                                                                                    
                                                                                                    
                                                                                                    
                                                                                                    
                                                                                                    
                                                                                                    
                                                                                                    
                                                                                                    
                                                                                                    
                                                                                                    
                           
<?xpacket end="w"?></metadata>
<defs>
    <style>
      .cls-1, .cls-3 {
        fill: #35a1f0;
      }

      .cls-2, .cls-4 {
        fill: #fff;
      }

      .cls-3, .cls-4 {
        fill-rule: evenodd;
      }
    </style>
  </defs>
  <rect id="角丸長方形_1" data-name="角丸長方形 1" class="cls-1" x="1" y="1" width="378" height="58" rx="4" ry="4"/>
  <rect id="角丸長方形_2" data-name="角丸長方形 2" class="cls-2" x="30" y="17" width="26" height="26" rx="4" ry="4"/>
  <path id="シェイプ_2" data-name="シェイプ 2" class="cls-3" d="M53,24.776a7.972,7.972,0,0,1-2.239.6,3.82,3.82,0,0,0,1.714-2.095A7.945,7.945,0,0,1,50,24.2,3.947,3.947,0,0,0,47.154,23a3.844,3.844,0,0,0-3.9,3.787,3.7,3.7,0,0,0,.1.863,11.178,11.178,0,0,1-8.035-3.956,3.687,3.687,0,0,0-.528,1.9,3.758,3.758,0,0,0,1.734,3.152,3.97,3.97,0,0,1-1.766-.474c0,0.016,0,.032,0,0.048a3.818,3.818,0,0,0,3.127,3.713,4.016,4.016,0,0,1-1.76.065,3.889,3.889,0,0,0,3.641,2.63,7.967,7.967,0,0,1-4.841,1.621A8.152,8.152,0,0,1,34,36.3,11.27,11.27,0,0,0,39.975,38,10.85,10.85,0,0,0,51.066,27.226q0-.246-0.011-0.49A7.8,7.8,0,0,0,53,24.776Z"/>
  <path id="Twitterでログイン" class="cls-4" d="M119.156,25.044h2.251a18.908,18.908,0,0,1,2.646.126V22.758a19.1,19.1,0,0,1-2.646.126h-7.131a18.105,18.105,0,0,1-2.448-.126v2.413a17.856,17.856,0,0,1,2.466-.126h2.431v9.831a15.1,15.1,0,0,1-.144,2.341H119.3a14.95,14.95,0,0,1-.144-2.341V25.044Zm17.1,12.172a12.306,12.306,0,0,1,.45-1.71l2-6.392c0.468-1.494.5-1.638,0.738-2.233H136.8a11.18,11.18,0,0,1-.4,2.143l-1.008,3.6c-0.036.126-.162,0.7-0.216,0.954s-0.054.252-.09,0.4c-0.036-.162-0.054-0.18-0.108-0.414-0.108-.378-0.2-0.72-0.252-0.882l-1.333-4.087a17.668,17.668,0,0,1-.45-1.71h-1.926a12.735,12.735,0,0,1-.451,1.71l-1.3,3.925c-0.072.216-.378,1.278-0.414,1.458-0.144-.7-0.252-1.206-0.324-1.44l-0.99-3.511a12.475,12.475,0,0,1-.4-2.143h-2.664c0.252,0.666.5,1.4,0.756,2.233l1.98,6.392a14.532,14.532,0,0,1,.469,1.71h2.088a17.337,17.337,0,0,1,.468-1.71l1.387-4.213c0.054-.18.27-0.918,0.36-1.242,0.2,0.738.306,1.134,0.342,1.206l1.386,4.249a14.593,14.593,0,0,1,.451,1.71h2.088Zm4.479-14.332v2.287h2.647V22.884h-2.647Zm0,4a14.8,14.8,0,0,1,.144,2.341v5.654a16.188,16.188,0,0,1-.144,2.341h2.629a18.093,18.093,0,0,1-.126-2.359V29.24a16.189,16.189,0,0,1,.126-2.359h-2.629Zm6.084-2.773a20.728,20.728,0,0,1,.126,2.215v0.558H146.28a8.276,8.276,0,0,1-1.621-.108V28.9a9.108,9.108,0,0,1,1.6-.108h0.684v6.05c0,1.891.828,2.629,2.9,2.629a5.639,5.639,0,0,0,2.251-.378l-0.324-1.909a2.386,2.386,0,0,1-1.315.4,1,1,0,0,1-1.188-1.206V28.79h0.81a9.943,9.943,0,0,1,1.765.108V26.773a10.349,10.349,0,0,1-1.819.108h-0.756V26.323a19.919,19.919,0,0,1,.126-2.215H146.82Zm7.812,0a20.728,20.728,0,0,1,.126,2.215v0.558h-0.666a8.27,8.27,0,0,1-1.621-.108V28.9a9.1,9.1,0,0,1,1.6-.108h0.684v6.05c0,1.891.828,2.629,2.9,2.629a5.631,5.631,0,0,0,2.25-.378l-0.324-1.909a2.381,2.381,0,0,1-1.314.4,1,1,0,0,1-1.188-1.206V28.79h0.81a9.924,9.924,0,0,1,1.764.108V26.773a10.33,10.33,0,0,1-1.818.108h-0.756V26.323a19.919,19.919,0,0,1,.126-2.215h-2.575Zm16.292,8.534c-0.036-.414-0.036-0.468-0.036-0.5a7.4,7.4,0,0,0-.522-2.737,4.574,4.574,0,0,0-4.483-2.845c-3.079,0-5.078,2.179-5.078,5.51,0,3.367,2.017,5.492,5.2,5.492a5.114,5.114,0,0,0,3.709-1.386,5.062,5.062,0,0,0,1.1-1.656l-2.124-.684a2.616,2.616,0,0,1-.523.936,3.029,3.029,0,0,1-4.411-.108,3.347,3.347,0,0,1-.666-2.017h7.832Zm-7.778-1.782a2.7,2.7,0,0,1,2.7-2.449,2.566,2.566,0,0,1,1.944.72,2.827,2.827,0,0,1,.793,1.729h-5.438Zm17.1-3.979a9.326,9.326,0,0,0-1.674-.2,3.445,3.445,0,0,0-3.385,1.891V26.881h-2.449a14.239,14.239,0,0,1,.126,2.341v5.654a19.756,19.756,0,0,1-.126,2.341h2.575a18.942,18.942,0,0,1-.126-2.341V31.544a2.9,2.9,0,0,1,.738-1.8,2.571,2.571,0,0,1,2.089-.882,5.373,5.373,0,0,1,1.6.288Zm1.654-.09a26.143,26.143,0,0,1,2.989-.36c3.907-.288,4.609-0.36,6.068-0.576a7.966,7.966,0,0,0-2.5,1.819,6.271,6.271,0,0,0-1.71,4.231,4.818,4.818,0,0,0,2.574,4.339,10.836,10.836,0,0,0,4.214,1.188c0.306,0.054.4,0.054,0.612,0.108l0.324-2.449c-0.18.018-.342,0.018-0.36,0.018a10.926,10.926,0,0,1-2.683-.468,3.024,3.024,0,0,1-2.395-2.935c0-1.819,1.351-3.619,3.637-4.807a8.055,8.055,0,0,1,3.565-.972,2.809,2.809,0,0,1,.379.018l-0.126-2.287a13.305,13.305,0,0,1-2.071.162c-4.988.234-7.976,0.4-8.985,0.45-2.647.18-2.647,0.18-2.971,0.18-0.09,0-.288,0-0.684-0.018Zm10.839,0.972a11.421,11.421,0,0,1,1.6,2.467l1.368-.72a9.656,9.656,0,0,0-1.6-2.431Zm4.952,0.738a9.412,9.412,0,0,0-1.585-2.323l-1.314.648a11.934,11.934,0,0,1,1.548,2.395Zm14.093,7.454V37.2h2.322a12.347,12.347,0,0,1-.072-1.566v-10.3c0-.666.018-1.026,0.054-1.494-0.414.036-.738,0.054-1.512,0.054H202.35c-0.72,0-1.1-.018-1.531-0.054a11.96,11.96,0,0,1,.072,1.512V35.668a12.037,12.037,0,0,1-.072,1.548h2.323v-1.26h8.643Zm0-2.053h-8.643V25.927h8.643V33.9Zm19.152-9.147,0.954-.342a8.457,8.457,0,0,0-1.386-2.323l-1.441.5a9.832,9.832,0,0,1,1.243,2.071,4.954,4.954,0,0,1-.9.054l-3.944.054c-0.378.018-.666,0.018-0.864,0.036,0.252-.468.378-0.738,0.7-1.459a2.5,2.5,0,0,1,.36-0.648l-2.466-.5a6.77,6.77,0,0,1-.919,2.395,13.844,13.844,0,0,1-4.663,5.222,4.794,4.794,0,0,1,1.747,1.548,17.416,17.416,0,0,0,4.213-4.627l5.419-.072a14.323,14.323,0,0,1-5.257,7.6,15.634,15.634,0,0,1-3.943,2.107,5.547,5.547,0,0,1,1.53,1.891,17.929,17.929,0,0,0,6.41-4.555,18.664,18.664,0,0,0,3.691-6.95,3.2,3.2,0,0,1,.45-1.08Zm3.151-1.044a9.391,9.391,0,0,0-1.386-2.233l-1.405.54a11.637,11.637,0,0,1,1.351,2.287ZM248.2,22.38a14.409,14.409,0,0,1-3.349,3.367,26.3,26.3,0,0,1-9.453,4.681,6.774,6.774,0,0,1,1.206,2.053,29.16,29.16,0,0,0,6.428-2.917V35.9a10.131,10.131,0,0,1-.108,1.945h2.521a13.625,13.625,0,0,1-.09-2V28.159A31.847,31.847,0,0,0,249.6,24.45a7.4,7.4,0,0,1,.666-0.63Zm6.44,3.061a18.907,18.907,0,0,1,4.592,3.655l1.548-1.963a25.5,25.5,0,0,0-4.645-3.475Zm0.631,11.884a6.37,6.37,0,0,1,1.188-.306,19.45,19.45,0,0,0,6.86-2.7,15.8,15.8,0,0,0,5.708-7.058,7.75,7.75,0,0,1-1.909-1.765,15.036,15.036,0,0,1-1.836,3.6,12.032,12.032,0,0,1-5.348,4.411,17.161,17.161,0,0,1-5.33,1.332Z"/>
</svg>
