<svg xmlns="http://www.w3.org/2000/svg" width="120" height="34" viewBox="0 0 120 34">
  <metadata><?xpacket begin="﻿" id="W5M0MpCehiHzreSzNTczkc9d"?>
<x:xmpmeta xmlns:x="adobe:ns:meta/" x:xmptk="Adobe XMP Core 5.6-c138 79.159824, 2016/09/14-01:09:01        ">
   <rdf:RDF xmlns:rdf="http://www.w3.org/1999/02/22-rdf-syntax-ns#">
      <rdf:Description rdf:about=""/>
   </rdf:RDF>
</x:xmpmeta>
                                                                                                    
                                                                                                    
                                                                                                    
                                                                                                    
                                                                                                    
                                                                                                    
                                                                                                    
                                                                                                    
                                                                                                    
                                                                                                    
                                                                                                    
                                                                                                    
                                                                                                    
                                                                                                    
                                                                                                    
                                                                                                    
                                                                                                    
                                                                                                    
                                                                                                    
                                                                                                    
                           
<?xpacket end="w"?></metadata>
<defs>
    <style>
      .cls-1, .cls-4 {
        fill: #6838b5;
      }

      .cls-2, .cls-3 {
        fill: #fff;
      }

      .cls-3, .cls-4 {
        fill-rule: evenodd;
      }
    </style>
  </defs>
  <rect id="角丸長方形_1" data-name="角丸長方形 1" class="cls-1" x="1" y="1" width="118" height="32" rx="4" ry="4"/>
  <rect id="角丸長方形_2" data-name="角丸長方形 2" class="cls-2" x="4" y="4" width="26" height="26" rx="4" ry="4"/>
  <path id="ログイン" class="cls-3" d="M51.616,21.73v1.035h1.935a10.282,10.282,0,0,1-.06-1.3V12.88c0-.555.015-0.855,0.045-1.245-0.345.03-.615,0.045-1.26,0.045h-8.52c-0.6,0-.915-0.015-1.275-0.045a9.962,9.962,0,0,1,.06,1.26V21.49a10.024,10.024,0,0,1-.06,1.29h1.935V21.73h7.2Zm0-1.71h-7.2V13.375h7.2V20.02ZM68.175,12.4l0.8-.285a7.048,7.048,0,0,0-1.155-1.935l-1.2.42a8.222,8.222,0,0,1,1.035,1.725,4.128,4.128,0,0,1-.75.045l-3.285.045c-0.315.015-.555,0.015-0.72,0.03,0.21-.39.315-0.615,0.585-1.215a2.083,2.083,0,0,1,.3-0.54l-2.055-.42a5.649,5.649,0,0,1-.765,1.995,11.538,11.538,0,0,1-3.885,4.35,3.984,3.984,0,0,1,1.455,1.29,14.507,14.507,0,0,0,3.51-3.855l4.515-.06a11.935,11.935,0,0,1-4.38,6.33,13.021,13.021,0,0,1-3.285,1.755,4.622,4.622,0,0,1,1.275,1.575,14.942,14.942,0,0,0,5.34-3.795,15.556,15.556,0,0,0,3.075-5.79,2.666,2.666,0,0,1,.375-0.9Zm2.625-.87a7.822,7.822,0,0,0-1.155-1.86l-1.17.45a9.651,9.651,0,0,1,1.125,1.9Zm12.359-1.11a12,12,0,0,1-2.79,2.8,21.9,21.9,0,0,1-7.875,3.9,5.642,5.642,0,0,1,1,1.71,24.308,24.308,0,0,0,5.355-2.43v5.28a8.437,8.437,0,0,1-.09,1.62h2.1a11.347,11.347,0,0,1-.075-1.665v-6.4a26.523,26.523,0,0,0,3.54-3.09,6.179,6.179,0,0,1,.555-0.525Zm5.969,2.55a15.748,15.748,0,0,1,3.825,3.045l1.29-1.635a21.246,21.246,0,0,0-3.87-2.895Zm0.525,9.9a5.311,5.311,0,0,1,.99-0.255,16.2,16.2,0,0,0,5.715-2.25,13.168,13.168,0,0,0,4.755-5.88,6.473,6.473,0,0,1-1.59-1.47,12.53,12.53,0,0,1-1.53,3,10.021,10.021,0,0,1-4.455,3.675A14.291,14.291,0,0,1,89.1,20.8Z"/>
  <path id="シェイプ_1" data-name="シェイプ 1" class="cls-4" d="M5,10q5.338,0,10.676,0c0.017,0.044.033,0.089,0.048,0.135a11.085,11.085,0,0,0-.033,1.3H12.462C13.347,12.69,14.3,13.9,15.251,15.1c0.532,0.678,1.08,1.345,1.59,2.04,1.451-1.256,2.883-2.535,4.324-3.8-0.855,0-1.711,0-2.566,0q-0.18-.718-0.36-1.436,4.683,0,9.366,0c-0.024.053-.046,0.108-0.074,0.16-0.287.437-.615,0.847-0.913,1.277-0.565,0-1.129,0-1.694,0a4.563,4.563,0,0,0-.656.14,8.258,8.258,0,0,0-.987.619,47,47,0,0,0-3.777,2.954,9.74,9.74,0,0,0-1.382,1.4,1.121,1.121,0,0,0-.138.7c0,1.225.017,2.452,0.11,3.674,1.125,0.1,2.258,0,3.383.084-0.021.343-.029,0.687-0.061,1.029-1.1-.041-2.2-0.022-3.306-0.027-1.329,0-2.659-.01-3.988.031-1.051.018-2.1,0.06-3.155,0.042q0.087-.487.175-0.975a20.416,20.416,0,0,0,2.2-.083,2.391,2.391,0,0,0,.713-0.186,0.353,0.353,0,0,0,.211-0.21,4.483,4.483,0,0,0,.094-0.855c0.03-.953.022-1.907-0.042-2.859a1.012,1.012,0,0,0-.247-0.521c-0.5-.717-1.057-1.4-1.607-2.084C11.476,15,10.461,13.8,9.394,12.635a13.778,13.778,0,0,0-1.172-1.161,0.3,0.3,0,0,0-.211-0.039c-1,0-2,0-3.007,0C5,10.96,5,10.48,5,10Zm20.856,4.83c1.044,0.13,2.094.224,3.144,0.3q-0.837,3.153-1.672,6.307c-0.479-.034-0.958-0.074-1.437-0.111C25.885,19.164,25.864,17,25.856,14.83Zm-0.208,7.52a15.916,15.916,0,0,0,1.744.15q-0.115.75-.228,1.5-0.756-.05-1.51-0.117C25.655,23.373,25.643,22.861,25.648,22.35Z"/>
</svg>
