<svg id="グループ_1" data-name="グループ 1" xmlns="http://www.w3.org/2000/svg" width="380" height="60" viewBox="0 0 380 60">
  <metadata><?xpacket begin="﻿" id="W5M0MpCehiHzreSzNTczkc9d"?>
<x:xmpmeta xmlns:x="adobe:ns:meta/" x:xmptk="Adobe XMP Core 5.6-c138 79.159824, 2016/09/14-01:09:01        ">
   <rdf:RDF xmlns:rdf="http://www.w3.org/1999/02/22-rdf-syntax-ns#">
      <rdf:Description rdf:about=""/>
   </rdf:RDF>
</x:xmpmeta>
                                                                                                    
                                                                                                    
                                                                                                    
                                                                                                    
                                                                                                    
                                                                                                    
                                                                                                    
                                                                                                    
                                                                                                    
                                                                                                    
                                                                                                    
                                                                                                    
                                                                                                    
                                                                                                    
                                                                                                    
                                                                                                    
                                                                                                    
                                                                                                    
                                                                                                    
                                                                                                    
                           
<?xpacket end="w"?></metadata>
<defs>
    <style>
      .cls-1, .cls-3 {
        fill: #6838b5;
      }

      .cls-2, .cls-4 {
        fill: #fff;
      }

      .cls-3, .cls-4 {
        fill-rule: evenodd;
      }
    </style>
  </defs>
  <rect id="角丸長方形_1" data-name="角丸長方形 1" class="cls-1" x="1" y="1" width="378" height="58" rx="4" ry="4"/>
  <rect id="角丸長方形_2" data-name="角丸長方形 2" class="cls-2" x="30" y="17" width="26" height="26" rx="4" ry="4"/>
  <path id="シェイプ_1" data-name="シェイプ 1" class="cls-3" d="M31,23q5.338,0,10.676,0c0.017,0.044.033,0.089,0.048,0.135a11.085,11.085,0,0,0-.033,1.3h-3.23C39.347,25.69,40.3,26.9,41.251,28.1c0.532,0.678,1.08,1.345,1.59,2.04,1.451-1.256,2.883-2.535,4.324-3.8-0.855,0-1.711,0-2.566,0q-0.18-.718-0.36-1.436,4.683,0,9.367,0c-0.024.053-.046,0.108-0.074,0.16-0.287.437-.615,0.847-0.913,1.276-0.565,0-1.129,0-1.694,0a4.56,4.56,0,0,0-.656.14,8.258,8.258,0,0,0-.987.619,46.967,46.967,0,0,0-3.777,2.954,9.74,9.74,0,0,0-1.382,1.4,1.121,1.121,0,0,0-.138.7c0,1.225.017,2.452,0.11,3.674,1.124,0.1,2.258,0,3.383.084-0.021.343-.029,0.687-0.061,1.029-1.1-.041-2.2-0.022-3.305-0.027-1.329,0-2.659-.01-3.988.031-1.051.019-2.1,0.06-3.155,0.042q0.087-.487.175-0.975a20.417,20.417,0,0,0,2.2-.083,2.393,2.393,0,0,0,.713-0.186,0.353,0.353,0,0,0,.211-0.21,4.483,4.483,0,0,0,.094-0.855c0.03-.953.022-1.907-0.042-2.859a1.013,1.013,0,0,0-.247-0.521c-0.5-.717-1.057-1.4-1.607-2.084C37.476,28,36.461,26.8,35.394,25.635a13.777,13.777,0,0,0-1.172-1.161,0.3,0.3,0,0,0-.211-0.039c-1,0-2,0-3.007,0C31,23.96,31,23.48,31,23Zm20.856,4.83c1.044,0.13,2.094.224,3.144,0.3q-0.837,3.153-1.672,6.307c-0.479-.034-0.958-0.074-1.437-0.111C51.885,32.164,51.864,30,51.856,27.83Zm-0.208,7.52a15.916,15.916,0,0,0,1.743.15q-0.115.75-.228,1.5-0.756-.05-1.51-0.117C51.655,36.372,51.643,35.861,51.648,35.35Z"/>
  <path id="Yahoo_アカウントで登録" data-name="Yahoo!アカウントで登録" class="cls-4" d="M92.5,37.216a14.854,14.854,0,0,1-.144-2.323V31.346l4.159-6.608c0.306-.5.99-1.494,1.242-1.854H94.622a7.867,7.867,0,0,1-.846,1.782l-2.647,4.411-2.611-4.429a7.3,7.3,0,0,1-.864-1.764H84.5c0.576,0.828.99,1.422,1.26,1.854l4.159,6.59v3.565a17.233,17.233,0,0,1-.144,2.323H92.5Zm13.41,0h2.43a14.486,14.486,0,0,1-.144-2.251V30.122a3.024,3.024,0,0,0-.846-2.485c-0.774-.756-1.818-1.062-3.547-1.062a5.391,5.391,0,0,0-3.439.918,3.762,3.762,0,0,0-1.422,2l2.3,0.414a1.958,1.958,0,0,1,.721-1.152,3.247,3.247,0,0,1,1.872-.522c1.369,0,2.071.54,2.071,1.584v0.918a13.626,13.626,0,0,0-5.078.72,3.194,3.194,0,0,0-2.034,2.917c0,1.891,1.332,3.025,3.529,3.025A6.369,6.369,0,0,0,104,37.18a3.906,3.906,0,0,0,1.909-1.134v1.17Zm0-4.015a2.146,2.146,0,0,1-.648,1.584,3.659,3.659,0,0,1-2.5.954,1.41,1.41,0,0,1-1.639-1.368c0-1.4,1.351-2,4.79-2.071v0.9Zm4.587-10.317a16.68,16.68,0,0,1,.127,2.359v9.633a14.674,14.674,0,0,1-.145,2.341h2.593a16.026,16.026,0,0,1-.144-2.341V31.238c0.81-1.8,1.855-2.665,3.2-2.665a1.675,1.675,0,0,1,1.243.522,2.54,2.54,0,0,1,.522,1.783v4a19.142,19.142,0,0,1-.126,2.341h2.61a14.233,14.233,0,0,1-.144-2.341V30.338a3.3,3.3,0,0,0-3.619-3.637,4.2,4.2,0,0,0-3.727,1.909,7.387,7.387,0,0,0,.036-0.774V25.261a17.309,17.309,0,0,1,.126-2.377h-2.557Zm17.048,14.674c3.205,0,5.311-2.2,5.311-5.528s-2.07-5.456-5.329-5.456c-3.277,0-5.366,2.143-5.366,5.492C122.158,35.434,124.247,37.558,127.542,37.558Zm-0.018-9.111c1.908,0,3.007,1.332,3.007,3.655,0,2.2-1.153,3.547-3.025,3.547s-3.025-1.368-3.025-3.583C124.481,29.816,125.633,28.447,127.524,28.447ZM139.6,37.558c3.2,0,5.311-2.2,5.311-5.528s-2.07-5.456-5.329-5.456c-3.277,0-5.366,2.143-5.366,5.492C134.218,35.434,136.307,37.558,139.6,37.558Zm-0.018-9.111c1.908,0,3.007,1.332,3.007,3.655,0,2.2-1.153,3.547-3.025,3.547s-3.025-1.368-3.025-3.583C136.541,29.816,137.693,28.447,139.584,28.447ZM149.7,33.273a6.433,6.433,0,0,1-.036-0.756c0-.252,0-0.252.036-1.314l0.252-6.122c0.036-.774.108-1.71,0.162-2.2H147.16c0.072,0.5.126,1.4,0.162,2.2l0.252,6.122c0.054,1.1.054,1.1,0.054,1.3,0,0.216-.018.4-0.036,0.774H149.7Zm0.252,3.943V34.749H147.34v2.467h2.611Zm17.391-13.99a4.955,4.955,0,0,1-1.746.162h-9.4a14.363,14.363,0,0,1-2.485-.144v2.251a17.308,17.308,0,0,1,2.449-.108h9.453a7.454,7.454,0,0,1-1.711,2.287,8.346,8.346,0,0,1-2.628,1.656,6.085,6.085,0,0,1,1.62,1.639,11.3,11.3,0,0,0,2.161-1.494,11.426,11.426,0,0,0,2.772-3.619,5.026,5.026,0,0,1,.721-1.26Zm-8.552,3.637a4.56,4.56,0,0,1,.09,1.08c0,3.4-.576,4.951-2.413,6.41a8.3,8.3,0,0,1-3.151,1.53,6.374,6.374,0,0,1,1.423,2.053,10.4,10.4,0,0,0,4.645-3.241c1.224-1.567,1.71-3.3,1.783-6.374a8.268,8.268,0,0,1,.072-1.458H158.79Zm25.778-1.4a3.632,3.632,0,0,1-1.422.162l-4,.018c0.055-.576.055-0.738,0.073-1.134,0.036-.936.036-0.936,0.072-1.314,0-.126.018-0.234,0.018-0.342a5.241,5.241,0,0,1,.072-0.558l-2.413-.054a3.5,3.5,0,0,1,.054.7v0.45c0,0.522-.036,1.567-0.09,2.251l-3.151.018a10.337,10.337,0,0,1-2-.144l0.018,2.215a12.8,12.8,0,0,1,1.945-.09l2.989-.018c-0.018.126-.054,0.306-0.09,0.558a9.22,9.22,0,0,1-.919,3.133,10.135,10.135,0,0,1-4.681,4.537,7.118,7.118,0,0,1,1.621,1.908,13.206,13.206,0,0,0,4.861-4.987,13.184,13.184,0,0,0,1.44-5.15l4.2-.018a40.432,40.432,0,0,1-.4,5.762c-0.289,1.566-.559,1.963-1.333,1.963a9.343,9.343,0,0,1-2.377-.414,5.427,5.427,0,0,1,.415,2.3,13.728,13.728,0,0,0,2.232.2c2.161,0,2.791-.738,3.259-3.853,0.18-1.188.378-3.961,0.432-6a2.814,2.814,0,0,1,.2-1.206Zm18.234-.486a4.19,4.19,0,0,1-1.764.144H197.8V23.568a8.237,8.237,0,0,1,.09-1.3h-2.5a6.939,6.939,0,0,1,.09,1.314v1.549h-3.529a14.008,14.008,0,0,1-1.945-.09,14.767,14.767,0,0,1,.072,1.71v2.611a13.4,13.4,0,0,1-.09,1.512H192.4c-0.036-.4-0.054-0.882-0.054-1.44V27.115h8.787a8.9,8.9,0,0,1-4.322,7.22,11.834,11.834,0,0,1-3.835,1.495,6.6,6.6,0,0,1,1.441,2.143A16.35,16.35,0,0,0,198,36.352a10.544,10.544,0,0,0,4.447-4.969,15.116,15.116,0,0,0,1.134-4.357,2.867,2.867,0,0,1,.27-0.99Zm5.09,0.468a18.907,18.907,0,0,1,4.592,3.655l1.548-1.963a25.5,25.5,0,0,0-4.645-3.475Zm0.631,11.884a6.37,6.37,0,0,1,1.188-.306,19.45,19.45,0,0,0,6.86-2.7,15.8,15.8,0,0,0,5.708-7.058,7.75,7.75,0,0,1-1.909-1.765,15.036,15.036,0,0,1-1.836,3.6,12.032,12.032,0,0,1-5.348,4.411,17.161,17.161,0,0,1-5.33,1.332Zm22.411,0.486a19.8,19.8,0,0,1-.072-2V31.058a9.311,9.311,0,0,0-.072-1.224,5.829,5.829,0,0,0,.612.306,42.624,42.624,0,0,1,6.374,3.439l1.26-2.125a52.9,52.9,0,0,0-8.174-3.8V24.306a12.075,12.075,0,0,1,.072-1.891h-2.467a11.578,11.578,0,0,1,.108,1.837V35.794a12.132,12.132,0,0,1-.108,2.017h2.467Zm12.22-11.019a26.143,26.143,0,0,1,2.989-.36c3.907-.288,4.609-0.36,6.068-0.576a7.954,7.954,0,0,0-2.5,1.819A6.271,6.271,0,0,0,248,31.9a4.818,4.818,0,0,0,2.574,4.339,10.836,10.836,0,0,0,4.214,1.188c0.306,0.054.4,0.054,0.612,0.108l0.324-2.449c-0.18.018-.342,0.018-0.36,0.018a10.926,10.926,0,0,1-2.683-.468,3.024,3.024,0,0,1-2.4-2.935c0-1.819,1.351-3.619,3.637-4.807a8.055,8.055,0,0,1,3.565-.972,2.809,2.809,0,0,1,.379.018l-0.127-2.287a13.267,13.267,0,0,1-2.07.162c-4.988.234-7.977,0.4-8.985,0.45-2.647.18-2.647,0.18-2.971,0.18-0.09,0-.288,0-0.684-0.018Zm10.839,0.972a11.421,11.421,0,0,1,1.6,2.467l1.368-.72a9.656,9.656,0,0,0-1.6-2.431Zm4.952,0.738a9.412,9.412,0,0,0-1.585-2.323l-1.314.648a11.934,11.934,0,0,1,1.548,2.395Zm15.965-4.357a10.044,10.044,0,0,1-1.782,2.125,12.242,12.242,0,0,1-1.117-.9,19.521,19.521,0,0,0,1.855-2.071l-1.5-.99a9.888,9.888,0,0,1-1.512,1.945,4.5,4.5,0,0,1-1.206-2.035,10.072,10.072,0,0,1-1.549.072h-3.385a8.1,8.1,0,0,1-1.494-.09v1.819a8.013,8.013,0,0,1,1.1-.072H266.7a9.38,9.38,0,0,1-1.711,1.819,22.264,22.264,0,0,0-2.52-2.2l-1.333,1.188a15.087,15.087,0,0,1,2.413,2.107,15.308,15.308,0,0,1-3.385,1.782,5.626,5.626,0,0,1,.972,1.711,19.544,19.544,0,0,0,4.483-2.791v1.17a6.8,6.8,0,0,1,1.135-.072h3.979a6.905,6.905,0,0,1,1.206.072V27.673a17.393,17.393,0,0,0,4.358,2.611,5.874,5.874,0,0,1,.936-1.8,18.823,18.823,0,0,1-2.737-1.278,19.7,19.7,0,0,0,1.585-1.675,2.467,2.467,0,0,1,.324-0.378Zm-8.048,2.917h-0.63a14.423,14.423,0,0,0,2.484-2.827,15.605,15.605,0,0,0,2.485,2.827h-4.339Zm-4.484,9.219a11.3,11.3,0,0,1-1.746-.09v1.945a13.344,13.344,0,0,1,1.873-.09h12.459a13.2,13.2,0,0,1,1.873.09V36.19a11.569,11.569,0,0,1-1.765.09h-3.079c0.126-.18.541-0.954,0.829-1.495l-1.5-.54h1.747a11.828,11.828,0,0,1,1.3.054,8.823,8.823,0,0,1-.072-1.314V30.7a7.892,7.892,0,0,1,.072-1.206,10.184,10.184,0,0,1-1.4.072h-8.5a11.17,11.17,0,0,1-1.422-.072,8.786,8.786,0,0,1,.072,1.224v2.269a10.342,10.342,0,0,1-.072,1.314,11.6,11.6,0,0,1,1.3-.054h1.927l-1.585.576a6.931,6.931,0,0,1,.738,1.458h-3.043Zm4.988,0a14.579,14.579,0,0,0-.9-2.035h4.5a10.748,10.748,0,0,1-.918,2.035h-2.683Zm-2.395-5.114h7.418v1.458h-7.418V31.166Zm19.585,3.475a16.365,16.365,0,0,0,.864-2.881l-1.368-.45a13.716,13.716,0,0,1-.721,2.935Zm1.026-4.177a12.167,12.167,0,0,1,1.585,2.863l1.386-.918a11.7,11.7,0,0,0-1.567-2.683Zm-4.195-2.575V29.1h-0.918a15.3,15.3,0,0,1-1.783-.09v1.837a14.706,14.706,0,0,1,1.765-.09h0.936v5.041a13.337,13.337,0,0,1-2.809.378l0.27,1.98a10.877,10.877,0,0,1,1.422-.324A40.34,40.34,0,0,0,285.1,36.55V35.83l0.576,1.278c0.306-.216.306-0.216,0.594-0.414,1.225-.846,1.225-0.846,1.531-1.062a15.342,15.342,0,0,0,1.278-1.008v1.71c0,0.4-.126.468-0.792,0.468a7.079,7.079,0,0,1-1.405-.18,5.206,5.206,0,0,1,.415,1.819c0.7,0.054,1.188.072,1.584,0.072,1.458,0,1.981-.432,1.981-1.639v-2.3q-0.054-1.458-.108-2a10.062,10.062,0,0,0,1.368,2.791,10.966,10.966,0,0,0,2.2,2.323,7.6,7.6,0,0,1,1.08-1.764,8.746,8.746,0,0,1-2.773-2.593,20.117,20.117,0,0,0,2.395-2.557l-1.477-1.044a8.7,8.7,0,0,1-1.746,2.161,8.493,8.493,0,0,1-.864-2.665h2.412a15.345,15.345,0,0,1,1.711.09V27.529a11.139,11.139,0,0,1-1.729.108h-0.108c0.072-.936.162-2.521,0.216-3.457a15.243,15.243,0,0,1,.108-1.746,13.377,13.377,0,0,1-1.656.072h-4.231a12.229,12.229,0,0,1-1.8-.09v1.729a14.158,14.158,0,0,1,1.711-.072H291.6c-0.018.486-.018,0.54-0.054,0.99H287.9a9.3,9.3,0,0,1-1.639-.09v1.71a12.524,12.524,0,0,1,1.639-.072h3.565c-0.018.306-.036,0.486-0.072,1.026h-4.556a11.628,11.628,0,0,1-1.728-.108v1.494a8.3,8.3,0,0,1-1.278.072h-0.721V27.889h0.522a6.327,6.327,0,0,1,1.063.054v-1.35l0.144,0.126a6.5,6.5,0,0,1,1.1-1.6,7.2,7.2,0,0,1-2.629-3.025h-1.98a8.319,8.319,0,0,1-3.115,3.889,5.4,5.4,0,0,1,.828,1.71c0.378-.306.486-0.4,0.828-0.7v0.954a10.51,10.51,0,0,1,1.063-.054h0.45Zm7.688,1.332v3.421a19.253,19.253,0,0,1-4,2.611V34.875c-0.954.288-1.279,0.4-1.963,0.558V30.752h0.721a7.377,7.377,0,0,1,1.4.09V29.294a12.784,12.784,0,0,1,1.6-.072h2.233Zm-8.462-2.953a10.729,10.729,0,0,0,1.8-2.557,10.632,10.632,0,0,0,1.909,2.539c-0.234.018-.342,0.018-0.667,0.018h-3.042Zm0.36,8.625a19.3,19.3,0,0,0-.793-3.493l-1.4.432a18.128,18.128,0,0,1,.756,3.511Z"/>
</svg>
