<svg id="グループ_1" data-name="グループ 1" xmlns="http://www.w3.org/2000/svg" width="380" height="60" viewBox="0 0 380 60">
  <metadata><?xpacket begin="﻿" id="W5M0MpCehiHzreSzNTczkc9d"?>
<x:xmpmeta xmlns:x="adobe:ns:meta/" x:xmptk="Adobe XMP Core 5.6-c138 79.159824, 2016/09/14-01:09:01        ">
   <rdf:RDF xmlns:rdf="http://www.w3.org/1999/02/22-rdf-syntax-ns#">
      <rdf:Description rdf:about=""/>
   </rdf:RDF>
</x:xmpmeta>
                                                                                                    
                                                                                                    
                                                                                                    
                                                                                                    
                                                                                                    
                                                                                                    
                                                                                                    
                                                                                                    
                                                                                                    
                                                                                                    
                                                                                                    
                                                                                                    
                                                                                                    
                                                                                                    
                                                                                                    
                                                                                                    
                                                                                                    
                                                                                                    
                                                                                                    
                                                                                                    
                           
<?xpacket end="w"?></metadata>
<defs>
    <style>
      .cls-1, .cls-3 {
        fill: #6838b5;
      }

      .cls-2, .cls-4 {
        fill: #fff;
      }

      .cls-3, .cls-4 {
        fill-rule: evenodd;
      }
    </style>
  </defs>
  <rect id="角丸長方形_1" data-name="角丸長方形 1" class="cls-1" x="1" y="1" width="378" height="58" rx="4" ry="4"/>
  <rect id="角丸長方形_2" data-name="角丸長方形 2" class="cls-2" x="30" y="17" width="26" height="26" rx="4" ry="4"/>
  <path id="シェイプ_1" data-name="シェイプ 1" class="cls-3" d="M31,23q5.338,0,10.676,0c0.017,0.044.033,0.089,0.048,0.135a11.085,11.085,0,0,0-.033,1.3h-3.23C39.347,25.69,40.3,26.9,41.251,28.1c0.532,0.678,1.08,1.345,1.59,2.04,1.451-1.256,2.883-2.535,4.324-3.8-0.855,0-1.711,0-2.566,0q-0.18-.718-0.36-1.436,4.683,0,9.367,0c-0.024.053-.046,0.108-0.074,0.16-0.287.437-.615,0.847-0.913,1.276-0.565,0-1.129,0-1.694,0a4.56,4.56,0,0,0-.656.14,8.258,8.258,0,0,0-.987.619,46.967,46.967,0,0,0-3.777,2.954,9.74,9.74,0,0,0-1.382,1.4,1.121,1.121,0,0,0-.138.7c0,1.225.017,2.452,0.11,3.674,1.124,0.1,2.258,0,3.383.084-0.021.343-.029,0.687-0.061,1.029-1.1-.041-2.2-0.022-3.305-0.027-1.329,0-2.659-.01-3.988.031-1.051.019-2.1,0.06-3.155,0.042q0.087-.487.175-0.975a20.417,20.417,0,0,0,2.2-.083,2.393,2.393,0,0,0,.713-0.186,0.353,0.353,0,0,0,.211-0.21,4.483,4.483,0,0,0,.094-0.855c0.03-.953.022-1.907-0.042-2.859a1.013,1.013,0,0,0-.247-0.521c-0.5-.717-1.057-1.4-1.607-2.084C37.476,28,36.461,26.8,35.394,25.635a13.777,13.777,0,0,0-1.172-1.161,0.3,0.3,0,0,0-.211-0.039c-1,0-2,0-3.007,0C31,23.96,31,23.48,31,23Zm20.856,4.83c1.044,0.13,2.094.224,3.144,0.3q-0.837,3.153-1.672,6.307c-0.479-.034-0.958-0.074-1.437-0.111C51.885,32.164,51.864,30,51.856,27.83Zm-0.208,7.52a15.916,15.916,0,0,0,1.743.15q-0.115.75-.228,1.5-0.756-.05-1.51-0.117C51.655,36.372,51.643,35.861,51.648,35.35Z"/>
  <path id="Yahoo_でログイン" data-name="Yahoo!でログイン" class="cls-4" d="M119.5,37.216a14.855,14.855,0,0,1-.144-2.323V31.346l4.159-6.608c0.306-.5.99-1.494,1.242-1.854h-3.132a7.926,7.926,0,0,1-.847,1.782l-2.647,4.411-2.61-4.429a7.306,7.306,0,0,1-.865-1.764H111.5c0.576,0.828.99,1.422,1.26,1.854l4.159,6.59v3.565a17.233,17.233,0,0,1-.144,2.323H119.5Zm13.41,0h2.43a14.486,14.486,0,0,1-.144-2.251V30.122a3.024,3.024,0,0,0-.846-2.485c-0.774-.756-1.818-1.062-3.547-1.062a5.391,5.391,0,0,0-3.439.918,3.762,3.762,0,0,0-1.422,2l2.3,0.414a1.958,1.958,0,0,1,.721-1.152,3.247,3.247,0,0,1,1.872-.522c1.369,0,2.071.54,2.071,1.584v0.918a13.626,13.626,0,0,0-5.078.72,3.194,3.194,0,0,0-2.034,2.917c0,1.891,1.332,3.025,3.529,3.025A6.369,6.369,0,0,0,131,37.18a3.906,3.906,0,0,0,1.909-1.134v1.17Zm0-4.015a2.146,2.146,0,0,1-.648,1.584,3.659,3.659,0,0,1-2.5.954,1.41,1.41,0,0,1-1.639-1.368c0-1.4,1.351-2,4.79-2.071v0.9Zm4.587-10.317a16.68,16.68,0,0,1,.127,2.359v9.633a14.674,14.674,0,0,1-.145,2.341h2.593a16.026,16.026,0,0,1-.144-2.341V31.238c0.81-1.8,1.855-2.665,3.2-2.665a1.675,1.675,0,0,1,1.243.522,2.54,2.54,0,0,1,.522,1.783v4a19.142,19.142,0,0,1-.126,2.341h2.61a14.233,14.233,0,0,1-.144-2.341V30.338a3.3,3.3,0,0,0-3.619-3.637,4.2,4.2,0,0,0-3.727,1.909,7.387,7.387,0,0,0,.036-0.774V25.261a17.309,17.309,0,0,1,.126-2.377h-2.557Zm17.048,14.674c3.205,0,5.311-2.2,5.311-5.528s-2.07-5.456-5.329-5.456c-3.277,0-5.366,2.143-5.366,5.492C149.158,35.434,151.247,37.558,154.542,37.558Zm-0.018-9.111c1.908,0,3.007,1.332,3.007,3.655,0,2.2-1.153,3.547-3.025,3.547s-3.025-1.368-3.025-3.583C151.481,29.816,152.633,28.447,154.524,28.447ZM166.6,37.558c3.2,0,5.311-2.2,5.311-5.528s-2.07-5.456-5.329-5.456c-3.277,0-5.366,2.143-5.366,5.492C161.218,35.434,163.307,37.558,166.6,37.558Zm-0.018-9.111c1.908,0,3.007,1.332,3.007,3.655,0,2.2-1.153,3.547-3.025,3.547s-3.025-1.368-3.025-3.583C163.541,29.816,164.693,28.447,166.584,28.447ZM176.7,33.273a6.433,6.433,0,0,1-.036-0.756c0-.252,0-0.252.036-1.314l0.252-6.122c0.036-.774.108-1.71,0.162-2.2H174.16c0.072,0.5.126,1.4,0.162,2.2l0.252,6.122c0.054,1.1.054,1.1,0.054,1.3,0,0.216-.018.4-0.036,0.774H176.7Zm0.252,3.943V34.749H174.34v2.467h2.611Zm3.2-10.425a26.143,26.143,0,0,1,2.989-.36c3.907-.288,4.609-0.36,6.068-0.576a7.954,7.954,0,0,0-2.5,1.819A6.271,6.271,0,0,0,185,31.9a4.818,4.818,0,0,0,2.574,4.339,10.836,10.836,0,0,0,4.214,1.188c0.306,0.054.4,0.054,0.612,0.108l0.324-2.449c-0.18.018-.342,0.018-0.36,0.018a10.926,10.926,0,0,1-2.683-.468,3.024,3.024,0,0,1-2.4-2.935c0-1.819,1.351-3.619,3.637-4.807a8.055,8.055,0,0,1,3.565-.972,2.809,2.809,0,0,1,.379.018l-0.127-2.287a13.267,13.267,0,0,1-2.07.162c-4.988.234-7.977,0.4-8.985,0.45-2.647.18-2.647,0.18-2.971,0.18-0.09,0-.288,0-0.684-0.018Zm10.839,0.972a11.421,11.421,0,0,1,1.6,2.467l1.368-.72a9.656,9.656,0,0,0-1.6-2.431Zm4.952,0.738a9.412,9.412,0,0,0-1.585-2.323l-1.314.648a11.934,11.934,0,0,1,1.548,2.395Zm14.093,7.454V37.2h2.322a12.347,12.347,0,0,1-.072-1.566v-10.3c0-.666.018-1.026,0.054-1.494-0.414.036-.738,0.054-1.512,0.054H200.6c-0.72,0-1.1-.018-1.531-0.054a11.96,11.96,0,0,1,.072,1.512V35.668a12.037,12.037,0,0,1-.072,1.548H201.4v-1.26h8.643Zm0-2.053H201.4V25.927h8.643V33.9Zm19.152-9.147,0.954-.342a8.457,8.457,0,0,0-1.386-2.323l-1.441.5a9.832,9.832,0,0,1,1.243,2.071,4.954,4.954,0,0,1-.9.054l-3.944.054c-0.378.018-.666,0.018-0.864,0.036,0.252-.468.378-0.738,0.7-1.459a2.5,2.5,0,0,1,.36-0.648l-2.466-.5a6.77,6.77,0,0,1-.919,2.395,13.844,13.844,0,0,1-4.663,5.222,4.794,4.794,0,0,1,1.747,1.548,17.433,17.433,0,0,0,4.213-4.627l5.419-.072a14.323,14.323,0,0,1-5.257,7.6,15.634,15.634,0,0,1-3.943,2.107,5.547,5.547,0,0,1,1.53,1.891,17.929,17.929,0,0,0,6.41-4.555,18.664,18.664,0,0,0,3.691-6.95,3.2,3.2,0,0,1,.45-1.08Zm3.151-1.044a9.391,9.391,0,0,0-1.386-2.233l-1.405.54a11.637,11.637,0,0,1,1.351,2.287Zm14.111-1.332a14.409,14.409,0,0,1-3.349,3.367,26.3,26.3,0,0,1-9.453,4.681,6.774,6.774,0,0,1,1.206,2.053,29.16,29.16,0,0,0,6.428-2.917V35.9a10.131,10.131,0,0,1-.108,1.945H243.7a13.625,13.625,0,0,1-.09-2V28.159a31.847,31.847,0,0,0,4.249-3.709,7.4,7.4,0,0,1,.666-0.63Zm6.44,3.061a18.907,18.907,0,0,1,4.592,3.655l1.548-1.963a25.5,25.5,0,0,0-4.645-3.475Zm0.631,11.884a6.37,6.37,0,0,1,1.188-.306,19.45,19.45,0,0,0,6.86-2.7,15.8,15.8,0,0,0,5.708-7.058,7.75,7.75,0,0,1-1.909-1.765,15.036,15.036,0,0,1-1.836,3.6,12.032,12.032,0,0,1-5.348,4.411,17.161,17.161,0,0,1-5.33,1.332Z"/>
</svg>
